<?xml version="1.0" encoding="UTF-8"?>
<svg width="753px" height="468px" viewBox="0 0 753 468" version="1.1" xmlns="http://www.w3.org/2000/svg" xmlns:xlink="http://www.w3.org/1999/xlink">
    <!-- Generator: Sketch 55.2 (78181) - https://sketchapp.com -->
    <title>Group</title>
    <desc>Created with Sketch.</desc>
    <g id="Page-1" stroke="none" stroke-width="1" fill="none" fill-rule="evenodd">
        <g id="Case-study-DigitalSky" transform="translate(-927.000000, -938.000000)" stroke="#4F4F88">
            <g id="Text-Copy" transform="translate(90.000000, 938.000000)">
                <g id="Group">
                    <g transform="translate(1261.032354, 147.855861) rotate(-5.000000) translate(-1261.032354, -147.855861) translate(823.532354, -187.144139)">
                        <path d="M609.056478,433.919657 C608.492762,434.2687 608.990669,435.056222 609.281219,435.399055 C609.8797,436.108322 610.773698,435.669844 611.593196,435.817659 C612.04392,435.899641 612.467327,435.866103 612.910601,435.785363 C613.084434,435.75431 613.905174,435.504638 613.905174,435.238818 C613.550058,435.11833 613.2831,434.596627 612.942884,434.402852 C612.108487,434.088589 609.697176,433.524653 609.056478,433.919657 Z M616.250676,436.525684 C615.356678,435.907094 613.57365,436.428796 612.68586,436.8474 C611.420605,437.446116 609.452568,437.016332 608.220838,436.590276 C607.061124,436.187819 605.980877,437.618774 605.042179,438.198858 C603.985523,438.852228 602.501735,438.925514 601.252622,438.971474 C600.336274,439.005012 597.707672,441.937724 598.04168,442.607242 C598.256488,443.038268 598.912086,443.419607 598.555729,443.9587 C597.808247,445.085328 597.821905,445.445551 598.748187,446.661615 C599.575134,447.749737 600.393391,446.367225 601.092447,446.018182 C601.699621,445.713855 602.106886,446.060415 602.697918,446.178419 C603.384558,446.315055 605.718886,445.82068 605.684119,444.957387 C605.660528,444.340039 605.109229,444.157443 605.491661,443.509042 C605.748686,443.071806 606.513551,442.977402 606.776783,442.607242 C608.315204,442.607242 608.939761,441.856985 610.373883,441.481856 C611.43178,441.204857 612.66351,441.752644 613.552541,440.99866 C615.067371,439.713037 621.298039,440.221075 620.874631,437.201413 C619.731059,436.485935 618.883003,436.913234 617.727014,436.622571 L616.250676,436.525684 Z M611.080389,360.360872 C611.214489,359.765883 610.88669,358.881473 610.469491,358.462869 C610.060983,358.051718 609.23031,358.192081 608.703845,358.30139 C607.39389,358.574662 606.724633,357.90266 605.556228,357.594607 C605.143996,357.485298 604.690788,357.506415 604.303389,357.33624 C604.021532,357.212026 603.559633,356.821991 603.276534,356.821991 C602.954943,356.821991 603.058001,357.33003 603.179684,357.49772 C604.036432,358.665339 606.557009,358.46908 607.772597,359.169651 C608.120263,359.370879 608.346246,359.786999 608.54367,360.071451 C608.872711,360.547194 610.053533,360.506203 610.630907,360.554647 L611.080389,360.360872 Z M579.318635,362.775608 C579.581868,362.391784 579.671267,362.060131 579.671267,361.584388 C579.632776,361.570724 579.620359,361.559545 579.606701,361.519796 C579.460185,361.519796 579.293802,361.422909 579.093894,361.422909 C578.75492,361.422909 578.453195,361.605504 578.130363,361.680033 C577.551748,361.815427 576.959474,362.002992 576.429284,362.195525 C575.620961,362.48743 575.342828,362.915971 574.885896,363.578036 C574.666122,363.900995 574.59783,363.966828 574.59783,364.38419 C574.59783,364.676095 574.502222,364.963031 574.565547,365.218914 C575.144162,365.218914 575.875502,364.594113 576.395759,364.350652 C577.046391,364.047568 577.879547,363.840129 578.548804,363.451337 L579.318635,362.774366 L579.318635,362.775608 Z M170.536912,325.963299 C169.443006,326.195581 168.760091,327.175636 167.646319,327.347052 C166.860346,327.46754 165.92289,327.021609 165.20645,327.379348 C164.785526,327.588029 165.130709,328.437658 165.1096,328.826451 C165.062417,329.705892 164.59431,330.550553 164.275202,331.336833 C164.177111,331.576567 163.430871,333.364019 163.921328,333.364019 C164.014453,333.639776 164.362119,333.048513 164.403094,332.977711 C164.754484,332.3703 165.242458,332.083364 165.912957,331.915674 C167.023004,331.639917 166.359955,330.587817 166.779638,329.856192 C167.113645,329.273624 168.339167,328.312201 169.060574,328.312201 C169.307665,328.276179 169.515023,328.222767 169.765839,328.24761 C170.084946,328.279906 170.179313,328.632676 170.312171,328.858747 C170.384187,328.981719 170.422679,329.124566 170.569195,329.180463 C171.232243,329.435104 172.403132,327.734602 172.014491,327.636473 C171.913917,327.227806 171.023644,327.031546 170.923069,326.412957 L170.536912,325.963299 Z M192.535465,327.474993 C192.270991,327.414128 192.036316,327.364442 191.764392,327.314756 C191.268968,327.224079 190.608403,327.262586 190.126638,327.379348 C189.513256,327.527164 189.227673,327.692369 189.227673,328.344497 C189.323282,328.471196 189.35929,328.677393 189.420131,328.826451 C189.605139,329.286046 190.487962,329.668627 190.897711,329.856192 C191.254068,330.020155 191.640226,329.920784 192.021417,329.920784 C192.244916,329.751851 192.431165,329.631363 192.535465,329.341942 C192.639765,329.05128 192.890581,328.197924 192.727923,327.925893 L192.535465,327.474993 Z M197.031529,320.300344 C196.316331,320.135139 195.660732,319.911552 194.879726,319.88174 C194.390511,319.863108 192.468415,319.79479 192.310724,320.428286 C191.467635,321.029485 194.057745,322.416965 194.462527,322.648005 C195.008859,322.96351 195.617274,323.167223 196.228173,322.938668 C196.62178,322.790852 196.953304,322.58714 197.223987,322.262939 C197.556753,321.862967 197.608903,321.677887 197.608903,321.168606 L197.031529,320.300344 Z M232.06755,334.586293 C232.103558,333.772686 232.1197,332.896971 232.421424,332.140503 C232.68714,331.470985 232.74674,330.611418 232.389141,329.985375 C231.26916,329.705892 230.561412,328.540757 229.433982,328.923338 C228.181143,329.348153 226.912163,329.964259 225.708991,330.564216 C225.58855,330.987789 225.239642,331.128152 225.3874,331.690845 C225.865441,333.505624 231.973184,336.796075 232.06755,334.586293 Z M270.762754,310.389242 C270.91672,310.148266 271.016053,309.925921 270.890645,309.648922 C270.721779,309.271309 270.254913,309.29491 269.896072,309.29491 C269.676298,309.29491 269.347257,309.358259 269.156041,309.456389 C269.024425,309.523465 268.643234,309.61911 268.643234,309.778105 C268.327851,309.882446 268.963583,310.530847 269.092716,310.581775 C269.377057,310.694811 269.719756,310.710959 270.023964,310.710959 L270.762754,310.389242 Z M270.344313,317.308009 C270.21518,317.187521 270.089772,317.08318 269.959397,316.952754 C269.658915,316.652155 268.663101,316.453411 268.321643,316.760221 C268.161468,316.904311 268.158985,317.139077 268.224793,317.339063 C268.291843,317.540291 268.396143,318.003612 268.546384,318.111679 C268.573701,318.299243 269.014491,318.48805 269.189566,318.497987 C269.405615,318.510409 269.49129,318.555126 269.702373,318.465691 C269.909731,318.378741 270.165513,318.284338 270.344313,318.176271 L270.344313,317.308009 Z M267.454962,318.884295 C267.454962,317.101812 266.603181,316.696872 264.917002,316.889405 C264.145928,316.976355 263.857863,316.986292 263.857863,317.854554 C263.857863,318.547673 263.854138,319.107882 263.794538,319.784853 C262.793757,320.786024 261.532227,319.412208 260.582354,319.012236 C260.063339,318.793618 258.035702,318.660708 258.30266,319.720261 C258.565892,320.771119 262.84839,321.65056 263.890146,321.779743 C264.770485,321.890294 265.910332,321.476659 266.813022,321.393435 C268.039785,321.281642 267.536912,320.89906 267.872161,320.009682 L267.454962,318.884295 Z M277.923427,315.376468 C278.416368,315.110648 278.80625,314.547955 279.337682,314.283378 C279.511515,313.668514 279.900156,313.056135 279.143983,312.641257 C278.855917,312.482262 278.505768,312.494684 278.245018,312.319541 C277.801744,312.021425 277.347296,310.91964 276.799722,311.032675 C276.228557,311.151922 275.810116,311.851251 275.226534,312.062416 C274.635502,312.276066 274.306462,312.389101 273.652105,312.416429 C272.561924,312.459904 271.941092,312.685975 271.436977,313.638703 C270.906787,314.642358 270.369146,316.409936 271.854176,316.792517 C272.692299,317.008651 273.216281,317.229754 274.102829,317.049642 C275.01421,316.864562 275.897033,316.201255 276.799722,315.923013 L277.924669,315.376468 L277.923427,315.376468 Z M324.136904,250.73134 C324.170429,250.295346 324.456012,249.44199 324.169187,249.058166 C323.822763,249.058166 323.594297,249.317775 323.268981,249.379883 C323.139848,249.404726 323.016923,249.437022 322.884065,249.444474 C322.744999,249.451927 322.645666,249.52273 322.49915,249.54012 C322.114234,249.587321 321.744218,249.936365 321.85721,250.377328 C321.936676,250.695318 322.136584,251.407069 322.4023,251.600844 C322.747482,251.849274 323.507381,251.618234 323.87988,251.503956 L324.136904,250.73134 Z M331.074078,257.520923 C330.846854,257.746994 330.677988,257.92959 330.399855,258.099764 C330.089439,258.289813 329.693349,258.48483 329.436324,258.744439 C329.313399,258.86617 329.190475,258.944425 329.08245,259.064914 C328.994292,259.165528 329.017884,259.315828 329.017884,259.451222 C329.084933,259.474823 329.034025,259.500908 329.147017,259.515813 C329.170608,259.612701 329.24635,259.66984 329.274908,259.772938 C329.334508,259.990314 329.309674,260.189058 329.531932,260.28843 C329.900706,260.453635 330.357639,260.044969 330.527746,259.740642 C330.713996,259.407747 330.860512,258.972995 331.074078,258.615256 L331.074078,257.520923 Z M329.788957,253.595734 C330.052189,252.736168 330.689163,251.998331 330.689163,251.020761 C330.689163,249.855626 329.56794,251.646803 329.307191,251.921318 C328.893717,252.359797 328.025794,252.890194 327.476979,253.112539 C326.458815,253.52369 326.803997,254.336055 326.641339,255.236612 C326.556906,255.711113 326.52959,256.203004 326.448882,256.683715 C326.375623,257.123436 326.348307,257.626506 326.448882,258.035173 C326.956722,258.163114 327.609837,257.06257 327.894178,256.683715 C328.40326,256.006744 329.086175,255.296235 329.467366,254.528588 L329.788957,253.595734 Z M313.636155,264.084435 C315.144776,262.806265 316.993613,261.690815 318.645026,260.545554 C319.059742,260.258618 319.519157,260.10335 319.961189,259.869826 C320.835321,259.407747 323.25284,258.086101 323.558289,257.166911 C324.037571,257.284915 324.58142,259.440042 324.297079,259.869826 C323.756955,260.685917 321.406486,260.503321 321.406486,261.639887 C321.847276,261.747954 324.135662,261.53182 324.200229,261.767828 C324.271004,262.019985 323.374523,263.378895 323.205656,263.699369 C322.563716,264.916675 321.226445,265.326584 319.930148,265.469431 C319.108167,265.558865 318.211685,265.63091 317.393429,265.501726 C316.464665,265.353911 315.630267,265.045858 314.663011,264.986235 L313.636155,264.084435 Z M89.1980143,159.225996 C88.7423238,159.037189 88.1599836,158.844656 87.6732515,158.808634 C86.9717116,158.755221 86.5569959,158.578836 86.0516389,159.161404 C86.0516389,159.291829 86.0404639,159.401138 86.0516389,159.531564 C86.3111465,159.824711 86.405513,160.074383 86.7904287,160.239589 C87.2597775,160.439575 88.0010507,160.345171 88.523791,160.38492 C88.7013489,160.397341 88.9471983,160.451996 89.1185479,160.399826 C89.3370807,160.333992 89.487322,159.888061 89.5034636,159.693043 L89.1980143,159.225996 Z M91.8315828,161.156294 C91.4305255,161.249455 90.9636599,161.222128 90.5477027,161.237034 C89.9777791,161.25815 88.9956232,161.453168 88.523791,161.768673 C87.6794598,162.330124 87.7067764,162.899028 87.7688596,163.844303 C88.0507172,164.209495 88.147567,164.306382 88.6690657,164.295203 C89.2079477,164.281539 89.878446,163.788407 90.258395,163.425699 C90.6954606,163.007095 91.2939425,162.625756 91.6391249,162.122686 L91.8315828,161.156294 Z M84.6907756,179.200984 C84.8807501,178.789833 85.5264152,177.78245 85.5264152,177.36633 C85.8902226,177.15765 86.4030296,176.56266 86.6178374,176.17511 C86.9071451,175.65465 87.3268273,174.536716 86.8425785,174.052279 C86.5209877,173.730562 86.0305306,173.531818 85.5586984,173.504491 C84.800042,173.461016 84.6088258,173.724351 84.0165523,174.019983 C83.9259108,174.339215 83.2343042,174.801294 83.0219797,175.177665 C82.6544473,175.829793 82.651964,176.599925 82.7003889,177.334035 C82.7239805,177.699226 82.7587471,178.073113 82.8282802,178.427125 C82.9524466,179.051926 83.3224623,179.116518 83.7595279,179.458108 L84.6907756,179.200984 Z M62.4041561,172.92565 C62.4041561,170.894737 59.1062977,172.431275 58.0037004,171.412713 C57.2400773,170.707173 57.359277,170.645066 56.2703381,170.833872 C55.2856988,171.004046 55.067166,170.376762 54.2141432,170.255031 C52.9252964,170.071193 51.9096156,172.268554 51.324792,173.119425 C50.13652,174.844769 50.8032933,177.105479 52.6732387,178.042059 C53.2742038,178.342659 57.5331099,180.250599 57.8435258,179.940062 C57.8435258,179.157508 57.074936,178.131494 57.7479177,177.463218 C58.9274981,177.463218 60.2684948,179.668031 61.4083419,178.525255 C62.4053978,177.524083 62.3346229,175.586332 62.7567886,174.309403 L62.4041561,172.92565 Z M52.4162143,155.034987 C53.602003,152.664968 54.0862518,152.414054 54.0862518,149.629157 C54.0862518,148.635438 54.273743,147.64172 54.1185351,146.669118 C53.996852,145.910165 53.5722031,144.949984 53.5722031,144.223327 L53.4753533,144.191032 C53.4120285,143.803481 51.9344489,143.740132 51.612858,143.740132 C51.4129502,145.169845 52.4621559,145.813277 50.8430266,146.926242 C48.3125162,148.66525 46.2203131,144.98228 44.6769253,145.993389 C43.8425273,146.538692 43.3408953,147.334909 42.5574055,147.923687 C40.488794,149.477615 39.9548787,149.456499 39.4097884,152.138297 C39.1378641,153.476091 38.5443489,154.904561 38.7678483,156.289557 C38.8336565,156.699466 37.2505354,157.200052 36.8407865,157.641014 C36.3292211,158.19377 33.1269707,163.63438 35.9095388,162.243174 C36.5663788,158.967629 40.1796198,161.845686 42.0756401,162.725128 C44.2932512,163.753626 44.9587829,163.685308 43.1993456,161.502854 C41.5454497,159.449582 43.6165446,159.802352 44.4844674,161.08425 C45.8639556,163.125099 47.7637009,164.62313 49.6224713,162.146286 C50.6207688,160.815945 49.1444308,160.109163 49.3331637,158.92788 C49.4734717,158.055892 50.9622263,156.40135 51.5495331,155.743011 L52.4162143,155.034987 Z M60.1232201,139.944126 L59.9630455,139.944126 C59.909654,139.903135 59.4552051,139.814943 59.385672,139.814943 C58.7996067,139.814943 58.2371332,139.546639 57.6187847,139.685759 C56.5807539,139.919283 56.3522878,140.418627 56.2057715,141.423525 C56.14493,141.842129 56.2380548,142.196141 56.2380548,142.613503 C56.2380548,143.124026 56.2107382,143.45568 56.5919289,143.837019 C57.5976764,143.978624 58.3240496,143.337676 59.0640811,142.679337 C59.4129886,142.3688 59.7991459,142.30545 60.1555034,142.066958 C60.5751857,141.787474 60.8856016,141.116714 60.9265765,140.618613 L60.1232201,139.944126 Z M873.060228,669.858288 L604.914288,669.858288 L604.914288,668.366468 C604.752872,667.665896 604.752872,666.715653 604.752872,665.985269 C604.752872,665.030057 604.793846,664.399046 604.238823,663.700959 C603.730982,663.628914 603.404425,663.179256 603.404425,662.671218 C603.404425,661.732153 603.773199,661.322244 604.335673,660.611736 C606.270184,659.399399 609.666134,658.387048 609.666134,655.623268 C609.666134,652.470695 609.066411,649.675861 608.67032,646.613965 C608.419504,644.663793 608.606995,643.062663 608.606995,641.143544 C609.794026,640.25665 611.362247,641.288875 611.94707,639.277837 C612.247553,638.240643 612.632469,635.011057 612.204095,634.065783 C612.713177,632.713083 612.328261,630.74552 612.396553,629.303386 C612.451186,628.150672 613.943665,626.432781 613.713958,625.504896 C613.582341,625.473842 613.527708,625.344659 613.360083,625.344659 C612.906876,623.974569 612.818718,622.479022 612.364269,621.000866 C611.888712,619.455633 614.779305,618.610972 614.291331,616.657073 C614.543389,616.433486 614.517314,614.61995 614.869946,614.051046 C615.294595,613.362896 616.107885,613.165394 616.603309,612.538109 C617.304849,611.653699 615.891835,608.707323 617.181924,607.968245 C617.234074,607.600569 617.894639,606.723612 618.08213,606.328609 C619.616826,605.487675 620.914365,607.23662 621.966054,604.847968 C622.437886,603.779721 622.540944,601.374922 623.283459,600.632117 C623.487092,598.770136 623.35175,596.693264 623.765224,594.841221 C624.243265,592.699757 625.641378,592.252584 627.137582,590.91479 C628.06883,590.082551 627.856506,588.578309 628.775337,587.890159 C628.890811,587.424353 629.933809,587.501366 630.18835,587.086489 C630.425508,586.696454 630.2852,585.614543 630.2852,585.123894 C630.2852,583.449478 630.118817,581.279445 630.573266,579.685769 C631.317022,578.729314 630.906031,575.718347 630.573266,574.632709 C630.208216,573.437762 629.126727,572.543416 629.514127,571.286361 C629.880417,570.097625 627.953355,567.230747 627.876372,565.783644 C627.726131,562.990052 626.72535,561.648532 625.852461,559.123244 C625.708428,558.707125 624.91873,555.831551 625.402978,555.712305 C625.54577,556.289904 626.231168,557.8488 626.751425,558.158095 C627.886306,558.832582 628.051447,557.933266 629.032361,557.933266 C629.032361,558.63508 629.273244,562.407485 628.389179,562.11558 C628.389179,561.334269 627.944664,559.926914 627.779523,559.092191 L627.714956,559.092191 C627.474073,559.805184 626.779983,560.489608 627.394607,561.60133 C627.665289,562.094463 628.31468,564.114197 628.775337,564.142766 C629.334085,564.176304 629.465702,564.804831 629.160252,565.333986 C628.505896,566.465584 629.562551,566.624578 629.514127,567.682889 C629.445835,569.183404 630.189592,568.803307 630.542224,569.870312 C631.222656,569.870312 630.819115,568.952365 631.055031,568.874109 C631.055031,568.495254 632.011112,569.020683 632.178737,568.775979 C632.348844,568.532518 632.283036,567.382289 632.21102,567.104048 C632.21102,565.694209 631.611296,565.510371 632.11417,563.982529 C632.33022,563.711741 632.30787,563.267051 632.435761,562.952788 C632.609594,562.527973 632.821918,562.216194 632.821918,561.730514 C632.821918,560.769091 631.655996,560.811324 631.696971,559.926914 C631.719321,559.478499 632.501569,558.944375 632.275586,558.640049 C631.914262,558.640049 630.789315,558.427641 631.022748,557.90097 C631.356755,557.148229 632.147695,557.042646 632.147695,556.130909 C632.147695,555.786834 632.191153,555.365746 632.532611,555.198056 C633.225459,554.855223 633.794141,554.644057 634.395106,554.168315 C635.484045,554.077638 636.044035,553.235461 637.317982,553.235461 C638.363463,553.235461 638.807978,552.968399 637.798506,552.141128 C637.314257,551.742399 634.858247,549.384801 634.490714,549.405918 C633.619066,549.455604 631.428772,549.535101 630.702399,549.920167 C628.734362,550.961087 627.096608,550.313928 626.26966,552.816857 L626.206335,552.816857 C626.000219,551.983376 624.122823,550.272937 623.348025,550.017055 C623.348025,549.213385 623.797507,548.01968 623.797507,546.991181 C623.737908,546.97876 623.747841,546.986213 623.732941,546.927832 C622.651452,546.927832 622.914685,546.951432 623.057476,546.219807 C623.261109,546.170121 622.647727,544.345405 622.416778,543.838609 L620.618849,539.91342 C619.293994,537.02294 618.94012,534.739872 618.337913,531.707788 C618.061022,530.317824 619.236877,530.442038 618.915286,529.132814 C615.349228,528.545278 616.578475,534.712545 614.869946,530.227147 C614.640239,529.625947 607.642223,513.950034 610.437207,514.491611 C611.619271,514.721409 612.761602,515.594639 614.002024,515.007103 C614.504897,514.769852 616.968358,513.023392 616.18611,512.240838 C615.473395,514.427019 609.878459,511.408599 608.896303,510.855843 C607.947672,510.325445 608.292854,503.645171 608.157513,503.810377 C607.449765,504.672428 606.564459,506.631296 606.293776,507.735566 C605.686603,510.2298 604.927946,506.348086 604.560414,505.611492 C604.366714,505.221458 603.827832,502.868829 603.436708,503.26259 C601.764187,504.941974 602.762485,511.211097 599.936459,511.211097 C597.615789,511.211097 598.388104,509.24105 598.072722,507.928099 C596.998683,503.452638 597.367457,501.100009 597.367457,496.730131 C597.367457,496.157501 596.728,494.039638 597.816939,493.963867 C599.956325,493.812325 601.017948,494.458242 602.473177,492.515522 C603.066692,491.721789 603.847699,492.875745 604.560414,492.998718 C605.531395,493.163923 605.20732,491.518077 604.945329,491.518077 C603.789341,491.518077 603.522383,491.847246 603.339858,490.326857 C603.2517,489.596473 602.275753,490.680869 601.991412,490.680869 C600.804381,490.680869 600.880123,488.610207 599.775042,489.329411 C599.552785,489.475985 598.524687,489.846145 598.87732,489.136878 C599.151727,488.58288 599.776284,488.237563 600.065592,487.591646 C600.307716,487.047585 599.992333,486.348255 600.385941,485.821584 C600.084217,485.920956 598.294979,487.25875 598.234138,486.047655 C598.21303,485.619114 598.296221,483.877622 598.748187,484.052765 C599.247335,484.245298 600.121466,485.162004 599.647151,483.85899 C599.304452,482.917441 599.450968,482.006947 598.491162,483.023024 C597.102982,484.493728 597.579781,480.857959 597.367457,481.123779 C598.046647,480.107702 597.009858,476.74769 598.68362,476.619749 C600.53494,476.479386 603.903574,476.142764 605.427095,477.102945 C605.956044,477.434598 608.182346,477.038353 609.056478,477.038353 C609.056478,476.332813 607.907939,475.858312 608.606995,474.978871 L608.574712,474.914279 C607.254824,474.580142 606.936958,474.936638 606.936958,473.336751 C606.168368,473.336751 605.815736,475.171404 604.592697,475.171404 C604.001665,475.171404 603.265359,473.87957 603.147401,473.401343 C602.083295,473.401343 601.431421,476.438395 601.027881,474.334196 C600.754715,472.913178 600.656623,471.75798 601.44508,470.505895 C602.238503,469.246356 601.853587,469.725826 602.119303,468.446413 C602.460761,466.812988 604.308356,465.850323 605.202354,464.584574 C605.559953,464.079019 607.586348,460.551318 606.7445,460.273077 C606.436567,461.20593 604.433764,461.250647 604.047607,461.94625 C603.384558,463.138713 601.431421,463.20082 600.289091,463.20082 C599.722892,460.896635 601.53448,461.32145 602.473177,459.66194 C603.518658,457.811138 604.467289,456.462165 605.780969,454.802655 L609.795267,450.458862 C610.758798,449.4167 611.286505,447.800665 612.396553,447.047923 C615.198987,445.147436 619.693809,443.868023 621.48553,440.869477 C622.550877,439.084509 622.482586,436.683437 623.348025,434.949398 C624.472972,432.698625 629.480602,435.735677 629.480602,433.630236 C629.026153,433.401681 626.565176,432.694898 626.429834,432.149595 C626.296976,432.116057 626.237376,431.850237 626.237376,431.698695 C625.431537,431.698695 622.817835,433.358205 621.807121,433.693586 C619.681393,434.40161 616.345043,434.246342 614.645205,432.632791 C613.881582,431.907376 613.086917,430.529834 612.011637,430.958375 C609.38676,432.00799 607.999822,431.960789 605.330245,431.376979 C602.267061,431.376979 598.296221,431.575723 595.373345,432.440258 C593.84734,432.891158 589.91375,435.89343 588.469695,435.335706 C587.235482,434.858721 587.201957,433.197968 586.414742,432.632791 C586.224768,431.092527 585.750452,429.814356 586.254568,428.19211 L587.730906,423.429713 C588.628628,420.53675 589.919959,417.693472 590.653782,414.742128 C591.181489,412.619296 592.628027,414.129749 593.639983,412.19945 C594.181348,411.169709 594.07829,410.42442 595.085279,409.658014 C595.851385,407.968693 597.975872,406.892992 597.975872,404.734138 C597.975872,403.118103 598.996519,401.449898 598.907119,400.164274 C598.835103,399.130807 597.315307,399.107206 596.659708,398.394213 C596.053777,397.740843 598.484954,396.350879 599.002728,395.917369 C599.619834,395.401877 602.979776,395.155932 603.692491,395.595653 C604.756597,396.255233 605.434545,397.17815 606.646409,397.783076 C607.387682,398.154478 609.649993,398.823996 610.403682,398.492343 C611.133781,398.170626 614.033065,395.69254 614.128673,395.69254 C615.022671,395.69254 615.642261,396.174494 616.537501,396.174494 C617.893397,396.174494 615.638536,393.879004 615.638536,393.117567 C615.638536,391.000946 611.704946,391.994664 613.519016,390.608427 C613.937457,390.287953 615.735386,389.247032 615.735386,388.74272 C614.329823,388.74272 613.540125,390.105357 612.427594,390.446948 C610.224883,391.125161 610.709132,388.734025 609.761742,388.419761 C609.761742,389.161324 609.800234,390.058155 609.31226,390.640723 C608.54367,392.372278 607.993613,392.225704 606.87115,393.536171 C605.850502,394.727391 604.860896,392.905159 604.237581,394.245437 C603.97559,394.805646 602.367636,394.847879 601.89332,394.565912 C601.298563,394.211899 601.219097,391.908956 601.219097,391.219564 C600.908681,391.142551 600.179825,393.189611 600.095391,393.600762 C599.973708,394.201962 599.479526,394.712485 599.388885,395.080161 C598.278838,395.353434 595.121287,397.832762 594.185073,398.620284 C592.60816,399.948141 589.563601,401.987748 587.570731,402.514419 C586.604717,402.769059 581.711321,395.852777 584.872596,395.852777 C584.887496,395.794396 584.878804,395.803091 584.937163,395.789428 C584.937163,394.013156 583.999707,392.423206 583.813457,390.673019 C583.593683,388.617263 584.507547,387.404926 585.12962,385.555367 C586.168893,382.466144 586.768616,378.800564 586.768616,375.516324 C588.420029,367.638619 593.262517,357.616966 603.049309,361.616684 C604.999963,362.414143 607.724172,365.317044 609.537001,365.317044 C610.731482,365.317044 611.922237,365.319528 612.749185,366.313247 C613.546333,366.428767 614.388181,365.566716 614.899746,364.930736 C615.607495,364.050052 614.675005,363.92708 614.675005,362.999195 C614.675005,362.632761 614.84263,361.673823 614.514831,361.486258 C614.298781,360.726063 611.727296,359.126176 611.013339,358.493923 C609.43891,357.103959 608.233255,357.060483 606.22921,356.885341 C605.161379,356.792179 604.417622,355.89038 603.241767,355.69412 C602.028662,355.492892 598.903394,356.07546 598.07148,355.244463 L597.975872,353.860709 C597.964697,353.819718 597.953522,353.806055 597.943589,353.765064 L597.911305,353.731526 C597.841772,353.722831 597.738714,353.695504 597.718847,353.63588 C595.359687,353.63588 593.163184,354.796047 590.653782,354.473088 C589.489101,355.425816 588.826053,357.182214 587.409315,357.465424 C586.610925,357.625661 584.704972,359.021836 584.423114,357.882786 C583.628449,357.882786 582.977817,357.78714 582.303594,358.398277 C582.05402,358.624348 580.316932,360.461486 580.056183,360.199392 C579.278902,359.418081 581.693937,356.374818 581.693937,355.566179 C581.25563,355.675488 579.035536,359.036742 578.707736,359.557202 C577.668464,361.196838 577.032732,361.827849 574.884654,361.904862 C573.616916,361.952064 573.295325,361.107403 573.890082,362.902307 C574.04529,363.370597 573.412041,363.52835 573.183575,363.867457 C572.017653,365.606464 572.00027,367.177782 571.514779,369.146587 C566.70085,369.146587 568.687511,368.223671 568.687511,364.641315 C568.298871,364.73696 567.33534,366.377838 567.114324,366.796442 C566.993882,367.024998 566.508392,369.590034 566.375534,369.242233 C566.045251,368.380182 566.200459,365.549325 566.920624,364.930736 C568.539753,363.540772 567.726464,363.99664 566.728166,363.99664 C566.728166,362.198009 568.610528,360.754633 568.302596,358.365981 C568.061713,356.501517 567.063415,353.904184 567.146607,352.156482 C567.192548,351.177669 568.008321,350.736706 568.206988,349.93552 C568.842719,349.93552 570.070725,352.327898 570.774748,352.798672 C572.154236,353.720346 572.59006,353.050828 574.114823,352.606139 C574.647497,352.450871 577.027766,351.94159 576.908566,351.608694 C576.644092,350.869616 575.577503,349.873413 574.789046,349.452325 C574.046531,349.121913 569.92545,347.848711 570.035958,347.425138 C570.131566,347.064915 572.319377,343.271394 571.288797,343.78937 C567.96983,345.452607 565.09662,348.117015 564.448472,351.995002 C564.298231,352.89556 564.542838,354.122803 564.159164,354.89045 C563.673674,355.863052 562.371169,355.046961 562.52141,355.501587 C563.054084,357.108927 564.812279,360.487571 562.201061,361.904862 C561.307063,362.390542 560.144866,365.526967 559.342751,364.415244 C558.798903,363.663744 558.47607,360.301249 558.47607,359.300077 C554.768463,362.988016 563.031734,369.576371 560.049258,373.521434 C559.936267,373.971091 558.066321,377.255332 557.672714,377.286386 C556.162851,377.4106 555.921968,378.606789 557.704997,378.606789 C557.704997,379.739629 556.140501,381.242628 555.488628,382.144428 C554.342572,383.734378 553.294608,385.761564 552.405577,387.519204 C550.448715,391.389738 552.457727,395.908674 551.700312,399.842558 C551.782262,401.107065 552.927076,402.008865 553.17665,403.318089 C553.359175,404.269575 553.365383,405.811081 553.241217,406.79362 C552.918384,409.317666 553.72919,412.044181 552.63156,414.386873 C552.42296,414.832805 551.018639,417.498455 550.639931,416.607835 C550.287299,416.556906 549.831608,415.170669 549.451659,415.062602 C549.367226,414.634061 548.50427,414.267627 548.423562,413.937216 L548.294429,413.937216 C548.284496,413.983175 546.991924,415.108561 547.23529,415.191785 L547.23529,415.288673 C548.206271,415.528408 549.7509,418.600241 549.8999,419.535578 C550.288541,421.952799 550.757889,423.852044 551.603462,426.131386 L554.943537,430.927321 C555.705919,432.022896 557.010907,433.221569 557.511298,434.402852 C558.690878,437.180296 558.375495,440.474474 557.158665,443.15503 C554.427005,445.142467 554.060715,448.727307 553.529283,451.74697 C553.298333,453.820116 551.93002,455.855997 551.763637,457.891878 C551.276905,458.520405 551.10928,459.593621 550.672215,460.305372 L549.387093,462.39715 C548.34782,464.086472 547.453823,465.429234 546.047018,466.837831 C545.439844,467.446483 543.999515,468.534605 543.767323,469.314675 C542.992525,469.900969 542.581535,472.462279 541.969395,473.401343 C540.556381,474.93167 537.31564,478.304102 536.991565,480.416997 C536.578091,483.105006 536.95059,484.09624 535.224678,486.432721 C534.333164,487.641332 534.175472,489.171659 534.228864,490.648573 C534.277289,491.987609 535.485427,493.575075 535.256961,494.735241 C534.386555,495.605987 531.865978,496.608401 530.664048,496.762427 C527.708889,499.505091 523.402799,501.143485 520.355757,503.810377 C517.02189,506.728184 515.315844,506.103383 511.332588,506.254925 C509.149743,506.336907 508.254504,507.756683 506.932132,509.183911 C506.102701,510.078258 505.67681,509.340422 504.717004,509.664622 C503.407049,510.109312 502.745242,511.255815 501.313604,511.629701 C499.886933,511.999861 498.415561,511.861983 497.233498,512.979916 C495.670243,514.460557 497.506664,515.380989 497.202456,516.615685 C495.654102,516.615685 495.12267,515.505204 494.27958,517.356005 C491.468454,518.526109 483.817323,518.523625 482.589318,521.474969 C482.041744,522.795373 480.886997,521.570615 479.827858,521.570615 C476.991898,521.570615 477.355706,523.051256 477.355706,525.015092 C475.432369,525.490835 473.590982,525.44736 471.703653,526.333012 C470.003816,527.132955 467.43978,527.226116 466.147209,528.103073 C464.294646,529.361369 465.029711,527.880728 464.34928,527.684469 C464.24498,527.268349 461.245121,528.286911 461.49097,529.197406 L462.454501,532.737529 C462.588601,533.233146 463.963122,534.052964 463.963122,534.281519 C462.305501,534.698881 460.049399,533.844283 458.537053,534.797011 C456.582674,536.02798 454.525238,538.133421 452.338668,538.883679 L444.277788,540.941919 C441.728653,541.594047 439.429092,541.114577 437.020264,542.390264 L423.050308,549.790984 C419.817016,550.004633 419.433342,550.617012 417.045623,552.526194 C415.430218,553.818029 412.365793,553.231735 410.300906,554.071427 C407.98272,555.398041 408.17642,557.233937 404.488679,556.742046 L397.038697,555.744601 L397.006414,555.809193 C396.82389,555.834036 396.854931,556.03899 396.717107,556.130909 C396.627707,556.845144 395.864084,556.780553 395.978317,557.707195 C396.361991,557.980468 397.969945,559.170446 397.969945,559.637494 C396.308599,560.971561 393.148565,560.023802 391.289795,559.702086 C388.328427,559.191563 388.77046,562.168992 385.251585,560.217577 C383.543056,559.268576 384.15023,559.702086 382.619258,560.023802 C381.962418,560.16168 381.483136,559.878471 380.820088,560.248631 C378.215078,561.705671 379.928573,564.054574 376.453157,561.535497 C374.456562,560.089636 370.190206,557.616518 367.813662,558.318332 C366.971814,558.568004 366.172183,557.907181 366.305041,557.932024 C363.331256,556.066317 360.964646,555.44897 358.855059,552.623082 C357.520271,552.623082 355.395784,553.605621 354.51917,551.850466 C349.451941,551.11884 343.843347,549.194752 339.457791,546.284399 L325.198526,536.824197 C324.052471,536.06276 322.886549,535.816814 321.891976,534.95849 C311.541469,528.567636 301.921059,520.211704 293.50258,511.788696 L293.50258,511.725347 C293.409456,511.632185 293.346131,511.486854 293.213273,511.468222 C293.164848,511.269478 292.589958,511.141537 292.539049,510.985026 C292.402466,510.971363 292.443441,511.003658 292.378875,510.888139 C292.169034,510.835968 292.069701,510.616108 291.961676,510.438481 C289.047491,507.524401 285.187159,505.02644 282.551108,501.878836 C280.600454,499.548566 276.212415,496.269294 275.164451,493.640908 C273.981146,492.709297 272.551991,490.683353 271.53631,489.489649 C270.585196,488.374199 268.918883,486.795429 268.293085,485.532164 C267.638728,485.123497 267.291062,484.239087 266.590764,483.827936 C265.642133,482.124951 263.875246,480.512642 262.576466,478.870522 L258.754625,474.044776 L251.721843,464.970882 C250.017039,464.197023 249.224857,460.463125 247.482803,459.371277 L247.097888,458.729086 C245.475033,456.513093 242.764482,454.974072 240.931786,453.000298 L236.210981,447.917427 C233.124206,444.593438 232.396591,440.352743 228.277993,437.490833 C226.395631,436.182851 224.05882,437.49456 223.012098,435.399055 C222.899106,435.329495 222.876756,435.290988 222.81964,435.174226 C221.375585,434.269942 220.438129,432.112331 218.837625,431.312387 C218.754433,431.168298 218.497409,430.991913 218.386901,430.893783 C196.537347,410.79458 174.844243,391.880387 156.631521,368.115604 L150.048221,359.523664 C149.190232,358.403246 147.290486,357.131286 147.479219,355.630771 C147.554961,355.577358 147.556202,355.599717 147.574827,355.501587 L147.70396,355.373646 C148.015618,353.82096 145.707365,350.305681 144.877934,348.905779 C144.940017,348.085961 144.900284,346.832634 145.424266,346.170569 C145.825323,345.663772 146.629921,345.643898 147.029737,345.077478 C148.155926,343.483802 148.060318,340.994536 148.892232,339.18721 C150.56227,335.558895 153.291446,332.498241 156.246606,329.856192 C156.918346,329.256234 161.768284,325.578233 162.283574,325.704932 C162.521973,326.666355 162.158166,327.753235 162.34814,328.601622 C162.658556,329.99407 160.614778,329.245055 159.939313,329.245055 C159.520872,329.245055 159.001857,330.218899 158.62315,330.435033 C158.491533,331.495828 158.583416,332.611277 159.201765,333.524256 C160.952511,335.085636 161.334943,336.524044 164.018178,336.83955 C166.167498,337.091706 167.052804,336.155126 168.931441,335.680626 C170.264987,335.344003 171.568734,335.716648 172.978022,335.229726 C174.291702,334.776342 175.169558,333.340418 176.478272,333.524256 C176.572638,333.618659 176.628513,333.706852 176.735296,333.782623 C177.174845,334.96639 177.651644,336.091777 177.73111,337.418391 C177.791952,338.434469 176.273397,339.053058 175.771765,339.831885 C174.533827,341.753489 174.569835,344.61043 173.937828,346.781706 C173.614996,349.075954 173.249947,350.162834 175.414166,351.511807 L179.493031,354.054484 C179.935063,354.330241 179.103149,354.471846 178.851091,354.376201 C178.211634,354.13274 176.016373,353.960081 175.703474,353.411052 C175.328491,353.36385 173.653487,351.914263 173.551671,353.089335 C173.417571,354.63581 173.062455,355.087952 172.395682,356.371091 C170.962802,359.129903 170.499662,361.635316 169.82668,364.672369 C169.420656,366.507022 168.3491,369.342847 168.3491,371.075644 L168.381384,371.109182 C169.041949,371.109182 169.75218,371.019747 170.308446,371.39736 C170.694603,371.660695 171.27446,373.084198 171.786025,372.717764 C172.146108,372.458155 172.128724,368.624885 172.107616,367.955367 C172.071608,366.885877 173.276022,366.179095 173.134472,365.444985 C172.878689,364.108433 172.933322,363.124652 173.616237,361.873808 L176.217523,357.110169 C176.416189,356.74622 176.792413,354.761267 177.24562,354.761267 C177.533686,355.645676 177.485261,356.512696 177.277903,357.593365 C176.920304,359.456588 177.744769,361.0366 179.974797,361.0366 C181.629934,361.0366 181.718092,360.468939 182.319057,359.331131 C182.784681,358.449205 182.531382,356.812054 182.44819,355.79225 C182.337682,354.458183 184.628552,353.524087 185.723699,353.700472 C189.302173,352.20741 194.265103,351.062149 194.265103,346.427693 C195.663216,346.083618 197.407753,347.233848 198.794691,347.040072 C200.975053,346.734504 203.042422,347.961747 205.281142,347.006534 C206.135406,346.643827 207.645269,345.655077 208.492084,345.655077 C210.67617,345.655077 211.731584,345.989215 212.957106,343.788128 C214.625902,340.789582 213.719487,341.144836 216.842271,339.767294 C218.441534,339.061753 215.269084,333.949071 215.269084,333.299427 C215.832799,333.160307 217.270645,333.295701 217.805802,333.524256 C217.805802,333.782623 218.18451,334.250913 218.352134,334.426056 C219.261032,335.33034 220.285404,335.211093 220.53622,336.773716 C220.683978,337.696632 221.844934,337.938851 221.467468,338.962382 C220.255604,342.241653 223.475238,340.418179 225.063326,340.829331 C226.999079,341.329916 224.08862,343.672608 223.971904,344.175678 C223.793104,344.937115 224.961509,344.77191 225.32035,344.594282 C225.922557,344.293682 226.102598,343.847751 226.637755,343.531003 C227.605011,342.959615 228.797008,343.630375 229.271324,343.372008 C230.034947,342.952162 228.675325,341.047949 229.97783,341.568409 C235.100934,343.617954 232.03775,338.427016 234.954418,336.967491 C236.795805,336.047059 238.711692,337.578628 238.711692,334.940305 C238.711692,333.017459 239.913622,332.062247 239.996814,330.30585 C240.047722,329.235118 240.00178,328.75068 240.767887,328.053835 L242.533532,326.445252 C242.533532,327.540827 243.369172,328.61777 243.369172,330.048725 C243.204031,331.202681 243.221414,331.017601 244.268136,331.723141 C244.843027,332.109449 245.389359,332.463461 245.970457,332.043615 C247.140104,331.197712 248.933066,334.695602 249.727731,335.454555 C252.589766,338.186039 256.215423,331.960391 255.058193,329.245055 C255.099168,329.195369 255.173668,329.043827 255.187326,328.986688 C258.038185,328.585474 259.125883,332.024983 261.835193,329.212759 C262.056209,328.990414 262.564049,328.274937 262.86329,328.215314 C262.978765,327.271281 264.308586,327.378106 264.308586,325.834115 C264.308586,325.367068 265.177751,324.1833 265.43105,323.678988 C266.943397,320.665536 268.640751,323.228088 270.82732,323.228088 L270.858362,323.195792 C270.858362,322.672848 270.469721,322.238096 270.410121,321.812039 C269.766939,321.445605 269.67009,320.554985 269.67009,319.880498 C269.723481,319.841992 269.719756,319.863108 269.734656,319.817149 C271.333919,319.817149 272.239092,318.122858 273.621063,317.725371 C275.297309,317.242175 276.899055,317.468246 278.566609,317.468246 C279.920023,317.468246 279.835589,316.274541 280.815262,316.084493 C284.984768,315.274612 294.529436,318.60978 297.899311,314.893272 C300.13058,312.432577 299.072683,308.296222 301.592019,307.460257 C301.962034,307.338526 302.2203,307.008115 302.459941,306.68764 C303.05594,305.891423 303.625863,304.974718 304.000846,304.049317 C304.28022,303.489108 305.030185,302.205969 305.510709,301.861894 C305.60135,301.024686 305.109651,299.653354 305.6386,298.965204 C306.081874,298.390089 308.441035,298.162776 308.336735,297.74293 C307.458879,297.521827 305.043843,298.195072 305.285968,296.842372 C305.5343,295.454892 307.502337,296.027523 307.502337,295.426323 C307.502337,294.687245 306.675389,293.96183 306.281782,293.366841 C305.421309,292.067554 308.364052,292.55696 308.689368,292.594225 C310.533238,292.804148 311.330386,292.076249 312.4156,290.63163 C314.25202,288.184598 313.336914,285.910224 314.181245,283.360094 C314.99826,280.895671 318.884667,277.254934 318.741876,274.960686 C319.510466,273.113612 322.279375,269.092777 324.072338,268.300287 C326.998939,267.008452 327.802295,265.531538 328.408227,262.443557 L328.505076,262.411261 C329.081208,261.258548 331.68746,261.972783 331.812868,259.226393 C331.889851,257.51347 332.723008,255.785642 333.73993,254.4317 C334.672419,253.189552 336.755931,246.982536 336.372257,245.453452 L336.339974,245.422398 C335.325534,245.422398 333.199806,247.807323 331.716018,248.157609 C329.415216,248.699185 327.931428,250.172373 326.288707,251.825673 L325.967116,251.696489 C325.743617,250.789721 325.978291,248.969974 325.422026,248.220958 C320.753371,248.220958 319.001383,254.107499 323.268981,254.4317 C326.370657,254.666466 324.37282,255.678817 323.334789,256.42659 L317.167446,260.867271 C314.230912,262.98265 312.963174,263.796257 309.782031,263.796257 C309.76589,263.747813 309.680215,263.713033 309.620615,263.699369 C309.605715,263.633535 309.558532,263.586334 309.492724,263.570186 C309.475341,263.498141 309.343724,263.391316 309.300266,263.377653 C309.095391,262.13302 304.260354,258.262486 303.423472,261.607591 C302.558033,265.065732 297.366637,264.771343 294.495911,263.602482 C293.362272,263.130465 291.638843,262.801296 291.316011,261.543 C290.998145,260.299609 291.83006,260.046211 291.83006,259.097209 C290.893845,259.33446 289.525532,260.500837 289.261058,261.446112 C288.954367,262.536718 291.088786,263.443487 291.765493,263.98879 C293.323781,265.24336 287.985869,269.66665 286.659772,269.716336 C285.979341,269.742421 284.19507,269.123831 283.897071,269.265436 C282.558558,269.905142 281.53046,269.980914 280.07523,270.165994 C276.337823,270.644221 272.191908,270.444235 268.995866,272.708671 C267.462412,273.795551 266.082924,274.753248 264.179453,275.025278 L256.985255,276.055019 C255.821816,276.702178 253.673738,276.990357 252.810782,277.631305 C251.926717,278.288402 251.720601,279.632406 250.498804,280.303167 L245.391842,283.101727 C245.073976,283.27687 244.319045,282.946458 244.139003,283.166319 C244.095545,283.219731 244.268136,284.3004 244.107962,284.646959 C243.505755,285.937552 242.182142,289.537298 240.70332,289.537298 C240.09118,289.537298 241.884142,291.098678 240.928061,291.404247 C239.881339,291.739627 237.928202,291.204261 237.010613,290.696222 C233.42593,288.710027 232.453707,287.737425 231.198386,283.938935 C230.952536,284.665592 231.461618,287.56725 231.421885,287.606999 C229.951755,289.081429 229.371898,287.192121 228.338834,289.054102 C227.174154,291.155817 222.038633,286.679114 221.370618,285.547517 C221.088761,285.06929 222.00635,283.809751 221.692209,283.617218 C221.029161,283.211036 217.694053,286.830656 217.099296,284.517776 C216.752872,283.171287 215.603091,285.645647 215.172234,285.741292 C213.409072,286.130085 213.569246,286.705199 211.190219,286.705199 C206.02614,287.70016 203.19018,280.037347 198.183793,280.591345 C196.431806,280.786362 195.691774,280.359063 194.169494,279.852267 C193.234522,278.545527 190.915094,278.832463 189.577823,279.111946 C187.173962,279.612532 185.790749,279.427452 183.444005,279.272183 C181.735475,277.941843 178.615175,279.089588 176.571397,277.53566 C173.81242,274.775606 169.053124,273.114854 165.716774,270.874018 C162.096083,268.444376 157.95886,265.738977 154.091078,263.699369 L146.158089,259.515813 C145.519874,258.636372 144.039811,258.418996 143.301021,257.456331 C141.236135,255.562055 139.20229,254.201903 136.877896,252.661639 L132.702181,249.895374 C131.479142,249.084251 130.593836,248.296729 129.234215,248.028425 C126.749646,247.537777 124.708351,246.556479 122.650914,245.131735 C121.056618,244.027465 124.385518,241.976678 124.385518,241.046309 L124.353235,241.014013 C124.281219,240.995381 124.263835,240.934516 124.191819,240.917126 L124.160777,240.88483 C124.129736,240.764342 124.013019,240.756889 123.902511,240.756889 C123.508904,241.346909 122.103341,241.78663 121.719667,242.461116 C118.868807,242.872267 113.319813,238.27135 110.800477,236.314966 C110.39197,235.998218 108.063851,233.612051 108.231475,233.387222 C109.03359,233.387222 111.878241,235.718735 112.695256,236.283912 C114.001486,237.186954 116.247655,237.603074 117.83326,237.603074 C118.19955,237.603074 120.727577,237.203102 120.146479,236.830458 C119.02029,236.110012 116.817579,236.127402 115.456716,235.446704 C114.105786,234.770976 110.567044,233.604598 110.415561,231.971173 C111.427517,230.191175 107.193445,232.120231 106.015106,231.070616 C105.1745,230.3216 101.519042,226.822468 101.519042,225.858561 C101.519042,223.699707 103.243713,225.243698 104.314027,224.248737 C104.962175,223.646295 109.612205,222.622764 109.612205,222.060071 C109.612205,221.14585 108.874657,220.54465 107.974451,220.451489 C106.604896,220.312368 106.215014,219.852774 106.27213,218.585782 C106.352838,216.813237 109.419747,217.044276 109.419747,216.590892 L109.387464,216.558596 C108.565483,216.351157 107.110253,216.359852 106.401263,216.880313 C105.104966,217.831798 106.326763,219.774518 105.373166,220.483785 C103.303313,222.024049 100.148245,224.125764 97.6338767,222.092367 C97.0776114,221.643952 96.8652869,218.6305 97.3445691,217.974645 C97.4575604,217.819377 100.024079,218.837938 98.9823233,217.620633 C98.5253911,217.087751 96.9894533,215.669218 98.3726665,215.207139 C99.9408876,214.682952 100.595244,214.64693 102.12994,215.207139 C103.134446,215.574815 102.418006,214.638235 102.418006,214.369931 C102.418006,213.371243 106.576338,213.971201 106.27213,212.761349 L106.208805,212.761349 C106.16783,212.598627 105.195608,212.793644 105.019292,212.793644 C104.51021,212.793644 103.973811,212.655766 103.51067,212.535277 C102.651439,212.314175 101.455717,211.916688 100.749211,211.345299 C98.6557658,209.653493 97.1310029,214.209694 95.0648747,214.209694 C93.6369616,214.209694 93.0397214,212.788676 92.8807885,211.506779 C92.6063809,211.012404 92.0538406,210.055949 91.5646251,209.865901 C91.089068,209.680821 90.1267787,211.418586 89.5729967,210.477038 C89.1408978,209.74417 90.4011864,206.807731 90.9214434,206.165541 C91.2566926,205.753147 92.816222,204.015382 92.816222,203.71975 C92.3530815,203.568208 91.6838248,203.755773 91.1461845,203.847692 C90.2298368,204.005445 91.1176262,203.080044 91.4677754,202.914838 C92.2835483,202.532257 94.4688762,202.676346 95.0003082,201.949689 C95.5342236,201.216821 94.4316263,200.952244 93.9088859,200.952244 C93.0248215,200.952244 92.0687405,200.344833 91.210751,200.630527 C90.0969788,200.999446 89.4451054,203.130972 89.3805389,204.201704 C89.2451976,206.447508 85.870356,202.727274 85.5909817,202.400589 C84.6609757,201.309983 84.6063425,200.610653 83.0853046,199.954799 C83.0853046,201.796905 85.456882,202.826646 85.0123664,204.620308 C84.0947771,204.620308 83.4019288,204.620308 82.8282802,203.71975 C82.1950318,202.723547 80.9558515,202.639081 80.2915615,201.885097 C79.0511396,200.477743 77.8405176,198.927542 77.9473007,196.800984 C78.0168339,195.412262 79.9414124,195.12781 80.8056103,194.741502 C81.703333,194.34153 85.4308071,193.690644 85.4308071,192.683262 C85.4308071,192.402537 84.94035,191.349195 84.6907756,191.267213 C84.6907756,190.672224 84.7789337,190.359203 84.659734,189.754276 C83.1970543,189.385358 81.9963656,186.20049 82.0907321,184.863938 C82.23104,182.851658 84.3008932,181.61572 85.9113309,180.969803 C85.9324392,180.886579 86.0044556,180.67914 85.8790476,180.648086 C85.848006,180.516419 85.0111248,180.808324 84.7553421,180.744974 C84.7553421,180.67914 84.7727254,180.69653 84.7230588,180.680382 C84.7230588,180.041918 86.0801971,177.776239 86.4899461,177.204851 C87.881851,175.269584 88.010984,176.050895 87.8061095,173.569083 C87.5192852,170.06374 92.7653138,168.072576 94.0690605,165.460338 C95.7018481,164.369732 96.2109302,162.620787 97.761768,161.598499 L102.739597,158.316743 C103.515637,157.804978 104.28671,156.483332 105.019292,156.095782 C105.965439,155.59768 107.49641,157.554064 107.974451,154.77662 C108.3395,152.661241 109.66808,151.27873 111.122068,149.82169 C112.322757,148.618048 112.984563,150.337182 114.012661,150.337182 C115.640482,150.337182 118.613024,146.291504 120.049629,145.251826 C121.473817,144.223327 123.135163,144.368659 124.802717,143.128995 C125.915248,142.300482 127.967718,139.267155 124.866042,139.267155 C124.866042,141.127894 126.780687,141.736546 123.710053,142.936462 C121.261493,143.891674 118.583224,144.535107 115.938481,144.769873 C114.822226,144.769873 113.620295,144.704039 112.535081,144.545044 C111.845958,144.443188 111.401442,144.348784 110.735911,144.480452 C109.716505,145.650556 109.432164,146.969718 107.909884,147.729912 C107.649135,148.187023 106.149205,149.145961 105.63019,149.113666 C104.633134,149.611767 103.191563,149.593135 102.386965,150.400531 C101.65935,151.130915 100.605178,152.314682 99.7533964,152.878617 C99.0009483,153.376719 95.3417657,157.554064 95.0003082,156.257261 C94.8612419,155.73059 94.8302003,153.719552 94.1969519,153.876062 L94.1646686,153.908358 C94.1510103,153.967981 94.159702,153.958044 94.1013438,153.971708 C93.8989526,155.406389 92.9714299,156.005105 92.4635895,157.254706 C91.7136247,159.09557 90.4831361,159.017315 88.7063156,158.573868 C85.0881079,157.67331 82.799722,158.216129 82.4110813,162.403411 C82.4110813,164.236822 80.4865027,165.996946 79.9712123,167.552116 C79.4161887,169.22529 79.1765476,170.984172 78.4613494,172.602691 C78.2639249,173.049865 77.3413689,173.010116 77.3053606,173.119425 C77.2631441,173.12812 77.2494858,173.140542 77.2097525,173.150479 C77.0433696,173.808818 77.6257098,174.606277 77.6257098,175.306848 C77.5636267,175.326723 77.3773771,175.559005 77.2730774,175.402494 C75.4739069,175.402494 76.3095465,174.75285 76.3095465,176.432235 C76.3095465,177.339003 75.2677907,177.629666 74.5749424,178.074355 C72.7484553,179.248185 70.0788786,180.77727 67.8637508,180.77727 C66.9027032,180.77727 64.0369437,181.003341 63.367687,180.32637 C63.3080872,180.084151 63.3428538,179.815847 63.367687,179.553754 C63.5377949,179.26806 62.9318631,177.664446 63.3354038,177.463218 C63.4446702,176.685633 64.6192839,177.106721 64.6192839,175.821098 C63.8556608,175.313059 63.5961531,171.792811 62.8536383,171.606488 C62.8536383,170.190439 59.385672,170.447564 58.4854659,170.447564 L58.4544243,170.415268 C58.4544243,170.279874 58.5239574,170.268695 58.5500324,170.190439 C60.6161606,170.190439 63.1230793,168.729673 64.5870007,167.262696 C66.305463,165.539836 66.3799629,163.331296 67.7346178,161.727682 C68.3181997,161.03829 70.4389611,160.597327 70.5606441,159.732792 C70.6972271,159.698012 71.6346831,157.711817 68.6981488,159.6682 C68.1443668,160.037118 67.4105436,159.690559 67.0281112,160.247042 C66.6109123,160.854452 64.6081089,163.062992 64.5236758,163.400856 C63.3552704,163.73251 62.7046387,166.133583 61.3437754,166.586967 C59.8848207,167.071405 59.2714389,166.25904 58.4544243,165.331155 C58.0434336,164.866591 56.4305127,164.768462 56.4305127,164.238064 C56.3175213,164.157325 55.8506558,163.236893 55.7885726,163.111436 C55.6991728,163.099014 55.6606812,163.058023 55.5638315,163.046844 C55.5576232,163.019517 54.7555085,162.636935 54.6325838,162.468003 L53.8615107,161.405966 C53.5250199,160.942645 53.3424953,159.617272 53.5088783,159.024768 C54.004302,157.25719 55.5625898,155.894554 56.5273624,154.230075 C57.7951009,151.693608 54.8151083,147.30634 56.0766385,144.769873 C56.3783628,144.166189 58.5872823,144.798442 59.2888222,144.448156 C59.4179552,143.79106 60.2560781,142.3688 60.9588597,143.160048 C61.7088245,144.005951 62.0440737,145.161149 63.0460962,144.834464 C63.0460962,144.162462 62.6400722,143.742616 62.5320475,143.160048 C62.5047309,143.010991 63.1690209,141.392471 63.2708373,141.358933 C63.2708373,140.203735 61.8478908,139.043569 62.4364394,138.140527 C62.9244131,137.391511 65.1854825,136.616411 64.8763083,135.502204 C64.7608336,135.084842 63.9686522,133.475018 64.6515672,133.379372 C64.7732502,133.560726 67.7693844,133.893622 67.8960341,134.27993 C68.8161068,134.27993 69.8541375,134.195464 69.8541375,133.185597 C68.8061735,132.925988 66.2644882,132.009282 65.7442311,130.965878 C63.0572711,130.965878 61.9298406,135.171792 60.027612,136.339412 C57.3977686,137.395238 56.7843868,137.98029 53.8615107,137.98029 L53.8292275,138.044881 C53.8292275,138.713157 55.0249495,141.953922 54.1185351,142.259491 C54.1185351,143.202281 51.0789427,142.337746 50.7138936,142.066958 C49.9502705,141.499296 48.5533989,140.085731 47.5675181,140.329192 C47.5675181,141.618542 48.4664825,142.873112 48.4664825,144.12644 C47.4222434,144.471757 45.335007,144.046942 45.0307994,142.839574 C44.5105423,142.707906 44.9798912,142.283092 44.1628765,142.48432 L44.1305933,143.289232 L43.5842613,144.029552 C42.6095554,144.029552 38.7032818,146.846745 38.7032818,143.483007 C36.7277951,142.997327 35.8747722,136.954275 37.4194017,135.920808 C37.1313357,133.879958 35.5482147,135.32085 34.9460078,135.469908 C34.1575515,138.660987 34.7361667,140.957719 34.9137246,144.094144 C35.0316826,146.16729 37.9024088,151.165695 34.3996759,151.430272 C31.941182,151.616595 31.0310426,150.985583 28.9723644,150.465123 C28.7724566,149.652758 26.7212283,148.398188 26.5958203,148.019333 L25.3119402,147.859096 C23.7462024,148.246646 23.4196449,143.386119 21.3299251,143.386119 C21.097734,144.096628 21.7148408,145.203383 21.7148408,145.959851 C21.4131166,145.959851 18.4269157,144.07427 18.0544166,143.740132 C16.6401618,142.469414 15.1253322,142.394885 14.6497751,140.393784 C13.8004772,136.815155 14.398959,133.5806 16.2875293,130.514978 C16.7345282,129.788321 20.2633361,126.235777 17.7973922,126.235777 C17.5776178,126.674255 16.2751127,127.372343 15.8703304,127.812063 C15.2743319,128.459222 14.4300006,129.293946 13.9755518,130.064078 C13.2578702,131.282626 12.2496394,133.405457 12.1130564,134.826475 C11.1122756,137.223821 10.7683347,139.740414 10.3784524,142.259491 C10.0965948,144.08048 10.3151275,145.829425 10.3151275,147.601971 C8.68978993,148.139821 7.14888543,147.891392 5.49747288,147.344846 C3.67222743,146.73992 0.582968457,145.658009 0.0602280931,143.418415 L0.0602280931,0.858288067 L873.060228,0.858288067 L873.060228,669.858288 Z" id="Stroke-1"></path>
                        <path d="M736.463412,247.203633 C735.282366,247.203633 735.13458,247.405069 734.278912,248.04046 C733.145058,248.884748 731.211421,248.307797 729.781995,248.878531 C727.29323,249.874516 729.969522,250.650415 731.004024,251.391498 C731.004024,252.539182 730.401703,252.498149 729.911153,253.451858 C729.692579,253.875866 728.788476,255.195143 729.076597,255.578119 C730.590472,255.578119 732.716603,253.847268 734.214333,254.80595 C734.949537,255.274723 735.257528,256.125227 735.564277,256.930968 C735.787819,257.51911 736.310658,258.123415 736.977558,257.769039 C737.839436,257.310214 738.133766,257.003087 739.162058,256.86631 C740.068645,256.745698 742.051957,256.843928 742.051957,255.514704 C742.051957,254.930293 739.03911,255.111834 738.390839,254.741292 C738.390839,253.7938 740.131982,251.855296 738.583334,251.713546 C737.059523,251.574282 736.094568,250.872989 736.720485,249.200578 L736.463412,247.203633 Z M755.366357,328.81601 C754.292114,329.277322 753.448864,328.501423 752.66771,327.914525 C751.911394,327.347522 746.454489,325.302083 745.72922,325.563203 C745.499469,325.645269 746.014857,326.107824 746.08192,326.17497 C746.656919,326.75192 747.054327,327.102567 747.367285,327.849867 C748.376949,330.26336 751.61458,330.298176 753.437687,331.746769 C754.405127,332.516451 754.853452,332.8099 755.846971,331.811427 C756.102803,331.554038 756.418245,331.368767 756.681528,331.135003 C757.083903,330.778139 755.576237,329.069669 755.365115,328.81601 L755.366357,328.81601 Z M485.546414,462.671001 C484.673359,461.533265 483.925736,460.54474 482.3982,460.54474 C478.903497,460.54474 474.689733,461.076927 479.379144,464.603288 C482.980651,467.312717 492.60661,470.163896 494.411089,464.28124 C495.409576,461.023459 497.723234,461.053302 500.513781,460.54474 C501.597959,460.347035 505.851463,458.684572 504.496551,456.872898 C503.535321,456.872898 503.188831,457.117853 502.312051,457.387677 C500.518749,457.939759 499.514052,456.579449 497.623882,457.775626 C496.646507,458.392366 496.200666,460.079698 494.603584,459.771328 C493.180367,459.49653 490.704021,459.819821 491.199539,461.897589 C491.650348,463.793816 488.853591,464.603288 487.409263,463.959192 L485.546414,462.671001 Z M830.847735,188.225371 C830.653999,187.382327 830.435425,187.011786 830.076516,186.293085 C829.718849,185.575627 829.027111,185.149131 828.663235,184.490114 C828.480676,184.156876 829.905134,183.515267 830.141095,183.265338 C830.971925,182.382504 831.82511,179.444285 832.196438,178.240647 C832.448543,177.423715 831.417767,176.969864 831.810207,176.179044 C831.951783,175.899273 832.773921,175.950253 833.096814,175.856996 C833.500431,175.740114 833.728941,175.301184 833.994707,175.2129 C833.994707,174.185829 833.079428,171.579605 834.059286,171.089694 C834.059286,168.92613 835.666303,167.993559 835.666303,165.613639 C834.837957,165.613639 834.312633,166.830954 834.123865,167.545925 C833.971111,168.125363 833.951241,168.632681 833.737634,169.157408 C833.583639,169.540383 833.02851,170.007912 832.967657,170.252867 C832.411286,170.252867 832.226243,169.929576 831.74687,169.929576 C831.575488,170.617192 831.446331,172.472386 830.333589,172.185154 C827.811292,171.536085 827.313291,173.759333 827.313291,175.856996 C827.313291,176.630408 827.988884,177.570439 827.7641,178.305305 C827.353031,179.643233 825.065454,179.64572 825.065454,181.268393 C825.065454,182.571506 825.136242,183.071363 825.964588,184.103408 C827.42382,185.918813 828.806053,189.120639 830.526083,190.416291 C830.768254,190.173822 830.718578,189.910216 830.718578,189.579464 L830.847735,188.225371 Z M742.482896,211.457574 C742.061893,211.001236 738.062978,207.183913 739.78425,206.562199 C740.514486,206.299836 741.750176,206.967557 742.739969,206.690272 C743.815454,206.39185 744.528304,205.853446 745.695689,205.853446 C746.288075,205.853446 746.923927,206.519923 747.493959,206.110835 C750.667011,203.831632 753.918302,210.253936 753.918302,204.049232 C753.918302,202.799587 758.288545,203.563052 759.056038,200.571365 C759.602474,198.442617 763.939185,196.752798 763.939185,193.807118 C763.939185,191.980523 764.674389,191.840016 764.901657,190.45608 C765.10657,189.221357 764.987348,187.674533 765.287888,186.462191 C766.001979,188.617051 765.480382,190.10046 765.480382,192.454269 C765.480382,193.194108 765.413319,194.688708 765.030814,195.288041 C764.372608,196.323816 765.810727,196.348684 766.251601,196.705548 C766.353437,196.788858 762.663755,198.644052 761.690106,198.959882 C759.907981,199.540563 761.688864,200.912064 759.956415,202.181604 C757.492488,203.988304 758.918188,209.071436 755.587415,210.556089 C753.30232,211.5757 750.960099,209.354938 751.989633,213.391104 C752.213175,214.263991 752.651565,216.558115 752.312527,217.320336 C752.060421,217.884852 750.706751,214.120996 750.513015,213.583836 C750.101947,212.44983 750.510531,211.373021 749.549302,210.556089 C747.518797,208.831455 747.818094,212.046959 747.878947,213.069056 C747.969606,214.577334 744.930679,212.68235 743.894936,212.68235 L742.482896,211.457574 Z M526.869361,293.01524 C528.278917,293.01524 529.513364,293.337288 530.788795,293.337288 L532.138739,291.790464 C532.272864,291.764352 532.27659,291.771812 532.331233,291.662391 C533.694838,291.321691 531.782314,287.235788 531.560014,286.508383 C531.240846,285.465147 530.581397,284.489056 530.082154,283.545295 C529.651215,282.729606 528.485072,281.67891 528.283884,280.967669 C525.010239,279.737919 524.431514,273.278312 522.823254,270.853628 C521.770124,270.853628 518.282872,273.794335 518.004686,274.912176 C517.650745,276.334657 519.401823,278.948342 519.482546,280.645621 C519.646477,284.113541 518.777147,285.902834 520.895827,288.762717 C522.373687,290.758419 522.784756,292.760337 525.006513,293.594677 L526.869361,293.01524 Z M723.396151,481.932939 C721.019156,486.360785 712.869815,480.055364 715.366032,489.792646 C716.22791,493.158605 717.28104,496.841637 721.981628,495.011312 C726.258728,493.345119 725.930867,497.501897 729.691337,496.17143 C732.659475,495.11949 730.547005,491.523497 734.123674,492.369028 C737.653151,493.204611 736.165356,491.671465 736.051102,489.663329 C735.883445,486.723866 741.13792,487.561937 739.776798,484.831369 C739.000612,483.273354 738.507578,482.635476 736.693163,483.543178 C736.198887,483.791864 733.239442,485.223049 733.030803,484.381248 C732.43345,484.181057 733.536256,482.343271 733.609528,482.062256 C734.056612,480.371194 731.343062,478.712462 734.893652,478.712462 C737.958658,478.712462 744.810215,474.74344 746.265721,472.076288 C746.750061,471.187237 746.132838,469.569538 746.971119,468.983883 C748.661344,467.803871 747.890125,465.172778 749.797681,464.667946 C754.035041,463.546374 758.185467,462.950772 762.132222,460.802129 C764.824659,459.337371 767.096092,455.336021 769.712774,454.681978 C769.712774,453.914783 760.274341,456.532198 758.214031,456.744825 C756.270459,456.945016 754.454803,456.02488 752.625485,456.358119 C749.359291,456.951234 739.070158,463.905725 739.070158,467.244328 C739.070158,473.19413 725.12239,473.436598 724.551117,480.321457 L723.396151,481.932939 Z M848.132485,588.049545 C847.469311,588.560594 845.671042,588.420087 846.879409,587.599425 C847.28551,587.323384 847.728868,587.09708 848.003328,586.696696 C848.22687,586.374648 848.233079,585.91458 848.454137,585.601236 C848.801869,585.107595 850.451111,584.186216 850.478433,584.538106 C850.504512,584.903673 850.005269,585.825053 850.574059,585.858626 C850.819955,585.873547 851.161477,585.557716 851.376326,585.440834 C851.565094,585.33763 852.804509,585.013095 852.886475,585.376176 C853.076485,586.216733 853.884961,586.281391 854.300998,586.954086 C854.717034,587.628023 853.812931,589.940799 853.496247,590.658257 C853.34101,591.010147 853.226755,591.784802 852.983343,592.043435 C852.022113,593.06802 852.369845,591.907902 852.244413,591.271267 C850.80381,590.550078 851.023626,592.591787 850.187828,592.591787 C849.907159,591.44286 850.926758,590.536401 850.926758,589.434724 C850.926758,587.481299 849.655054,589.010715 848.968283,588.049545 L848.132485,588.049545 Z M652.968059,624.930854 C652.930802,624.295463 652.724647,623.709808 652.58307,623.126641 C652.101214,623.126641 651.52994,623.667532 651.1375,623.964711 C649.848409,624.938315 651.107694,626.364526 651.169789,627.604224 C651.190902,628.033206 650.781075,633.013134 651.907477,630.599641 C653.087281,628.074239 653.629991,631.150479 653.867194,632.114136 C654.156556,632.185011 654.084526,632.693573 654.510498,632.693573 C654.704234,631.910214 655.29662,630.756313 656.276478,630.825945 C656.9707,630.874439 657.483604,632.040774 658.236195,632.275782 C659.638299,632.710981 661.66632,630.677977 662.283543,629.633498 C662.635001,629.037896 662.842398,628.855112 663.375173,628.539281 C663.684405,628.355254 664.670473,627.379163 664.435754,626.960128 C664.273066,626.671653 663.214968,627.554487 663.021231,627.636553 C661.629063,628.233398 661.044128,628.888685 659.424692,628.570367 C658.816161,628.450998 657.335818,628.48084 657.047697,627.862857 C656.804285,627.343104 659.126636,624.266864 657.497265,624.738123 C656.862654,624.920907 656.308767,625.412061 655.634416,625.510291 C654.824698,625.629661 654.319245,625.445633 653.545542,625.382218 L652.968059,624.930854 Z M723.151497,651.892097 C723.743883,651.213185 724.394638,650.035659 725.271418,649.701177 C725.681245,649.544505 726.60025,649.60419 727.07093,649.60419 C727.212506,649.03097 726.941772,648.286156 726.941772,647.639574 C726.941772,647.333691 726.960401,647.034025 726.97282,646.736846 C726.9989,646.218336 727.187668,646.17979 726.620121,646.222067 C725.923415,646.275534 725.363319,646.300402 724.661646,646.158652 C724.328817,646.090263 722.509435,645.497148 722.509435,646.125079 C722.884488,646.265586 723.221043,646.597582 723.602306,646.801504 C724.020826,647.029051 725.170824,647.402079 725.335997,647.832305 C725.40306,648.007629 724.72995,648.518677 724.564778,648.638047 C724.092856,648.979989 723.860621,649.510933 723.537727,649.958567 C723.11424,650.545465 722.926713,651.129876 722.926713,651.892097 L723.151497,651.892097 Z M753.18434,85.9136539 C752.930993,85.0855311 751.696545,82.2617068 752.414363,81.5977164 C753.091198,80.9710288 753.9953,83.7476029 755.014899,81.5330582 C755.999725,79.3918757 758.375478,81.9956133 759.191405,82.7578344 C760.962353,84.4103498 762.551984,81.1289442 764.39372,81.500729 C764.819692,82.2492725 764.664454,83.6928921 764.876819,84.5608046 C765.20468,85.9086802 769.598519,84.2735728 768.248575,86.9767846 C767.923197,87.6283407 766.883728,87.9740136 766.707378,88.5546943 C766.50619,89.2124676 766.317422,92.3707739 765.004735,90.6486266 C764.049714,89.3964949 763.557922,89.6750227 762.499824,90.5516392 C760.696587,92.0462393 759.110682,91.2193599 757.102531,90.8102722 C756.046917,90.5939157 753.775484,86.9817583 753.18434,85.9136539 Z M626.890664,112.868679 C624.713615,114.042475 623.492828,114.15687 620.980467,114.15687 C619.772099,114.15687 618.784789,114.616939 617.511843,114.478918 C616.179285,114.334681 615.010658,113.698046 613.91282,114.800966 C613.91282,116.585285 618.943752,120.059422 620.466321,121.113848 C622.720367,122.67808 625.98532,122.143407 628.302703,123.304768 C630.307128,124.308214 631.391306,123.450249 631.515496,121.372481 C631.645895,119.215134 636.887951,119.32953 635.69076,116.927227 C634.380557,114.294891 631.776295,114.023824 629.138501,113.061411 L626.890664,112.868679 Z M303.97954,144.956574 C301.30449,142.723378 298.931221,139.594914 298.197258,136.066066 C297.98241,135.031535 296.892023,132.414119 297.298123,131.491496 C298.174904,129.500768 305.190392,133.018425 307.063175,133.360368 C309.168194,133.74583 313.631579,133.887581 315.413704,132.523541 C317.815537,130.683268 317.062946,130.728031 319.268559,132.201493 C321.173632,133.472276 325.851865,131.272653 328.32697,131.750129 C329.331666,131.944104 335.149963,131.930426 335.328796,132.201493 C335.467889,132.220145 335.467889,132.236309 335.585869,132.264908 C335.693915,133.027129 331.749643,135.900691 330.959796,136.580845 C327.724649,139.374828 328.303374,141.713715 326.462879,145.021233 C325.139015,147.402397 322.318662,146.91373 320.938913,148.756489 L321.066828,149.207854 C321.225791,149.247643 321.379787,149.521197 321.516396,149.659218 C321.516396,150.382893 323.430162,152.622306 321.453059,152.622306 C320.168935,152.622306 319.123256,151.194851 317.918614,150.882751 C316.111651,150.416465 313.0305,150.678829 311.55885,149.659218 C309.843787,148.470501 308.55097,146.888861 306.355293,146.888861 L303.97954,144.956574 Z M327.104941,170.72537 C325.654403,171.894192 323.38297,171.999883 321.902626,173.172436 C320.786159,174.057756 319.35425,175.263881 318.047772,175.750061 L308.539793,179.292587 C303.811884,181.054524 291.86109,180.526067 290.488791,186.378881 C289.59835,190.176309 280.852897,188.101028 280.852897,186.056833 C280.970877,186.028234 280.952249,186.046886 280.980813,185.92876 C281.703598,185.825556 283.929081,185.405277 284.064448,184.446594 C285.193334,184.164336 284.429566,181.290775 283.742796,180.774752 C283.632267,180.841898 283.628541,180.839411 283.486965,180.839411 C282.990205,182.843816 279.19993,182.908474 277.897177,183.093745 C277.692264,183.298911 277.618992,183.415793 277.319694,183.415793 C277.319694,182.382504 277.633895,179.95409 278.603818,179.421903 C280.683999,178.282923 281.003167,177.975797 280.402088,175.556086 L280.210835,175.556086 C279.572499,177.478426 276.225581,177.408794 274.685627,178.133712 C271.265437,179.742708 271.732391,176.188991 269.611227,176.651546 C268.647514,176.861686 265.705455,179.726543 265.177648,178.263029 C264.815014,177.253365 264.862206,173.826479 263.699788,173.495727 C263.580566,172.651439 262.312587,172.69869 263.185642,171.562197 C263.652596,170.955404 263.642661,170.010399 263.250221,169.372521 C261.720201,166.876961 264.5182,167.323352 265.434721,165.828752 C266.297841,164.419948 263.889799,164.270737 263.122305,164.089196 C260.025009,163.358061 263.660047,162.016402 263.122305,160.610086 C262.81804,159.815535 263.984183,158.941406 264.535586,158.742457 C266.097895,158.176698 270.795999,157.312515 270.381205,156.101417 C270.037199,155.097971 270.592328,153.219151 269.867059,152.494233 C268.071273,150.694993 267.619221,152.955545 267.619221,149.143195 C267.619221,146.74711 266.990821,146.025922 269.032502,144.377137 C269.689467,143.84495 271.000912,140.670479 271.152424,140.059956 L271.28034,140.059956 C271.60075,138.774252 273.26241,138.075446 270.381205,137.354258 C270.381205,134.823882 268.926941,133.773186 266.912581,132.329566 C265.018685,130.433339 260.272147,131.15204 257.85417,128.915114 C255.72928,126.949255 251.999858,127.796029 249.88863,125.500661 C248.615683,124.11797 246.872057,124.290806 245.648786,123.375643 C245.648786,122.591041 246.290848,122.879516 246.483343,122.343598 C246.715578,121.698259 246.420006,121.35383 246.420006,120.798018 C245.510936,120.189982 240.553275,117.179643 240.44523,116.417422 C239.980759,116.301783 239.579626,115.325693 239.031949,114.999914 C238.341453,114.100916 236.635084,108.372445 237.811162,107.848962 C239.764669,106.981049 241.733079,107.439874 243.785938,105.981333 C245.025353,105.099743 246.320654,105.999985 247.319141,106.625429 C248.079183,107.100418 249.283825,106.865411 250.209039,107.269525 C251.139222,107.674882 254.43398,108.455755 254.57804,106.690087 C254.673666,105.517535 252.136467,104.553878 252.136467,102.824271 C254.204229,102.824271 256.316699,103.043114 255.926742,100.505278 C255.750393,99.3538638 256.839538,97.0522792 257.726254,98.8303808 C258.723499,100.833543 259.623876,102.366689 260.167827,104.499168 C260.331758,105.14575 260.617395,106.433941 260.873226,107.012135 C261.116638,107.56173 262.479002,108.592532 262.479002,109.00908 C262.635481,109.033948 262.721172,109.073738 262.929811,109.073738 C263.183158,108.051641 261.930082,104.17712 263.764367,104.17712 C265.666956,104.17712 269.682016,106.252401 269.417491,102.759612 C269.289576,101.072281 268.309717,97.4302812 269.611227,96.1246821 C272.175749,96.6232966 273.499613,99.2183302 276.613054,99.4098181 C278.21262,99.5092923 287.273515,94.8128659 283.037397,94.1277372 C281.991718,93.9586311 280.901331,94.5417987 279.889183,94.1277372 C277.826389,93.2822064 273.911924,93.2647984 272.501126,92.3235237 C272.501126,88.3457985 275.946154,89.1540265 278.603818,87.6855384 C280.081678,86.8698498 275.472991,83.7550634 278.860891,83.7550634 C283.285777,83.7550634 286.72087,82.4022141 291.002938,82.4022141 C292.007634,82.4022141 294.66033,84.0982495 294.793213,82.2094828 C294.9025,80.6440074 299.871338,81.0244962 301.667124,79.8258319 C303.323817,78.7204247 306.305617,78.3262581 308.347299,77.1847915 C311.20615,75.5857435 311.404854,80.9760025 312.588384,82.7889201 C314.304688,85.4237434 316.947449,90.1462818 317.533626,93.0969357 C317.799392,93.3145355 318.287458,93.6030108 318.369424,93.9337625 C319.615048,94.827787 322.899871,98.9746184 323.636317,100.375961 C324.727946,102.453729 325.383669,104.944315 326.527458,106.882818 C327.816549,109.065034 329.611093,109.436819 329.611093,112.551605 C329.611093,114.684084 330.322701,117.870989 331.603099,119.574485 C333.842243,122.553738 336.806656,123.519881 336.806656,127.497606 C336.806656,131.684227 337.068697,134.731869 335.457954,138.771765 C334.387437,141.453839 333.802502,143.05413 334.429661,145.922718 C334.846939,147.836353 335.317619,150.713645 334.557577,152.622306 C334.800989,155.151438 330.569839,156.382431 333.079717,159.773259 C333.643539,160.53175 334.957468,160.417354 335.842942,160.417354 C335.842942,161.28651 335.778364,162.169344 335.778364,163.058395 C335.778364,164.999385 332.97664,164.809141 331.603099,166.087385 C330.325185,167.276101 330.379829,169.033065 328.711958,170.081274 L327.106183,170.72537 L327.104941,170.72537 Z" id="Stroke-3"></path>
                        <path d="M628.953151,433.964427 C632.178341,434.589409 636.906049,434.089174 639.569039,431.960993 C641.671072,430.280653 643.771861,428.599066 645.873894,426.919973 C647.488355,425.628844 649.086646,423.967216 651.150121,423.365936 C652.43746,422.989201 653.553155,423.106463 654.882784,423.106463 C659.313223,423.106463 662.984939,418.671712 660.608025,413.865217 C659.402777,411.430159 658.116681,409.214655 660.543347,407.400836 C663.09315,405.494704 664.134216,410.015529 666.849446,410.956121 C669.181583,411.76448 671.318442,410.730329 672.124429,408.434987 C673.358285,404.924611 668.476345,401.940667 670.388075,397.835248 C672.060995,394.238797 675.829728,397.739193 676.757608,399.968419 C676.930497,400.386321 680.120861,404.017701 681.196753,404.686344 C687.601113,408.664521 684.349803,397.348735 685.572464,396.736228 C685.711771,396.667618 689.616079,398.888111 690.58998,398.999136 C693.243019,399.303518 693.081324,398.870647 694.578867,397.448533 C695.132361,396.922101 695.74307,395.581073 695.930885,394.604305 C696.175914,393.321907 695.938347,390.671037 697.40977,390.209474 C698.876218,389.749158 699.522998,391.106404 700.434708,391.501851 C700.666056,391.602896 701.876279,393.091126 702.23574,393.376796 C704.514393,395.18313 705.714666,392.398781 707.446045,391.243625 C708.072923,390.825723 709.033142,390.865642 709.891368,391.113888 C710.846612,391.388331 713.683734,394.082863 714.459869,394.862531 C716.647725,397.056828 715.085504,401.036252 719.285838,401.71238 C721.030899,401.994308 722.57695,401.701153 724.303354,402.231327 C725.614326,402.633011 727.804669,404.413149 728.679065,405.461022 C730.400493,407.52683 730.420394,408.650799 733.247566,409.921969 C734.823469,410.630531 738.844695,409.946919 740.517615,409.082423 C742.736565,407.933505 744.926909,407.14261 747.787663,407.14261 C752.791497,407.14261 757.103774,403.329099 761.685957,401.650006 C765.498223,400.250347 780.28957,391.032803 783.818249,393.117323 C786.253622,394.556901 789.52732,395.430129 792.375637,395.768193 C793.802283,395.936601 795.937899,396.137444 797.263797,395.702077 C798.757608,395.215564 806.714238,390.331726 807.430671,389.821511 C811.71434,386.767709 812.463111,380.418095 818.175914,379.286641 C822.253112,378.478281 826.508174,377.517731 830.335366,379.544867 C836.040707,382.56873 839.55446,382.525069 846.033448,381.48468 C849.129282,380.98694 860.640711,375.287257 862.697967,376.185434 C863.834806,376.679432 864.971645,377.175924 866.108484,377.671169 C867.474183,378.266212 868.849833,377.304413 870.162049,376.637018 L872.953151,375.214904" id="Stroke-5"></path>
                        <path d="M606.718968,503.887389 C608.112234,501.845942 610.811455,498.911438 613.040432,497.784016 C621.683176,493.416182 618.599778,488.89046 620.26621,488.452566 C621.819135,488.046744 622.770847,489.193902 624.267642,489.412232 C626.502856,489.737877 627.907349,489.184034 629.429091,487.877754 C631.095522,486.448124 636.389188,480.913396 638.462249,480.401493 C642.617102,479.372751 651.21619,479.90069 655.044243,481.870595 C660.422727,484.638575 658.496851,490.618598 664.980468,491.776857 C667.638526,492.250522 669.631759,491.773156 671.819574,489.603425 C674.024852,487.418891 674.695915,487.236333 677.174358,488.070181 C679.541789,488.86579 683.53449,485.453921 685.370559,484.874174 C690.888743,483.133702 695.505108,483.934245 701.113101,484.108169 C703.43937,484.179712 705.388945,483.761555 707.694009,484.299362 C709.330505,484.681748 710.791128,485.928819 712.468786,486.089175 C713.218431,486.160718 713.968075,486.232261 714.718968,486.303804" id="Stroke-7"></path>
                        <path d="M737.623542,596.716651 C733.941906,600.399316 729.215782,605.398453 735.967917,609.71342 C737.529711,610.711271 738.535926,612.777367 740.553295,613.281233 C744.054676,614.156823 747.583219,619.181894 748.833889,619.270812 C755.59837,619.751213 754.683517,625.117135 758.005879,629.719848 C759.67385,632.031702 764.862956,632.741807 767.5606,633.414863 C770.54838,634.160782 773.300347,636.428177 774.821399,637.619918 C775.830083,638.410295 776.946179,640.209639 777.623986,641.443369 C778.070918,642.253505 778.653658,645.149498 778.898113,646.030028 C780.40188,651.450288 788.918287,652.550641 791.382587,656.734702 C792.538192,658.697061 787.454028,664.116086 786.795975,665.90802 C786.329289,667.177563 785.861368,668.447107 785.394682,669.716651" id="Stroke-15"></path>
                        <path d="M700.086207,390.172928 C702.705768,385.481953 698.785725,383.668259 702.840899,379.435062 C702.951235,379.318129 703.154552,379.019579 703.159511,378.854132 C703.25745,376.33138 702.849577,373.559836 703.993853,371.379174 C705.482775,368.542944 709.089165,368.27798 711.433505,366.030143 C714.35928,363.222525 716.739572,360.520642 719.128542,357.134582 C723.899044,350.377389 734.755406,353.406432 740.868541,347.595893 C745.684913,343.019362 749.973158,338.449052 756.259856,343.472164 C770.210598,354.621782 768.56175,332.073754 778.318467,331.807547 C783.020783,331.678175 787.725579,331.548803 792.427895,331.420675 C799.876225,331.216665 796.630598,329.018587 797.879012,324.524158 C798.254651,323.173217 799.843992,321.797397 801.086207,321.172928" id="Stroke-17"></path>
                        <path d="M744.024225,344.123636 C743.981815,342.339322 744.07563,340.57443 744.145028,338.826531 C744.200289,337.428211 745.737316,336.116073 747.202375,335.744645 C747.770406,335.601414 748.278036,335.255476 748.664863,334.801507 C748.807514,334.634 749.209763,333.932413 749.262453,333.732133 C749.55161,332.633627 751.966387,333.85837 752.720763,332.852114 C753.151285,332.27555 753.581807,331.698986 754.013614,331.123636" id="Stroke-19"></path>
                        <path d="M613.194593,361.421898 C615.46236,358.804351 619.634256,354.835129 623.501043,355.751582 C625.126214,356.137064 628.406444,357.184083 629.492383,355.235533 C631.059023,352.426488 630.625644,351.229007 633.679222,352.401618 C636.709139,353.564282 636.894695,358.815542 642.118905,354.65731 C645.374228,352.064632 650.529944,350.576174 650.17004,345.831015 C649.923463,342.564365 650.302046,336.42401 651.329454,333.39611 C651.73419,332.203603 652.383013,331.037209 652.876168,329.853406 C653.744172,327.771803 653.421628,325.129386 654.421638,322.894833 C655.884914,319.62694 661.024441,320.188998 661.765419,316.32423 C662.229932,313.89818 661.866292,313.459228 664.020733,311.878751 C665.290982,310.946134 667.075557,309.984916 668.142815,308.850852 C668.821527,308.129628 668.753033,306.639926 669.365741,305.69363 C670.668369,303.686636 673.261171,304.073362 674.134155,301.89228 C674.176497,301.786583 674.220084,301.678399 674.262425,301.570216 C675.237528,299.132974 673.169015,292.812312 673.876369,289.910006 C674.836528,285.970628 677.588734,285.239456 681.155393,285.077802 C684.000999,284.948479 690.024718,278.579321 689.079504,275.67204 C688.651106,274.356427 686.470513,271.505103 687.017218,270.259126 C687.557696,269.031801 690.284995,267.586865 691.463088,266.781083 C694.392133,264.776577 696.638729,262.060793 696.42204,258.147529 C696.257655,255.1731 691.605057,253.062897 693.974943,250.353331 C694.273825,250.008884 694.576443,249.664437 694.876571,249.321234 C700.190445,243.246783 708.00372,245.027461 709.886677,237.016896 C710.275224,235.360566 711.861789,230.718617 713.043619,229.60818 C714.235411,228.485308 715.338784,229.160523 716.779645,228.89939 C718.845667,228.523856 719.906698,228.29008 721.223025,226.967006 C722.940351,225.238554 723.122171,221.769216 726.054951,221.296689 C729.345145,220.766963 730.596714,219.841806 733.593006,218.462775 C734.611696,217.992735 735.243084,218.227755 736.297889,218.398113 C737.504625,218.592098 738.657812,218.655516 739.905645,218.655516 C742.258095,218.655516 740.923089,215.043176 741.645387,214.210037 C742.160959,213.614405 742.677776,213.01753 743.194593,212.421898" id="Stroke-21"></path>
                        <path d="M571.36,343.46509 C572.535607,343.193637 569.681273,340.801613 569.295216,340.34587 C566.545491,337.102131 562.156891,338.556522 560.920262,332.733979 C558.623843,321.919441 570.675059,329.568688 573.159525,321.959287 C574.376228,318.239883 572.76475,316.460496 572.643952,312.992621 C572.515681,309.257029 577.264186,312.020122 579.473431,310.799829 C580.921768,309.999167 579.70631,307.981947 580.375061,306.476504 C581.182046,304.659761 584.896914,305.445481 585.979119,304.025956 C588.000316,301.37244 584.371377,297.755142 584.240616,294.541288 C584.150951,292.352231 586.122334,290.904067 586.236906,288.864433 C586.290456,287.925555 585.808507,287.387629 585.335275,286.671641 C584.833401,285.910825 583.957922,284.983153 583.725043,284.155097 C583.39129,282.97465 583.707608,282.066901 584.1111,280.735785 C584.581841,279.183024 581.193254,277.571739 580.375061,276.284205 C579.519508,274.936902 580.352645,274.311813 581.211934,272.994394 C582.58306,270.894991 580.611677,269.266273 582.822167,267.510545 C583.727533,266.793311 587.005285,265.366315 584.88446,263.510971 C584.396284,263.082623 583.320305,261.721623 583.079953,260.736672 C582.69016,259.140329 583.276718,257.678467 584.498403,256.930103 C587.869555,254.864321 590.559503,254.772177 591.325391,250.15623 C592.124903,245.352259 591.924403,245.668539 596.350363,243.899114 C598.129963,243.188106 600.956899,242.255453 600.15116,239.640539 C599.662984,238.051667 598.209665,237.051774 600.022889,235.70447 C601.452547,234.642317 605.239645,235.439243 602.792539,232.54416 C601.052791,230.484603 602.583321,228.967953 603.887199,226.99556 C605.758954,224.167717 603.930786,222.19906 603.308113,219.061163 C602.676722,215.880929 605.122582,213.776546 606.786365,210.997266 C606.851123,210.890179 606.915881,210.780601 606.980639,210.673514 C608.303197,208.463289 609.452651,205.540811 609.041687,202.867372 C608.357992,198.426999 618.049277,199.080727 619.928504,195.707488 C622.251075,191.533587 617.63084,188.481608 620.958405,184.997546 C621.978344,183.930412 621.954682,182.741249 620.50759,181.513484 C618.292119,179.633236 621.162642,177.769176 621.926039,176.416891 C623.736773,173.206773 622.21745,173.927742 621.151434,171.772306 C620.447813,170.346555 621.718067,168.919559 622.310851,168.224738 C623.695676,166.602246 622.609735,164.660984 621.926039,162.869145 C621.06426,160.619073 618.587266,158.380209 617.222367,156.289522 C615.163809,153.134192 617.203686,152.088227 619.090386,149.515649 C619.909824,148.397462 619.812687,147.519598 619.219902,146.096337 C618.559868,144.512446 615.420351,141.266217 617.157609,139.773225 C621.381823,136.145966 616.848763,135.212068 618.639571,131.386822 C619.292132,129.993446 621.196267,130.420549 621.861281,128.999778 C622.573619,127.475657 622.603508,126.061113 622.955941,124.484693 C623.178858,123.478574 623.405511,122.471209 623.630918,121.46509" id="Stroke-35"></path>
                        <path d="M587.225701,303.965852 C588.3539,302.599182 589.299248,302.675108 590.735929,301.83992 C591.622815,301.324618 592.274608,299.762531 592.731111,298.873821 C593.73119,296.930858 595.69652,296.090692 597.750164,295.585347 C599.24282,295.218163 601.113614,293.387222 602.254251,292.876899 C603.068992,292.512205 604.306652,291.963296 604.7644,291.070852 C605.025615,290.559284 603.557837,288.695982 603.412303,288.232956 C602.925946,286.677093 601.654702,285.383858 602.641098,283.525535 C603.275476,282.328142 605.5468,282.306982 606.95114,281.978384 C609.874256,281.293803 611.511201,282.849667 612.870762,278.818113 C613.340948,277.421569 614.433074,276.231645 615.895876,276.174389 C617.67338,276.104686 617.052684,273.760933 618.340099,273.52942 C623.138985,272.666849 625.293384,272.768914 628.05604,268.37142 C629.487745,266.091146 628.478959,259.519177 630.179342,258.569477 C632.229255,257.424361 634.254291,259.08229 636.034282,256.505779 C637.217212,254.794329 636.288034,249.902693 637.127652,247.412066 C637.97971,244.889077 639.936332,239.804514 642.855717,238.900868 C654.309357,235.352253 642.49126,227.219441 645.588519,223.13312 C646.700547,221.664385 650.295359,223.56005 652.133812,221.720396 C655.479848,218.372177 656.112982,214.615699 658.550986,210.676252 C660.778774,207.07536 663.556356,208.815438 665.738121,203.354978 C668.694822,195.955289 676.429263,198.557939 682.037915,193.851761 C685.815577,190.681533 692.8323,182.927107 695.514104,178.697647 C697.797866,175.094266 703.662757,173.483636 706.166686,169.963649 C709.108461,165.82754 709.296287,158.914526 713.225701,155.965852" id="Stroke-39"></path>
                        <path d="M335.77348,246.479351 C336.802666,245.099451 337.833092,243.718308 338.862277,242.338408 C343.74409,235.794448 348.479584,232.461554 356.646111,232.461554 C364.243486,232.461554 376.170881,223.954656 383.257382,226.176171 C386.239541,227.111022 394.361429,226.173684 396.308202,222.84079 C397.007552,221.644877 398.483132,219.571297 399.378399,218.737141 C402.23036,216.083009 403.63278,215.271229 406.671978,213.349314 C407.308089,212.946533 408.143838,211.871205 408.71919,211.682246 C411.883626,210.635511 412.647455,204.668374 416.906796,203.600506 C421.058259,202.56123 427.540889,205.010242 429.702179,201.54806 C432.374342,197.266639 435.636737,189.070529 440.192434,185.387066 C444.80269,181.658849 441.94453,173.941353 446.589505,169.866296 C448.605717,168.098532 451.746594,165.648277 452.347985,164.991892 C453.041136,164.233568 454.971789,164.753206 455.673619,164.607757 C462.10665,163.265152 466.859504,152.806503 472.817622,152.806503 C478.579822,152.806503 483.291757,151.089708 488.555484,149.215033 C501.282668,144.682495 497.51932,133.077659 506.083881,126.639368 C509.527313,124.049879 513.025305,121.446716 516.958531,119.584472 C524.016513,116.24039 522.736851,113.597446 525.914927,107.271038 C526.797794,105.510733 531.085655,98.9841779 532.311998,97.5222296 C535.397075,93.8412525 538.846707,86.7565215 542.674534,83.6685286 C545.235099,81.6036508 548.685971,79.1782586 552.270761,78.922169 C558.028002,78.5119284 565.325301,79.3982968 570.823384,81.1039032 C578.812594,83.582751 582.645381,70.3381951 589.757922,67.7636245 C593.805226,66.2991898 599.180552,64.6917925 601.912234,60.836774 C606.438171,54.4519383 611.055867,52.0066556 616.754828,46.9830729 C618.397806,45.5335561 620.017223,44.5166567 621.615561,43.2635581 C623.448256,41.8264728 624.094287,38.69124 625.453308,36.7220851 C626.832169,34.726824 628.017592,31.9831845 629.036858,29.6671898 C629.60973,28.3631219 632.140535,26.9359818 633.131281,25.8196301 C634.719699,24.0257598 637.972174,22.6744521 638.760803,20.3037587 C639.773869,17.250574 642.483232,14.7754557 644.77348,12.4793514" id="Stroke-41"></path>
                        <path d="M558.909767,359.190426 C558.813991,358.668381 559.054052,357.857836 558.561492,357.670499 C555.311337,356.435325 550.103379,357.329546 548.677938,354.191028 C545.504902,347.203362 547.555994,346.346607 540.721092,344.526942 C536.116396,343.300509 532.86873,339.396408 529.042677,336.923561 C518.652881,330.20441 511.116453,339.239045 502.219265,338.726991 C498.498939,338.512178 494.774881,338.297365 491.053312,338.083801 C488.484782,337.93518 486.242138,339.995886 483.480813,340.403032 C476.710591,341.402162 470.085898,338.94555 463.845552,342.077824 C460.667541,343.672685 459.035623,348.133802 454.861295,348.133802 C445.766336,348.133802 443.664246,344.71303 434.840444,351.357245 C426.519154,357.619294 431.147483,362.843496 427.909767,370.428143" id="Stroke-45"></path>
                        <path d="M247.657324,460.745781 C246.37479,457.533539 258.348003,457.322306 261.453869,454.192557 C262.196845,453.442617 262.975793,451.559018 263.884978,450.710336 C264.883469,449.78041 268.24609,439.54623 270.02849,440.651142 C276.33697,444.562078 278.863587,434.589127 286.282191,434.589127 C295.457148,434.589127 303.770053,427.925911 310.214973,427.753425 C310.396066,427.750925 311.622784,426.557271 311.622784,426.464778 L311.622784,425.94857 C311.622784,425.779833 311.749301,425.504855 311.878298,425.304871 C311.991171,425.129885 311.842328,425.249876 312.006056,425.046142 C312.200792,424.806161 313.413866,424.281203 313.413866,423.627506 C313.413866,423.541263 313.354329,423.431271 313.413866,423.370026 C313.474644,423.310031 313.591238,423.401274 313.670621,423.370026 C321.744136,420.175282 329.796565,416.920543 337.858917,413.697051 C346.681611,410.168584 346.331829,419.371597 354.624888,419.371597 C357.478961,419.371597 365.424719,414.83321 367.422942,413.052103 C372.484858,408.538715 387.173223,415.235678 388.540102,405.313973 C388.803059,403.399127 403.65019,383.708204 405.561587,382.745781" id="Stroke-47"></path>
                    </g>
                </g>
            </g>
        </g>
    </g>
</svg>