<?xml version="1.0" encoding="UTF-8"?>
<svg width="744px" height="181px" viewBox="0 0 744 181" version="1.1" xmlns="http://www.w3.org/2000/svg" xmlns:xlink="http://www.w3.org/1999/xlink">
    <!-- Generator: Sketch 58 (84663) - https://sketch.com -->
    <title>Group 7</title>
    <desc>Created with Sketch.</desc>
    <g id="Page-1" stroke="none" stroke-width="1" fill="none" fill-rule="evenodd">
        <g id="Case-study-UpCloud" transform="translate(-936.000000, -200.000000)">
            <g id="GANT" transform="translate(89.000000, 0.000000)">
                <g id="Group-7" transform="translate(847.000000, 199.000000)">
                    <g id="Cables-Copy-2" transform="translate(347.500000, 91.000000) scale(-1, 1) rotate(-180.000000) translate(-347.500000, -91.000000) ">
                        <polygon id="Fill-1" fill="#5E00C3" points="567.485635 130 0 130 0 103 567.485635 103"></polygon>
                        <polygon id="Fill-2" fill="#5E00C3" points="567.485635 181 0 181 0 154 567.485635 154"></polygon>
                        <g id="Group-15" transform="translate(381.000000, 0.000000)">
                            <g id="Group-5" transform="translate(0.000000, -0.000000)" fill="#FFFFFF">
                                <path d="M53.7298711,-1.42102996e-12 C24.4360192,-1.42102996e-12 0.687236804,24.0498174 0.687236804,53.3066042 L0.687236804,76.7248101 C0.687236804,76.7248101 1.23361472,71.0885233 2.62088156,65.6119424 C3.2831982,63.2283321 4.10276507,60.911266 5.07691691,58.6753836 C5.14887888,58.5143468 5.22617137,58.3519792 5.2874723,58.1909424 C13.493802,39.8686851 31.8161189,27.2235882 53.1621711,27 L313,27 L313,-1.42102996e-12 L53.7298711,-1.42102996e-12 Z" id="Fill-3"></path>
                            </g>
                            <g id="Group-8" transform="translate(0.000000, 103.808824)" fill="#000000">
                                <path d="M53.7298711,77.1911765 C24.4360192,77.1911765 0.687236804,52.6776292 0.687236804,23.4208424 L0.687236804,0.00263655416 C0.687236804,0.00263655416 1.23361472,5.63892332 2.62088156,11.1155042 C3.2831982,13.4991145 4.10276507,15.8161807 5.07691691,18.052063 C5.14887888,18.2144307 5.22617137,18.3767983 5.2874723,18.5365042 C13.493802,36.8600924 31.8161189,49.9662574 53.1621711,50.1911765 L313,50.1911765 L313,77.1911765 L53.7298711,77.1911765 Z" id="Fill-6"></path>
                            </g>
                            <g id="Group-11" transform="translate(7.995774, 89.702643)" fill="#000000">
                                <path d="M45.7338302,40.2973568 L305.004226,40.2973568 L305.004226,13.2973568 L45.7338302,13.2973568 C32.276942,13.1509598 20.5071622,8.32280588 11.3839837,0.565092647 C6.95165947,4.33415147 3.15499929,8.81390147 0.159249172,13.8339897 C9.41569059,29.3254603 26.3574038,40.2973568 45.7338302,40.2973568 Z" id="Fill-9"></path>
                            </g>
                            <g id="Group-14" transform="translate(0.000000, 50.107055)" fill="#FFFFFF">
                                <path d="M53.7298711,0.892945063 C24.4360192,0.892945063 0.687236804,24.7385493 0.687236804,53.995336 L0.687236804,77.4135419 C0.687236804,77.4135419 1.23361472,71.7772551 2.62088156,66.3006743 C3.2831982,63.917064 4.10276507,61.5999978 5.07691691,59.3641154 C5.14887888,59.2017478 5.22617137,59.0393801 5.2874723,58.8796743 C13.493802,40.556086 31.8161189,28.1178642 53.1621711,27.8929451 L313,27.8929451 L313,0.892945063 L53.7298711,0.892945063 Z" id="Fill-12"></path>
                            </g>
                        </g>
                    </g>
                    <rect id="Rectangle-24" fill="#FFFFFF" fill-rule="nonzero" transform="translate(756.000000, 117.500000) scale(-1, 1) translate(-756.000000, -117.500000) " x="694" y="104" width="124" height="27"></rect>
                    <rect id="Rectangle-24-Copy" fill="#FFFFFF" fill-rule="nonzero" transform="translate(756.000000, 168.500000) scale(-1, 1) translate(-756.000000, -168.500000) " x="694" y="155" width="124" height="27"></rect>
                </g>
            </g>
        </g>
    </g>
</svg>