<?xml version="1.0" encoding="UTF-8"?>
<svg width="381px" height="181px" viewBox="0 0 381 181" version="1.1" xmlns="http://www.w3.org/2000/svg" xmlns:xlink="http://www.w3.org/1999/xlink">
    <!-- Generator: Sketch 58 (84663) - https://sketch.com -->
    <title>Cables Copy 2</title>
    <desc>Created with Sketch.</desc>
    <g id="Page-1" stroke="none" stroke-width="1" fill="none" fill-rule="evenodd">
        <g id="Case-study-UpCloud" transform="translate(-1105.000000, -3670.000000)">
            <g id="Text" transform="translate(263.000000, 2353.000000)">
                <g id="Group-6" transform="translate(17.000000, 0.000000)">
                    <g id="Group-3" transform="translate(825.000000, 1316.000000)">
                        <g id="Cables-Copy-2" transform="translate(190.500000, 91.000000) scale(-1, 1) rotate(-180.000000) translate(-190.500000, -91.000000) ">
                            <polygon id="Fill-1" fill="#EDEDF2" points="0 130 120 130 120 103 0 103"></polygon>
                            <polygon id="Fill-2" fill="#EDEDF2" points="0 181 120 181 120 154 0 154"></polygon>
                            <g id="Group-15" transform="translate(73.000000, 0.000000)">
                                <g id="Group-5" transform="translate(0.000000, 0.000000)" fill="#7B00FF">
                                    <path d="M53.0426343,0 C23.7487824,0 0,24.0498174 0,53.3066042 L0,76.7248101 C0,76.7248101 0.546377913,71.0885233 1.93364476,65.6119424 C2.5959614,63.2283321 3.41552827,60.911266 4.38968011,58.6753836 C4.46164208,58.5143468 4.53893456,58.3519792 4.6002355,58.1909424 C12.8065652,39.8686851 31.1288821,27.2235882 52.4749343,27 L306.840751,27 L306.840751,0 L53.0426343,0 Z" id="Fill-3"></path>
                                </g>
                                <g id="Group-8" transform="translate(0.000000, 103.808824)" fill="#DFDFE9">
                                    <path d="M53.0426343,77.1885399 C23.7487824,77.1885399 0,52.6749926 0,23.4182059 L0,0 C0,0 0.546377913,5.63628676 1.93364476,11.1128676 C2.5959614,13.4964779 3.41552827,15.8135441 4.38968011,18.0494265 C4.46164208,18.2117941 4.53893456,18.3741618 4.6002355,18.5338676 C12.8065652,36.8574559 31.1288821,49.9636208 52.4749343,50.1885399 L307.312763,50.1885399 L307.312763,77.1885399 L53.0426343,77.1885399 Z" id="Fill-6"></path>
                                </g>
                                <g id="Group-11" transform="translate(6.995774, 89.702643)" fill="#DFDFE9">
                                    <path d="M45.5745811,39.7322642 L299.844976,39.7322642 L299.844976,12.7322642 L45.5745811,12.7322642 C32.1176929,12.5858671 20.347913,7.75771324 11.2247345,0 C6.79241029,3.76905882 2.99575012,8.24880882 0,13.2688971 C9.25644142,28.7603676 26.1981546,39.7322642 45.5745811,39.7322642 Z" id="Fill-9"></path>
                                </g>
                                <g id="Group-14" transform="translate(0.000000, 50.107055)" fill="#7B00FF">
                                    <path d="M53.0426343,0 C23.7487824,0 0,23.8456042 0,53.102391 L0,76.5205968 C0,76.5205968 0.546377913,70.8843101 1.93364476,65.4077292 C2.5959614,63.0241189 3.41552827,60.7070527 4.38968011,58.4711704 C4.46164208,58.3088027 4.53893456,58.1464351 4.6002355,57.9867292 C12.8065652,39.663141 31.1288821,27.2249191 52.4749343,27 L306.840751,27 L306.840751,0 L53.0426343,0 Z" id="Fill-12"></path>
                                </g>
                            </g>
                        </g>
                    </g>
                </g>
            </g>
        </g>
    </g>
</svg>