<?xml version="1.0" encoding="UTF-8"?>
<svg width="177px" height="28px" viewBox="0 0 177 28" version="1.1" xmlns="http://www.w3.org/2000/svg" xmlns:xlink="http://www.w3.org/1999/xlink">
    <!-- Generator: Sketch 55.2 (78181) - https://sketchapp.com -->
    <title>UpCloud Brand Guide-0</title>
    <desc>Created with Sketch.</desc>
    <g id="Page-1" stroke="none" stroke-width="1" fill="none" fill-rule="evenodd">
        <g id="Case-study-UpCloud" transform="translate(-117.000000, -809.000000)" fill-rule="nonzero">
            <g id="Box" transform="translate(90.000000, 708.000000)">
                <g id="UpCloud-Brand-Guide-0" transform="translate(27.000000, 101.000000)">
                    <path d="M77.0626346,15.0112219 C77.0626346,18.7096389 74.9970008,20.286905 71.5723975,20.286905 C68.0028374,20.286905 65.9009645,18.7096389 65.9009645,15.0112219 L65.9009645,0.616402832 L63.1830253,0.616402832 L63.1830253,15.2831643 C63.1830253,20.5225884 66.7525854,22.6256098 71.4817995,22.6256098 C76.1204157,22.6256098 79.7805737,20.5407179 79.7805737,15.2831643 L79.7805737,0.616402832 L77.0626346,0.616402832 L77.0626346,15.0112219 Z M91.3589945,6.2546758 C89.0940452,6.2546758 87.5176405,7.23366853 86.3217472,8.8290641 L86.2673885,8.8290641 L86.2673885,6.6172657 L83.8212432,6.6172657 L83.8212432,27.3211491 L86.2673885,27.3211491 L86.2673885,20.4319409 L86.3217472,20.4319409 C87.626358,22.0998545 89.148404,22.7343868 91.2683965,22.7343868 C95.5083816,22.7343868 98.0813639,19.5254662 98.0813639,14.4854666 C98.0813639,9.28230148 95.3271856,6.2546758 91.3589945,6.2546758 L91.3589945,6.2546758 Z M91.0872005,20.6857539 C87.4814013,20.6857539 86.1224317,17.9300706 86.1224317,14.539855 C86.1224317,11.1496395 87.6988364,8.33956773 91.1234397,8.33956773 C94.0950532,8.33956773 95.5808599,11.0046035 95.5808599,14.5217256 C95.5808599,18.0751066 94.0950532,20.6857539 91.0872005,20.6857539 Z M110.946276,20.323164 C106.434497,20.323164 103.499123,16.7516534 103.499123,11.4397114 C103.499123,6.34532327 106.162703,2.50187032 110.928156,2.50187032 C114.35276,2.50187032 116.508991,4.35107882 117.01634,7.05237358 L119.67992,7.05237358 C119.100093,3.04575517 116.037882,0.145035961 110.982515,0.145035961 C104.53194,0.145035961 100.708705,5.09438811 100.708705,11.4578409 C100.708705,18.0388476 104.713135,22.7343868 110.855678,22.7343868 C113.609856,22.7343868 115.820447,21.9548185 117.342493,20.4681999 C118.882658,18.9453223 119.915475,16.5340995 119.951714,14.3766896 L117.251895,14.3766896 C116.980101,17.5312217 115.041304,20.323164 110.946276,20.323164 L110.946276,20.323164 Z M123.195122,0.616402832 L125.641267,0.616402832 L125.641267,22.2992789 L123.195122,22.2992789 L123.195122,0.616402832 Z M136.186871,6.21841681 C131.512015,6.21841681 128.61288,9.9168338 128.61288,14.4673371 C128.61288,19.0178403 131.530135,22.7162573 136.186871,22.7162573 C140.879846,22.7162573 143.724622,19.0178403 143.724622,14.4673371 C143.724622,9.9168338 140.879846,6.21841681 136.186871,6.21841681 Z M136.186871,20.6494949 C132.852865,20.6494949 131.131504,17.9300706 131.131504,14.4673371 C131.131504,11.0046035 132.852865,8.24892026 136.186871,8.24892026 C139.520876,8.24892026 141.224118,11.0046035 141.224118,14.4673371 C141.224118,17.9300706 139.520876,20.6494949 136.186871,20.6494949 Z M156.625773,16.2621571 C156.625773,18.7458979 155.013129,20.6313654 152.530745,20.6313654 C150.320154,20.6313654 149.015544,19.4529482 149.015544,17.4224448 L149.015544,6.6172657 L146.569398,6.6172657 L146.569398,17.4768332 C146.569398,20.7220129 148.635032,22.6618688 151.8422,22.6618688 C154.10715,22.6618688 155.448,21.6647466 156.571414,20.141869 L156.625773,20.141869 L156.625773,22.2992789 L159.090038,22.2992789 L159.090038,6.6172657 L156.643893,6.6172657 L156.643893,16.2621571 L156.625773,16.2621571 Z M173.911866,0.616402832 L173.911866,8.8290641 L173.857507,8.8290641 C172.86093,7.3424455 171.157688,6.2546758 168.947097,6.2546758 C165.069504,6.2546758 162.061651,9.28230148 162.061651,14.5035961 C162.061651,19.5435957 164.725232,22.7525163 169.001456,22.7525163 C171.212047,22.7525163 172.661614,21.90043 173.857507,20.395682 L173.911866,20.395682 L173.911866,22.2992789 L176.358011,22.2992789 L176.358011,0.616402832 L173.911866,0.616402832 Z M169.092054,20.6857539 C166.084201,20.6857539 164.580275,18.0751066 164.580275,14.539855 C164.580275,11.022733 166.102321,8.35769723 169.055815,8.35769723 C172.299222,8.35769723 174.056823,10.8958265 174.056823,14.539855 C174.056823,18.0751066 172.589136,20.6857539 169.092054,20.6857539 Z" id="Shape" fill="#000000"></path>
                    <g id="Group" transform="translate(0.000000, 0.543885)" fill="#7B00FF">
                        <path d="M50.336233,13.2164019 L23.8091469,13.2164019 L23.8091469,15.2106464 L50.3543526,15.2106464 C51.6227242,15.2106464 52.6374214,16.2258981 52.6374214,17.4949627 C52.6374214,18.7640274 51.6227242,19.7792791 50.3543526,19.7792791 L21.7978719,19.7792791 L21.7978719,10.6420136 L19.8047166,10.6420136 L19.8047166,21.7735236 L50.336233,21.7735236 C52.6917802,21.7735236 54.6124572,19.8517971 54.6124572,17.4949627 C54.6124572,15.1381284 52.6917802,13.2164019 50.336233,13.2164019 Z" id="Shape"></path>
                        <path d="M2.11999253,10.9320855 C2.11999253,9.66302087 3.13468981,8.64776915 4.40306141,8.64776915 L30.6583536,8.64776915 C33.0139008,8.64776915 34.9345778,6.72604267 34.9345778,4.36920831 C34.9345778,2.01237395 33.0139008,0.0906474753 30.6583536,0.0906474753 L19.8228362,0.0906474753 L19.8228362,4.65928023 L21.8159915,4.65928023 L21.8159915,2.08489193 L30.6583536,2.08489193 C31.9267252,2.08489193 32.9414224,3.10014366 32.9414224,4.36920831 C32.9414224,5.63827297 31.9267252,6.65352469 30.6583536,6.65352469 L4.40306141,6.65352469 C2.04751416,6.65352469 0.12683716,8.57525117 0.12683716,10.9320855 C0.12683716,13.2889199 2.02939456,15.2287759 4.40306141,15.2287759 L17.8115612,15.2287759 L17.8115612,13.2345314 L4.40306141,13.2345314 C3.13468981,13.2164019 2.11999253,12.2011502 2.11999253,10.9320855 Z" id="Shape"></path>
                    </g>
                </g>
            </g>
        </g>
    </g>
</svg>