<?xml version="1.0" encoding="UTF-8"?>
<svg width="1533px" height="1802px" viewBox="0 0 1533 1802" version="1.1" xmlns="http://www.w3.org/2000/svg" xmlns:xlink="http://www.w3.org/1999/xlink">
    <!-- Generator: Sketch 47.1 (45422) - http://www.bohemiancoding.com/sketch -->
    <title>Confetti</title>
    <desc>Created with Sketch.</desc>
    <defs></defs>
    <g id="Page-1" stroke="none" stroke-width="1" fill="none" fill-rule="evenodd">
        <g id="About" transform="translate(-120.000000, -1877.000000)">
            <g id="Team" transform="translate(90.000000, 1827.000000)">
                <g id="Group-Copy">
                    <g id="Confetti" transform="translate(30.000000, 50.000000)">
                        <circle id="Oval-3" fill="#E24A5D" cx="1408.5" cy="185.5" r="7.5"></circle>
                        <circle id="Oval-3-Copy-5" fill="#E24A5D" cx="812.5" cy="16.5" r="7.5"></circle>
                        <circle id="Oval-3-Copy-6" fill="#E24A5D" cx="77.5" cy="529.5" r="7.5"></circle>
                        <circle id="Oval-3-Copy-7" fill="#E24A5D" cx="62.5" cy="847.5" r="7.5"></circle>
                        <circle id="Oval-3-Copy-8" fill="#E24A5D" cx="7.5" cy="1268.5" r="7.5"></circle>
                        <rect id="Rectangle-2" fill="#7457DB" transform="translate(74.142136, 264.142136) rotate(-45.000000) translate(-74.142136, -264.142136) " x="64.1421356" y="254.142136" width="20" height="20"></rect>
                        <rect id="Rectangle-2-Copy" fill="#7457DB" transform="translate(29.142136, 771.142136) rotate(-45.000000) translate(-29.142136, -771.142136) " x="19.1421356" y="761.142136" width="20" height="20"></rect>
                        <rect id="Rectangle-2-Copy-4" fill="#7457DB" transform="translate(97.142136, 1513.142136) rotate(-45.000000) translate(-97.142136, -1513.142136) " x="87.1421356" y="1503.14214" width="20" height="20"></rect>
                        <rect id="Rectangle-2-Copy-2" fill="#7457DB" transform="translate(1080.142136, 94.142136) rotate(-45.000000) translate(-1080.142136, -94.142136) " x="1070.14214" y="84.1421356" width="20" height="20"></rect>
                        <rect id="Rectangle-2-Copy-3" fill="#7457DB" transform="translate(1518.142136, 975.142136) rotate(-45.000000) translate(-1518.142136, -975.142136) " x="1508.14214" y="965.142136" width="20" height="20"></rect>
                        <rect id="Rectangle-8" fill="#F6F4BB" x="79" y="110" width="9" height="9"></rect>
                        <rect id="Rectangle-8-Copy" fill="#F6F4BB" x="1276" y="0" width="9" height="9"></rect>
                        <rect id="Rectangle-8-Copy-2" fill="#F6F4BB" x="111" y="683" width="9" height="9"></rect>
                        <rect id="Rectangle-8-Copy-4" fill="#F6F4BB" x="1447" y="1200" width="9" height="9"></rect>
                        <rect id="Rectangle-8-Copy-5" fill="#F6F4BB" x="1416" y="490" width="9" height="9"></rect>
                        <rect id="Rectangle-8-Copy-3" fill="#F6F4BB" x="51" y="1388" width="9" height="9"></rect>
                        <rect id="Rectangle-8-Copy-6" fill="#F6F4BB" x="1234" y="1793" width="9" height="9"></rect>
                        <rect id="Rectangle-8-Copy-7" fill="#F6F4BB" x="1509" y="1755" width="9" height="9"></rect>
                        <circle id="Oval-3-Copy" fill="#E24A5D" cx="1470.5" cy="482.5" r="7.5"></circle>
                        <circle id="Oval-3-Copy-2" fill="#E24A5D" cx="1401.5" cy="764.5" r="7.5"></circle>
                        <circle id="Oval-3-Copy-4" fill="#E24A5D" cx="1463.5" cy="1534.5" r="7.5"></circle>
                        <circle id="Oval-3-Copy-9" fill="#E24A5D" cx="103.5" cy="1794.5" r="7.5"></circle>
                        <circle id="Oval-3-Copy-11" fill="#E24A5D" cx="930.5" cy="1785.5" r="7.5"></circle>
                        <circle id="Oval-3-Copy-3" fill="#E24A5D" cx="1485.5" cy="675.5" r="7.5"></circle>
                    </g>
                </g>
            </g>
        </g>
    </g>
</svg>