<?xml version="1.0" encoding="UTF-8"?>
<svg width="166px" height="22px" viewBox="0 0 166 22" version="1.1" xmlns="http://www.w3.org/2000/svg" xmlns:xlink="http://www.w3.org/1999/xlink">
    <!-- Generator: Sketch 48.1 (47250) - http://www.bohemiancoding.com/sketch -->
    <title>Logo Wide</title>
    <desc>Created with Sketch.</desc>
    <defs>
        <polygon id="path-1" points="0.000137190083 0.5850625 19.3185587 0.5850625 19.3185587 21.3125 0.000137190083 21.3125"></polygon>
        <polygon id="path-3" points="0.339957025 0.6644 12.2713785 0.6644 12.2713785 15.8125 0.339957025 15.8125"></polygon>
    </defs>
    <g id="iPhone-8-Copy" stroke="none" stroke-width="1" fill="none" fill-rule="evenodd" transform="translate(-105.000000, -50.000000)">
        <g id="Logo-Wide" transform="translate(105.000000, 50.000000)">
            <g id="Page-1">
                <g id="Group-3" transform="translate(0.000000, 0.102644)">
                    <mask id="mask-2" fill="white">
                        <use xlink:href="#path-1"></use>
                    </mask>
                    <g id="Clip-2"></g>
                    <path d="M16.5912198,20.9147125 L15.994443,19.0062125 C15.4257901,19.748025 13.5236496,21.312775 9.88742645,21.312775 C3.94983967,21.312775 0.000137190083,16.8722125 0.000137190083,10.9487125 C0.000137190083,5.1407125 3.97796364,0.58465 9.77355868,0.58465 C15.0293107,0.58465 17.5001041,3.2322125 18.5797901,6.1644 L14.7172033,7.47615 C14.0621207,5.7959 12.784881,4.4009625 9.99992231,4.4009625 C6.44944298,4.4009625 4.0904595,7.3902125 4.0904595,10.9487125 C4.0904595,14.6227125 6.53518678,17.498525 10.141914,17.498525 C13.835757,17.498525 15.0293107,14.9637125 15.2556744,13.1982125 L11.2504099,13.1982125 L11.2504099,9.72565 L19.3185587,9.72565 L19.3185587,20.9147125 L16.5912198,20.9147125 Z" id="Fill-1" fill="#D6CBBC" mask="url(#mask-2)"></path>
                </g>
                <path d="M32.1828727,6.9229875 L30.7615835,10.51105 C30.5352198,10.339175 30.0228149,10.05455 29.1715504,10.05455 C27.6658893,10.05455 26.4723355,11.1078 26.4723355,13.300925 L26.4723355,21.017425 L22.4375752,21.017425 L22.4375752,6.6672375 L25.7335669,6.6672375 L26.3303438,8.2319875 C26.8701868,7.2942375 28.0061207,6.2671125 29.7676413,6.2671125 C30.961195,6.2671125 31.7562116,6.637675 32.1828727,6.9229875" id="Fill-4" fill="#D6CBBC"></path>
                <path d="M41.5282612,14.5263938 L39.0560959,14.8948937 C37.4653769,15.1231438 36.9831537,15.7494562 36.9831537,16.6899562 C36.9831537,17.5720187 37.7500463,18.1976438 39.1418397,18.1976438 C40.4766992,18.1976438 41.5282612,17.3726438 41.5282612,16.0636438 L41.5282612,14.5263938 Z M39.510195,6.26745625 C42.5215174,6.26745625 45.5616496,7.74833125 45.5616496,11.6773938 L45.5616496,21.0170813 L42.2375339,21.0170813 L41.7553107,19.8215187 C41.2717157,20.4767062 40.2770876,21.4151437 37.9764099,21.4151437 C35.5899884,21.4151437 33.1185091,19.9074562 33.1185091,16.9457063 C33.1185091,15.0667688 33.9711455,12.8736437 38.8571702,12.2205188 L41.5282612,11.8492688 L41.5282612,11.7633313 C41.5282612,10.3388312 40.9033603,9.45745625 39.3400793,9.45745625 C37.8062942,9.45745625 37.0675256,10.1401438 36.841162,11.4787063 L33.3181207,10.6241438 C34.1975091,7.72151875 35.9315917,6.26745625 39.510195,6.26745625 Z" id="Fill-6" fill="#D6CBBC"></path>
                <path d="M57.8855719,13.1315938 C57.8855719,10.8229687 56.8916298,10.0268438 55.4140926,10.0268438 C53.8226876,10.0268438 52.7148777,11.0512188 52.7148777,13.3007187 L52.7148777,21.0172187 L48.6808033,21.0172187 L48.6808033,6.66771875 L51.976795,6.66771875 L52.572886,8.29090625 C53.3404645,7.29403125 54.5614562,6.26759375 56.6920182,6.26759375 C60.1581256,6.26759375 61.9196463,8.29090625 61.9196463,12.7039687 L61.9196463,21.0172187 L57.8855719,21.0172187 L57.8855719,13.1315938 Z" id="Fill-8" fill="#D6CBBC"></path>
                <path d="M72.0266455,9.91161875 C70.0367033,9.91161875 68.4466702,11.5643687 68.4466702,13.8413687 C68.4466702,16.1472437 70.0367033,17.7704312 72.0266455,17.7704312 C74.0426537,17.7704312 75.5490008,16.1472437 75.5490008,13.8413687 C75.5490008,11.5079937 74.0426537,9.91161875 72.0266455,9.91161875 Z M79.5837612,21.0174937 L76.2877694,21.0174937 L75.7472405,19.4231812 C75.1223397,20.2193062 73.7305463,21.4148687 71.4298686,21.4148687 C67.6235298,21.4148687 64.4119099,18.2839937 64.4119099,13.8413687 C64.4119099,9.40080625 67.537786,6.26718125 71.3722488,6.26718125 C73.4746868,6.26718125 74.9241,7.23724375 75.5490008,8.06293125 L75.5490008,1.08549375 L79.5837612,1.08549375 L79.5837612,21.0174937 Z" id="Fill-10" fill="#D6CBBC"></path>
                <polygon id="Fill-12" fill="#D6CBBC" points="109.434677 1.0852875 103.838007 21.0172875 99.7751231 21.0172875 96.0264041 6.8369125 92.3606851 21.0172875 88.2696769 21.0172875 82.7025033 1.0852875 86.9060074 1.0852875 90.4859826 15.0099125 94.0659579 1.0852875 98.1274702 1.0852875 101.707445 14.695725 105.229801 1.0852875"></polygon>
                <path d="M116.93527,17.65775 C118.837411,17.65775 120.373254,16.1205 120.373254,13.8414375 C120.373254,11.59125 118.837411,10.0271875 116.93527,10.0271875 C114.9467,10.0271875 113.469163,11.59125 113.469163,13.8414375 C113.469163,16.1205 114.9467,17.65775 116.93527,17.65775 M116.93527,21.4149375 C112.788014,21.4149375 109.434402,18.313625 109.434402,13.8414375 C109.434402,9.3713125 112.816138,6.26725 116.93527,6.26725 C121.025593,6.26725 124.406642,9.3713125 124.406642,13.8414375 C124.406642,18.313625 121.025593,21.4149375 116.93527,21.4149375" id="Fill-14" fill="#D6CBBC"></path>
                <path d="M137.270613,6.9229875 L135.849324,10.51105 C135.62296,10.339175 135.110555,10.05455 134.259291,10.05455 C132.75363,10.05455 131.560076,11.1078 131.560076,13.300925 L131.560076,21.017425 L127.525316,21.017425 L127.525316,6.6672375 L130.821307,6.6672375 L131.418084,8.2319875 C131.957927,7.2942375 133.093861,6.2671125 134.855382,6.2671125 C136.048936,6.2671125 136.843952,6.637675 137.270613,6.9229875" id="Fill-16" fill="#D6CBBC"></path>
                <polygon id="Fill-18" fill="#D6CBBC" points="144.627843 15.2092187 143.491909 16.4322813 143.491909 21.0172188 139.457149 21.0172188 139.457149 1.08521875 143.491909 1.08521875 143.491909 11.2230938 147.724909 6.66771875 152.58281 6.66771875 147.27081 12.3602188 153.207711 21.0172188 148.661917 21.0172188"></polygon>
                <g id="Group-22" transform="translate(153.652893, 5.602644)">
                    <mask id="mask-4" fill="white">
                        <use xlink:href="#path-3"></use>
                    </mask>
                    <g id="Clip-21"></g>
                    <path d="M8.5212876,5.6769625 C8.29492397,4.8224 7.78251901,3.8550875 6.39072562,3.8550875 C5.1128,3.8550875 4.3740314,4.3679625 4.3740314,5.05065 C4.3740314,5.8199625 5.16904793,6.1314 6.93125455,6.47515 C10.1970645,7.0719 12.2713785,8.211775 12.2713785,11.1144 C12.2713785,13.6492125 10.1408165,15.812775 6.36260165,15.812775 C3.18116364,15.812775 0.993667769,14.1057125 0.339957025,11.5709 L3.74913058,10.4880875 C4.06192397,11.770275 4.88506446,12.6248375 6.36260165,12.6248375 C7.75439504,12.6248375 8.55078347,12.0844625 8.55078347,11.2299 C8.55078347,10.51765 7.78251901,10.090025 6.22060992,9.8349625 C3.15235372,9.2918375 0.652064463,8.3540875 0.652064463,5.2789 C0.652064463,2.9434625 2.55626281,0.6644 6.36260165,0.6644 C9.1756843,0.6644 11.2205025,2.145275 11.8454033,4.7364625 L8.5212876,5.6769625 Z" id="Fill-20" fill="#D6CBBC" mask="url(#mask-4)"></path>
                </g>
            </g>
        </g>
    </g>
</svg>