<?xml version="1.0" encoding="UTF-8"?>
<svg width="19px" height="19px" viewBox="0 0 19 19" version="1.1" xmlns="http://www.w3.org/2000/svg" xmlns:xlink="http://www.w3.org/1999/xlink">
    <!-- Generator: Sketch 47.1 (45422) - http://www.bohemiancoding.com/sketch -->
    <title>Shape</title>
    <desc>Created with Sketch.</desc>
    <defs></defs>
    <g id="Page-1" stroke="none" stroke-width="1" fill="none" fill-rule="evenodd">
        <g id="Startpage" transform="translate(-822.000000, -1243.000000)" fill-rule="nonzero" fill="#FFFFFF">
            <g id="NewsFeed" transform="translate(90.000000, 844.000000)">
                <g id="Instagram-Post-Copy" transform="translate(502.000000, 376.000000)">
                    <path d="M236.762739,32.307578 C236.762739,30.650786 238.105467,29.307338 239.762259,29.307338 C241.419051,29.307338 242.762499,30.650786 242.762499,32.307578 C242.762499,33.96437 241.419051,35.307818 239.762259,35.307818 C238.105467,35.307818 236.762739,33.96437 236.762739,32.307578 M235.140867,32.307578 C235.140867,34.859978 237.209859,36.92897 239.762259,36.92897 C242.314659,36.92897 244.383651,34.859978 244.383651,32.307578 C244.383651,29.755178 242.314659,27.686186 239.762259,27.686186 C237.209859,27.686186 235.140939,29.755034 235.140939,32.307578 M243.486675,27.502946 C243.486436,28.0994135 243.969775,28.5831393 244.566242,28.5833778 C245.16271,28.5836164 245.646436,28.1002774 245.646674,27.50381 C245.646913,26.9073425 245.163574,26.4236166 244.567107,26.423378 L244.566675,26.423378 C243.970491,26.4236559 243.487191,26.9067624 243.486675,27.502946 M236.126259,39.633434 C235.248795,39.593474 234.771867,39.447314 234.454923,39.323834 C234.034731,39.16025 233.734923,38.965418 233.419707,38.650634 C233.104491,38.33585 232.909371,38.03633 232.746507,37.616138 C232.622955,37.299338 232.476795,36.822266 232.436907,35.944802 C232.393275,34.99613 232.384563,34.711154 232.384563,32.307722 C232.384563,29.90429 232.393995,29.620106 232.436907,28.670642 C232.476867,27.793178 232.624107,27.317042 232.746507,26.999306 C232.910091,26.579114 233.104923,26.279306 233.419707,25.96409 C233.734491,25.648874 234.034011,25.453754 234.454923,25.29089 C234.771723,25.167338 235.248795,25.021178 236.126259,24.98129 C237.074931,24.937658 237.359907,24.928946 239.762259,24.928946 C242.164611,24.928946 242.449875,24.938234 243.399339,24.981434 C244.276803,25.021394 244.752939,25.168634 245.070675,25.291034 C245.490867,25.453898 245.790675,25.64945 246.105891,25.964234 C246.421107,26.279018 246.615507,26.579258 246.779091,26.99945 C246.902643,27.31625 247.048803,27.793322 247.088691,28.670786 C247.132323,29.62025 247.141035,29.904434 247.141035,32.307866 C247.141035,34.711298 247.132323,34.995482 247.088691,35.944946 C247.048731,36.82241 246.901851,37.299338 246.779091,37.616282 C246.615507,38.036474 246.420675,38.336282 246.105891,38.650778 C245.791107,38.965274 245.490867,39.160394 245.070675,39.323978 C244.753875,39.44753 244.276803,39.59369 243.399339,39.633578 C242.450667,39.67721 242.165691,39.685922 239.762259,39.685922 C237.358827,39.685922 237.074643,39.67721 236.126259,39.633578 M236.051739,23.362082 C235.093635,23.405714 234.438939,23.557634 233.867187,23.780114 C233.275419,24.009866 232.773795,24.318098 232.272891,24.81821 C231.771987,25.318322 231.464547,25.820018 231.234795,26.412506 C231.012315,26.984618 230.860395,27.638954 230.816763,28.597058 C230.772411,29.556674 230.762259,29.863466 230.762259,32.307578 C230.762259,34.75169 230.772411,35.058482 230.816763,36.018098 C230.860395,36.976274 231.012315,37.630538 231.234795,38.20265 C231.464547,38.794418 231.772059,39.29705 232.272891,39.796946 C232.773723,40.296842 233.274699,40.604642 233.867187,40.835042 C234.440019,41.057522 235.093635,41.209442 236.051739,41.253074 C237.011859,41.296706 237.318147,41.307578 239.762259,41.307578 C242.206371,41.307578 242.513163,41.297426 243.472779,41.253074 C244.430955,41.209442 245.085219,41.057522 245.657331,40.835042 C246.249099,40.604642 246.750723,40.297058 247.251627,39.796946 C247.752531,39.296834 248.059323,38.794418 248.289723,38.20265 C248.512203,37.630538 248.664843,36.976202 248.707755,36.018098 C248.751387,35.057762 248.761539,34.75169 248.761539,32.307578 C248.761539,29.863466 248.751387,29.556674 248.707755,28.597058 C248.664123,27.638882 248.512203,26.984258 248.289723,26.412506 C248.059323,25.820738 247.751739,25.319114 247.251627,24.81821 C246.751515,24.317306 246.249099,24.009866 245.658051,23.780114 C245.085219,23.557634 244.430883,23.404994 243.473499,23.362082 C242.513739,23.318234 242.207091,23.307578 239.763339,23.307578 C237.319587,23.307578 237.012219,23.31773 236.052099,23.362082" id="Shape"></path>
                </g>
            </g>
        </g>
    </g>
</svg>