<?xml version="1.0" encoding="UTF-8"?>
<svg width="87px" height="87px" viewBox="0 0 87 87" version="1.1" xmlns="http://www.w3.org/2000/svg" xmlns:xlink="http://www.w3.org/1999/xlink">
    <!-- Generator: Sketch 48.1 (47250) - http://www.bohemiancoding.com/sketch -->
    <title>Group</title>
    <desc>Created with Sketch.</desc>
    <defs>
        <polygon id="path-1" points="0 0.168052632 12.3572598 0.168052632 12.3572598 13.605125 0 13.605125"></polygon>
        <polygon id="path-3" points="0.241466929 0.0180289474 9.94620472 0.0180289474 9.94620472 13.1975158 0.241466929 13.1975158"></polygon>
        <polygon id="path-5" points="0 0.281365789 17.0995772 0.281365789 17.0995772 13.2026553 0 13.2026553"></polygon>
        <polygon id="path-7" points="0.222392126 0.377384211 9.79914803 0.377384211 9.79914803 10.1973684 0.222392126 10.1973684"></polygon>
        <polygon id="path-9" points="0.305879528 0.377506579 7.93833071 0.377506579 7.93833071 10.1971645 0.305879528 10.1971645"></polygon>
    </defs>
    <g id="iPhone-8" stroke="none" stroke-width="1" fill="none" fill-rule="evenodd" transform="translate(-144.000000, -550.000000)">
        <g id="Group" transform="translate(144.000000, 550.000000)">
            <circle id="Oval-5-Copy" fill="#4016DA" cx="43.5" cy="43.5" r="43.5"></circle>
            <g id="Logo-Square" transform="translate(18.000000, 28.000000)">
                <g id="Page-1">
                    <g id="Group-3" transform="translate(0.000000, 0.239761)">
                        <mask id="mask-2" fill="white">
                            <use xlink:href="#path-1"></use>
                        </mask>
                        <g id="Clip-2"></g>
                        <path d="M10.6128189,13.3473355 L10.2313228,12.1101908 C9.86749606,12.5910987 8.65032283,13.605125 6.32440157,13.605125 C2.52670866,13.605125 0,10.7266118 0,6.88669079 C0,3.12141447 2.54477953,0.167848684 6.25171654,0.167848684 C9.61370079,0.167848684 11.1942992,1.88426974 11.8846063,3.78546711 L9.41371654,4.63551974 C8.99527559,3.54644079 8.17807087,2.64213816 6.39628346,2.64213816 C4.12537795,2.64213816 2.61666142,4.57963816 2.61666142,6.88669079 C2.61666142,9.26838816 4.17999213,11.1324671 6.48744094,11.1324671 C8.85030709,11.1324671 9.61370079,9.48946711 9.75866929,8.34491447 L7.19662205,8.34491447 L7.19662205,6.09374342 L12.3572598,6.09374342 L12.3572598,13.3473355 L10.6128189,13.3473355 Z" id="Fill-1" fill="#FEFEFE" mask="url(#mask-2)"></path>
                    </g>
                    <path d="M20.5863307,4.45013158 L19.6771654,6.77635526 C19.5321969,6.66459211 19.2045118,6.48022368 18.6599764,6.48022368 C17.697,6.48022368 16.9336063,7.16303947 16.9336063,8.58496053 L16.9336063,13.5869737 L14.352685,13.5869737 L14.352685,4.28452632 L16.4609528,4.28452632 L16.8424488,5.29896053 C17.1882047,4.69038158 17.9146535,4.02510526 19.0414724,4.02510526 C19.8048661,4.02510526 20.3136614,4.26535526 20.5863307,4.45013158" id="Fill-4" fill="#FEFEFE"></path>
                    <path d="M26.5642535,9.37909079 L24.982852,9.61770921 C23.9652614,9.76618289 23.656852,10.1720382 23.656852,10.7818408 C23.656852,11.3533013 24.1471748,11.7591566 25.0374661,11.7591566 C25.8920173,11.7591566 26.5642535,11.2244066 26.5642535,10.3755776 L26.5642535,9.37909079 Z M25.2735921,4.02506447 C27.1999465,4.02506447 29.1443717,4.98524868 29.1443717,7.53255132 L29.1443717,13.5869329 L27.0180331,13.5869329 L26.709222,12.8119329 C26.400411,13.2369592 25.763915,13.8451303 24.2921433,13.8451303 C22.7657575,13.8451303 21.1847575,12.8674066 21.1847575,10.9474461 C21.1847575,9.72947237 21.7300961,8.30795921 24.8559543,7.88415658 L26.5642535,7.64390658 L26.5642535,7.588025 C26.5642535,6.66455132 26.1646866,6.09309079 25.1643638,6.09309079 C24.1833165,6.09309079 23.710663,6.53565658 23.5656945,7.40324868 L21.3124583,6.84932763 C21.8754661,4.96770921 22.9842142,4.02506447 25.2735921,4.02506447 Z" id="Fill-6" fill="#FEFEFE"></path>
                    <path d="M37.0275661,8.47486974 C37.0275661,6.97830395 36.3918732,6.46231711 35.4465661,6.46231711 C34.428574,6.46231711 33.7201961,7.12636974 33.7201961,8.58500132 L33.7201961,13.5870145 L31.1396764,13.5870145 L31.1396764,4.28456711 L33.2475425,4.28456711 L33.6294402,5.33693553 C34.1201646,4.69042237 34.9012276,4.02514605 36.2641724,4.02514605 C38.4812669,4.02514605 39.6080858,5.33693553 39.6080858,8.19790921 L39.6080858,13.5870145 L37.0275661,13.5870145 L37.0275661,8.47486974 Z" id="Fill-8" fill="#FEFEFE"></path>
                    <g id="Group-12" transform="translate(40.960630, 0.647655)">
                        <mask id="mask-4" fill="white">
                            <use xlink:href="#path-3"></use>
                        </mask>
                        <g id="Clip-11"></g>
                        <path d="M5.11216772,5.73997632 C3.83957717,5.73997632 2.82238819,6.81151579 2.82238819,8.28727895 C2.82238819,9.78221316 3.83957717,10.8345816 5.11216772,10.8345816 C6.40242756,10.8345816 7.36540394,9.78221316 7.36540394,8.28727895 C7.36540394,6.77480526 6.40242756,5.73997632 5.11216772,5.73997632 Z M9.9463252,12.9393184 L7.83805748,12.9393184 L7.49230157,11.9061211 C7.09273465,12.4221079 6.20244331,13.1975158 4.73067165,13.1975158 C2.29552205,13.1975158 0.241466929,11.1674237 0.241466929,8.28727895 C0.241466929,5.40876579 2.24090787,3.37745 4.69372677,3.37745 C6.03860079,3.37745 6.96583701,4.00642368 7.36540394,4.54117368 L7.36540394,0.0180289474 L9.9463252,0.0180289474 L9.9463252,12.9393184 Z" id="Fill-10" fill="#FEFEFE" mask="url(#mask-4)"></path>
                    </g>
                    <g id="Group-15" transform="translate(0.000000, 17.371339)">
                        <mask id="mask-6" fill="white">
                            <use xlink:href="#path-5"></use>
                        </mask>
                        <g id="Clip-14"></g>
                        <polygon id="Fill-13" fill="#FEFEFE" mask="url(#mask-6)" points="17.0995772 0.281365789 13.5195378 13.2026553 10.9209472 13.2026553 8.52274252 4.00993158 6.17794724 13.2026553 3.56128583 13.2026553 -0.000281102362 0.281365789 2.68866378 0.281365789 4.97884488 9.30848421 7.26902598 0.281365789 9.86681339 0.281365789 12.1565929 9.10453684 14.4098291 0.281365789"></polygon>
                    </g>
                    <g id="Group-18" transform="translate(16.062992, 20.634497)">
                        <mask id="mask-8" fill="white">
                            <use xlink:href="#path-7"></use>
                        </mask>
                        <g id="Clip-17"></g>
                        <path d="M5.02040787,7.76150263 C6.2375811,7.76150263 7.2194315,6.76501579 7.2194315,5.28762105 C7.2194315,3.82898947 6.2375811,2.81496316 5.02040787,2.81496316 C3.74862047,2.81496316 2.80331339,3.82898947 2.80331339,5.28762105 C2.80331339,6.76501579 3.74862047,7.76150263 5.02040787,7.76150263 M5.02040787,10.19745 C2.36760472,10.19745 0.222392126,8.18652895 0.222392126,5.28762105 C0.222392126,2.38993684 2.38567559,0.377384211 5.02040787,0.377384211 C7.63706929,0.377384211 9.79914803,2.38993684 9.79914803,5.28762105 C9.79914803,8.18652895 7.63706929,10.19745 5.02040787,10.19745" id="Fill-16" fill="#FEFEFE" mask="url(#mask-8)"></path>
                    </g>
                    <path d="M33.2513976,21.4371118 L32.3422323,23.7629276 C32.1972638,23.6515724 31.8699803,23.4672039 31.3250433,23.4672039 C30.3620669,23.4672039 29.5982717,24.1500197 29.5982717,25.5715329 L29.5982717,30.5739539 L27.0181535,30.5739539 L27.0181535,21.2715066 L29.1260197,21.2715066 L29.5079173,22.2855329 C29.8532717,21.6773618 30.5797205,21.0120855 31.7065394,21.0120855 C32.4699331,21.0120855 32.9783268,21.2523355 33.2513976,21.4371118" id="Fill-19" fill="#FEFEFE"></path>
                    <polygon id="Fill-21" fill="#FEFEFE" points="37.6102913 26.8086368 36.8838425 27.6015842 36.8838425 30.5739132 34.3033228 30.5739132 34.3033228 17.6526237 36.8838425 17.6526237 36.8838425 24.2250316 39.5916614 21.2714658 42.6990472 21.2714658 39.3009213 24.9620974 43.0986142 30.5739132 40.1912126 30.5739132"></polygon>
                    <g id="Group-25" transform="translate(42.968504, 20.634497)">
                        <mask id="mask-10" fill="white">
                            <use xlink:href="#path-9"></use>
                        </mask>
                        <g id="Clip-24"></g>
                        <path d="M5.53920236,3.62679605 C5.39463543,3.072875 5.06654882,2.44553289 4.17625748,2.44553289 C3.35905276,2.44553289 2.88680079,2.778375 2.88680079,3.22094079 C2.88680079,3.71938816 3.39519449,3.92129605 4.52201339,4.14441447 C6.61140709,4.53109868 7.93861181,5.26979605 7.93861181,7.15182237 C7.93861181,8.79482237 6.57526535,10.1971645 4.15858819,10.1971645 C2.12300551,10.1971645 0.724320472,9.09095395 0.305879528,7.44795395 L2.48683228,6.74555921 C2.68641496,7.57684868 3.2132811,8.13076974 4.15858819,8.13076974 C5.04847795,8.13076974 5.55807638,7.78079605 5.55807638,7.22646711 C5.55807638,6.76473026 5.06654882,6.48776974 4.06743071,6.32216447 C2.10493465,5.97055921 0.50586378,5.36238816 0.50586378,3.36900658 C0.50586378,1.85490132 1.72343858,0.377506579 4.15858819,0.377506579 C5.95804488,0.377506579 7.26597402,1.33769079 7.66554094,3.01699342 L5.53920236,3.62679605 Z" id="Fill-23" fill="#FEFEFE" mask="url(#mask-10)"></path>
                    </g>
                </g>
            </g>
        </g>
    </g>
</svg>