<?xml version="1.0" encoding="UTF-8"?>
<svg width="200px" height="300px" viewBox="0 0 200 300" version="1.1" xmlns="http://www.w3.org/2000/svg" xmlns:xlink="http://www.w3.org/1999/xlink">
    <!-- Generator: Sketch 53.2 (72643) - https://sketchapp.com -->
    <title>Group 6</title>
    <desc>Created with Sketch.</desc>
    <g id="Page-1" stroke="none" stroke-width="1" fill="none" fill-rule="evenodd">
        <g id="The-Studio" transform="translate(-1235.000000, -2530.000000)" fill-rule="nonzero">
            <g id="GANT-Copy-3" transform="translate(285.000000, 2473.000000)">
                <g id="Screenshot-2018-12-31-at-14.52.16">
                    <g id="Group-6" transform="translate(950.000000, 57.000000)">
                        <polygon id="Rectangle-Copy-7" fill="#FFFFFF" points="100 0 100 100 0 100"></polygon>
                        <rect id="Rectangle" fill="#4016DA" x="0" y="100" width="100" height="100"></rect>
                        <polygon id="Rectangle-Copy-10" fill="#FFFFFF" transform="translate(50.000000, 250.000000) rotate(-90.000000) translate(-50.000000, -250.000000) " points="100 200 100 300 0 300"></polygon>
                        <circle id="Oval-Copy-4" fill="#F2C8B5" cx="150" cy="50" r="50"></circle>
                        <path d="M150,200 L150,100 C122.385763,100 100,122.385763 100,150 C100,177.614237 122.385763,200 150,200 Z" id="Oval-Copy-3" fill="#F56A8E"></path>
                        <path d="M200,200 L200,100 C172.385763,100 150,122.385763 150,150 C150,177.614237 172.385763,200 200,200 Z" id="Oval-Copy-6" fill="#252C40"></path>
                        <circle id="Oval-Copy-5" fill="#F2C8B5" cx="150" cy="250" r="50"></circle>
                    </g>
                </g>
            </g>
        </g>
    </g>
</svg>