<svg xmlns="http://www.w3.org/2000/svg" width="795" height="214" viewBox="0 0 795 214">
  <defs>
    <linearGradient id="telltime-a" x1="0%" x2="91.646%" y1="23.731%" y2="23.731%">
      <stop offset="0%" stop-color="#D3F771"/>
      <stop offset="100%" stop-color="#47FDA5"/>
    </linearGradient>
  </defs>
  <g fill="none" fill-rule="evenodd">
    <path fill="url(#telltime-a)" d="M79.532775,104.461912 C74.6098809,104.461912 69.9817842,102.542271 66.5008809,99.0563944 C63.0199777,95.5707624 61.1029409,90.9363784 61.1029409,86.0070413 C61.1029409,81.077215 63.0199777,76.442831 66.5008809,72.957199 C69.9817842,69.471567 74.6098809,67.5519259 79.532775,67.5519259 L79.5804017,67.5519259 C84.496457,67.5519259 89.1201574,69.4669202 92.5998395,72.9444813 C96.0792773,76.4220424 98.0009547,81.048111 98.01048,85.9708447 L98.0466275,104.461912 L79.532775,104.461912 Z M150.035475,15.4082446 C152.83495,18.2115223 155.033595,21.4775291 156.570351,25.1155291 C158.162549,28.8851086 158.969761,32.885808 158.969761,37.0068366 L158.969761,86.0069669 C158.969761,90.1277509 158.162549,94.1286949 156.570351,97.8982743 C155.033595,101.536274 152.83495,104.802037 150.035475,107.605314 C147.236245,110.408592 143.974669,112.610224 140.341604,114.148823 C136.577139,115.743184 132.581623,116.551737 128.466429,116.551737 L110.131849,116.551737 L110.131849,134.419147 C110.131849,138.539931 109.324637,142.540875 107.732194,146.310455 C106.195683,149.948455 103.997038,153.214217 101.197563,156.017495 C98.3980883,158.820773 95.1365123,161.022405 91.503692,162.561248 C87.7392266,164.155609 83.7437104,164.963918 79.6285169,164.963918 L30.5036229,164.963918 C25.5809731,164.963918 20.9526321,166.883559 17.4717289,170.369435 C13.9905814,173.855067 12.0737888,178.489451 12.0737888,183.419033 C12.0737888,188.348615 13.9905814,192.982999 17.4717289,196.468631 C20.9526321,199.954507 25.5809731,201.873904 30.5036229,201.873904 L642,201.909782 L642,213.999926 L30.5036229,213.964048 C26.3884293,213.964048 22.3929132,213.155495 18.6284478,211.561134 C14.9953833,210.022535 11.7338072,207.820903 8.93433256,205.017625 C6.13485791,202.214347 3.93621274,198.948341 2.39970122,195.310341 C0.807503067,191.540761 4.68457017e-05,187.539817 4.68457017e-05,183.419033 C4.68457017e-05,179.298249 0.807503067,175.297305 2.39970122,171.527726 C3.93621274,167.889726 6.13485791,164.623719 8.93433256,161.820441 C11.7338072,159.017163 14.9953833,156.815531 18.6284478,155.276933 C22.3929132,153.682571 26.3884293,152.874018 30.5036229,152.874018 L79.6285169,152.874018 C84.5511667,152.874018 89.1792634,150.954377 92.6604109,147.468745 C96.1413141,143.983113 98.058351,139.348729 98.058351,134.419147 L98.058351,116.551737 L79.532775,116.551737 C75.4173372,116.551737 71.4220653,115.743184 67.6575998,114.148823 C64.0245353,112.610224 60.7629593,110.408592 57.9634846,107.605314 C55.1642542,104.802037 52.9656091,101.536274 51.4288533,97.8982743 C49.8366551,94.1286949 49.0291989,90.1277509 49.0291989,86.0069669 C49.0291989,81.8859383 49.8366551,77.8849943 51.4288533,74.1154149 C52.9656091,70.4774149 55.16401,67.211408 57.9634846,64.4081303 C60.7629593,61.6050971 64.0245353,59.4034651 67.6575998,57.8646217 C71.4220653,56.2702606 75.4173372,55.4617074 79.5804017,55.4617074 C83.690222,55.4617074 87.6808533,56.268304 91.4414109,57.8585074 C95.0705676,59.3936823 98.3299455,61.5901783 101.128687,64.3870971 C103.927429,67.1842606 106.127296,70.443664 107.667227,74.074816 C109.262844,77.8373029 110.075918,81.8316434 110.083978,85.9470469 L110.120125,104.461838 L128.466429,104.461838 C133.389079,104.461838 138.01742,102.542197 141.498323,99.05632 C144.979227,95.570688 146.896263,90.936304 146.896263,86.0069669 L146.896263,37.0068366 C146.896263,32.0772549 144.979227,27.4428709 141.498323,23.9569943 C138.01742,20.4713623 133.389079,18.5517211 128.466429,18.5517211 L104.729268,18.5517211 L104.729268,20.0108343 C104.729268,22.7737577 102.492522,25.0135429 99.7333464,25.0135429 L92.7388118,25.0135429 C91.3593464,25.0135429 90.2409731,23.8936503 90.2409731,22.5123109 C90.2409731,21.1307269 91.3593464,20.0108343 92.7388118,20.0108343 L97.4851206,20.0108343 L97.4851206,15.0081257 L92.7388118,15.0081257 C91.3593464,15.0081257 90.2409731,13.8882331 90.2409731,12.5068937 C90.2409731,11.1253097 91.3593464,10.0054171 92.7388118,10.0054171 L97.4851206,10.0054171 L97.4851206,5.00270857 L92.7388118,5.00270857 C91.3593464,5.00270857 90.2409731,3.882816 90.2409731,2.501232 C90.2409731,1.11989257 91.3593464,0 92.7388118,0 L99.7333464,0 C102.492522,0 104.729268,2.23978514 104.729268,5.00270857 L104.729268,6.46182171 L128.466429,6.46182171 C132.581623,6.46182171 136.577139,7.27013029 140.341604,8.864736 C143.974669,10.4033349 147.236245,12.6049669 150.035475,15.4082446 Z M35.1453103,71.8471837 L0,31.3998367 L17.493,31.3998367 L6.8192069,0 L41.9645172,40.4473469 L24.4715172,40.4473469 L35.1453103,71.8471837 Z"/>
    <path fill="#47FDA5" d="M715.532775,104.461912 C710.609881,104.461912 705.981784,102.542271 702.500881,99.0563944 C699.019978,95.5707624 697.102941,90.9363784 697.102941,86.0070413 C697.102941,81.077215 699.019978,76.442831 702.500881,72.957199 C705.981784,69.471567 710.609881,67.5519259 715.532775,67.5519259 L715.580402,67.5519259 C720.496457,67.5519259 725.120157,69.4669202 728.599839,72.9444813 C732.079277,76.4220424 734.000955,81.048111 734.01048,85.9708447 L734.046627,104.461912 L715.532775,104.461912 Z M792.570351,25.1156036 C794.162549,28.885183 794.969761,32.8858824 794.969761,37.006911 L794.969761,86.0070413 C794.969761,90.1278253 794.162549,94.1287693 792.570351,97.8983487 C791.033595,101.536349 788.83495,104.802111 786.035475,107.605389 C783.236245,110.408666 779.974669,112.610298 776.341604,114.148897 C772.577139,115.743258 768.581623,116.551812 764.466429,116.551812 L746.131849,116.551812 L746.131849,134.419222 C746.131849,138.540006 745.324637,142.54095 743.732194,146.310529 C742.195683,149.948529 739.997038,153.214292 737.197563,156.017569 C734.398088,158.820847 731.136512,161.022479 727.503692,162.561322 C723.739227,164.155684 719.74371,164.963992 715.628517,164.963992 L666.503623,164.963992 C661.580973,164.963992 656.952632,166.883633 653.471729,170.36951 C649.990581,173.855142 648.073789,178.489526 648.073789,183.419108 C648.073789,188.348689 649.990581,192.983073 653.471729,196.468705 C656.952632,199.954582 661.580973,201.873978 666.503623,201.873978 L789.028632,201.873978 L789.028632,213.964122 L666.503623,213.964122 C662.388429,213.964122 658.392913,213.155569 654.628448,211.561208 C650.995383,210.022609 647.733807,207.820977 644.934333,205.0177 C642.134858,202.214422 639.936213,198.948415 638.399701,195.310415 C636.807503,191.540836 636.000047,187.539892 636.000047,183.419108 C636.000047,179.298324 636.807503,175.29738 638.399701,171.5278 C639.936213,167.8898 642.134858,164.623793 644.934333,161.820516 C647.733807,159.017238 650.995383,156.815606 654.628448,155.277007 C658.392913,153.682646 662.388429,152.874093 666.503623,152.874093 L715.628517,152.874093 C720.551167,152.874093 725.179263,150.954452 728.660411,147.46882 C732.141314,143.983188 734.058351,139.348804 734.058351,134.419222 L734.058351,116.551812 L715.532775,116.551812 C711.417337,116.551812 707.422065,115.743258 703.6576,114.148897 C700.024535,112.610298 696.762959,110.408666 693.963485,107.605389 C691.164254,104.802111 688.965609,101.536349 687.428853,97.8983487 C685.836655,94.1287693 685.029199,90.1278253 685.029199,86.0070413 C685.029199,81.8860127 685.836655,77.8850687 687.428853,74.1154893 C688.965609,70.4774893 691.16401,67.2114824 693.963485,64.4082047 C696.762959,61.6051716 700.024535,59.4035396 703.6576,57.8646962 C707.422065,56.270335 711.417337,55.4617819 715.532775,55.4617819 L715.580402,55.4617819 C719.690222,55.4617819 723.680853,56.2683784 727.441411,57.8585819 C731.070568,59.3937567 734.329945,61.5902527 737.128687,64.3871716 C739.927429,67.184335 742.127296,70.4437384 743.667227,74.0748904 C745.262844,77.8373773 746.075918,81.8317179 746.083978,85.9471213 L746.120125,104.461912 L764.466429,104.461912 C769.389079,104.461912 774.01742,102.542271 777.498323,99.0563944 C780.979227,95.5707624 782.896263,90.9363784 782.896263,86.0070413 L782.896263,37.006911 C782.896263,32.0773293 780.979227,27.4429453 777.498323,23.9570687 C774.01742,20.4714367 769.389079,18.5517956 764.466429,18.5517956 L740.729268,18.5517956 L740.729268,20.0109087 C740.729268,22.7738322 738.492522,25.0136173 735.733346,25.0136173 L728.738812,25.0136173 C727.359346,25.0136173 726.240973,23.8937247 726.240973,22.5123853 C726.240973,21.1308013 727.359346,20.0109087 728.738812,20.0109087 L733.485121,20.0109087 L733.485121,15.0082002 L728.738812,15.0082002 C727.359346,15.0082002 726.240973,13.8883076 726.240973,12.5069682 C726.240973,11.1253842 727.359346,10.0054916 728.738812,10.0054916 L733.485121,10.0054916 L733.485121,5.00278302 L728.738812,5.00278302 C727.359346,5.00278302 726.240973,3.88289045 726.240973,2.50130645 C726.240973,1.11996702 727.359346,7.44489796e-05 728.738812,7.44489796e-05 L735.733346,7.44489796e-05 C738.492522,7.44489796e-05 740.729268,2.23985959 740.729268,5.00278302 L740.729268,6.46189616 L764.466429,6.46189616 C768.581623,6.46189616 772.577139,7.27020473 776.341604,8.86481045 C779.974669,10.4034093 783.236245,12.6050413 786.035475,15.408319 C788.83495,18.2115967 791.033595,21.4776036 792.570351,25.1156036 Z M671.14531,71.8471837 L636,31.3998367 L653.493,31.3998367 L642.819207,0 L677.964517,40.4473469 L660.471517,40.4473469 L671.14531,71.8471837 Z" transform="matrix(-1 0 0 1 1430.97 0)"/>
    <path fill="#49655C" d="M222.633 66.595L236.478 66.595 236.478 106 250.465 106 250.465 66.595 264.594 66.595 264.594 52.679 222.633 52.679 222.633 66.595zM274.25 106L307.336 106 307.336 94.569 288.237 94.569 288.237 84.771 305.135 84.771 305.135 72.985 288.237 72.985 288.237 64.323 307.336 64.323 307.336 52.75 274.25 52.75 274.25 106zM317.347 106L350.504 106 350.504 91.942 331.334 91.942 331.334 52.75 317.347 52.75 317.347 106zM360.515 106L393.672 106 393.672 91.942 374.502 91.942 374.502 52.75 360.515 52.75 360.515 106zM397.932 66.595L411.777 66.595 411.777 106 425.764 106 425.764 66.595 439.893 66.595 439.893 52.679 397.932 52.679 397.932 66.595zM449.478 106L463.465 106 463.465 52.75 449.478 52.75 449.478 106zM480.505 52.75L474.186 52.75 474.186 106 488.244 106 488.244 78.736 502.231 91.374 516.147 78.665 516.147 106 530.205 106 530.205 52.75 523.886 52.75 502.231 72.488 480.505 52.75zM540.926 106L574.012 106 574.012 94.569 554.913 94.569 554.913 84.771 571.811 84.771 571.811 72.985 554.913 72.985 554.913 64.323 574.012 64.323 574.012 52.75 540.926 52.75 540.926 106zM231.64375 141L230.54725 138.033 224.54875 138.033 223.45225 141 220.27025 141 225.92475 125.95 229.17125 125.95 234.80425 141 231.64375 141zM225.58075 135.238L229.51525 135.238 227.53725 129.9275 225.58075 135.238zM250.58525 141L247.51075 135.367 245.70475 135.367 245.70475 141 242.60875 141 242.60875 125.95 248.39225 125.95C251.48825 125.95 253.31575 127.971 253.31575 130.4865 253.31575 132.873 252.11175 134.292 250.54225 134.9155L253.98225 141 250.58525 141zM245.70475 132.658L248.09125 132.658C249.57475 132.658 250.24125 131.7335 250.24125 130.7015 250.24125 129.605 249.55325 128.745 248.09125 128.745L245.70475 128.745 245.70475 132.658zM256.15375 141L265.78575 141 265.78575 138.205 259.24975 138.205 259.24975 134.7865 264.86125 134.7865 264.86125 132.0775 259.24975 132.0775 259.24975 128.745 265.78575 128.745 265.78575 125.95 256.15375 125.95 256.15375 141zM278.14825 125.95L274.21375 136.8935 270.27925 125.95 266.94675 125.95 272.53675 141 275.91225 141 281.48075 125.95 278.14825 125.95zM281.93225 133.4535C281.93225 129.39 284.66275 125.6275 289.65075 125.6275 294.61725 125.6275 297.36925 129.39 297.36925 133.4535 297.36925 137.4955 294.59575 141.2795 289.65075 141.2795 284.68425 141.2795 281.93225 137.4955 281.93225 133.4535zM294.27325 133.4535C294.27325 130.6585 292.59625 128.5085 289.65075 128.5085 286.70525 128.5085 285.02825 130.6585 285.02825 133.4535 285.02825 136.2485 286.70525 138.3985 289.65075 138.3985 292.57475 138.3985 294.27325 136.2485 294.27325 133.4535zM299.82025 141L309.19425 141 309.19425 138.1405 302.91625 138.1405 302.91625 125.95 299.82025 125.95 299.82025 141zM310.74225 134.894C310.74225 139.6025 313.68775 141.301 316.86975 141.301 320.15925 141.301 322.95425 139.624 322.95425 134.9155L322.95425 125.95 319.85825 125.95 319.85825 134.7435C319.85825 137.1085 318.97675 138.42 316.86975 138.42 314.78425 138.42 313.83825 137.216 313.83825 134.7435L313.83825 125.95 310.74225 125.95 310.74225 134.894zM329.12475 141L332.22075 141 332.22075 128.831 336.41325 128.831 336.41325 125.95 324.93225 125.95 324.93225 128.831 329.12475 128.831 329.12475 141zM338.39125 141L341.48725 141 341.48725 125.95 338.39125 125.95 338.39125 141zM343.93825 133.4535C343.93825 129.39 346.66875 125.6275 351.65675 125.6275 356.62325 125.6275 359.37525 129.39 359.37525 133.4535 359.37525 137.4955 356.60175 141.2795 351.65675 141.2795 346.69025 141.2795 343.93825 137.4955 343.93825 133.4535zM356.27925 133.4535C356.27925 130.6585 354.60225 128.5085 351.65675 128.5085 348.71125 128.5085 347.03425 130.6585 347.03425 133.4535 347.03425 136.2485 348.71125 138.3985 351.65675 138.3985 354.58075 138.3985 356.27925 136.2485 356.27925 133.4535zM361.84775 141L364.94375 141 364.94375 131.0455 371.45825 141 374.61875 141 374.61875 125.95 371.52275 125.95 371.52275 135.926 365.02975 125.95 361.84775 125.95 361.84775 141zM387.84125 141L386.74475 138.033 380.74625 138.033 379.64975 141 376.46775 141 382.12225 125.95 385.36875 125.95 391.00175 141 387.84125 141zM381.77825 135.238L385.71275 135.238 383.73475 129.9275 381.77825 135.238zM400.76275 141L397.68825 135.367 395.88225 135.367 395.88225 141 392.78625 141 392.78625 125.95 398.56975 125.95C401.66575 125.95 403.49325 127.971 403.49325 130.4865 403.49325 132.873 402.28925 134.292 400.71975 134.9155L404.15975 141 400.76275 141zM395.88225 132.658L398.26875 132.658C399.75225 132.658 400.41875 131.7335 400.41875 130.7015 400.41875 129.605 399.73075 128.745 398.26875 128.745L395.88225 128.745 395.88225 132.658zM412.30825 135.238L412.30825 141 409.21225 141 409.21225 135.238 403.90175 125.95 407.29875 125.95 410.73875 132.1205 414.20025 125.95 417.61875 125.95 412.30825 135.238zM428.62675 141L431.72275 141 431.72275 128.831 435.91525 128.831 435.91525 125.95 424.43425 125.95 424.43425 128.831 428.62675 128.831 428.62675 141zM437.89325 141L440.98925 141 440.98925 125.95 437.89325 125.95 437.89325 141zM460.16725 125.95L456.72725 125.95 452.06175 136.8075 447.39625 125.95 443.97775 125.95 443.97775 141 447.07375 141 447.07375 131.8195 451.00825 141 453.11525 141 457.07125 131.7335 457.07125 141 460.14575 141 460.16725 125.95zM463.15575 141L472.78775 141 472.78775 138.205 466.25175 138.205 466.25175 134.7865 471.86325 134.7865 471.86325 132.0775 466.25175 132.0775 466.25175 128.745 472.78775 128.745 472.78775 125.95 463.15575 125.95 463.15575 141zM484.35475 141L487.45075 141 487.45075 128.831 491.64325 128.831 491.64325 125.95 480.16225 125.95 480.16225 128.831 484.35475 128.831 484.35475 141zM501.59775 141L498.52325 135.367 496.71725 135.367 496.71725 141 493.62125 141 493.62125 125.95 499.40475 125.95C502.50075 125.95 504.32825 127.971 504.32825 130.4865 504.32825 132.873 503.12425 134.292 501.55475 134.9155L504.99475 141 501.59775 141zM496.71725 132.658L499.10375 132.658C500.58725 132.658 501.25375 131.7335 501.25375 130.7015 501.25375 129.605 500.56575 128.745 499.10375 128.745L496.71725 128.745 496.71725 132.658zM517.35725 141L516.26075 138.033 510.26225 138.033 509.16575 141 505.98375 141 511.63825 125.95 514.88475 125.95 520.51775 141 517.35725 141zM511.29425 135.238L515.22875 135.238 513.25075 129.9275 511.29425 135.238zM532.17075 131.282L535.15925 130.3145C534.12725 127.111 531.50425 125.6275 528.36525 125.6275 523.97925 125.6275 520.92625 128.874 520.92625 133.4535 520.92625 138.291 524.10825 141.2795 528.42975 141.2795 531.82675 141.2795 533.97675 139.6885 535.09475 136.8935L532.14925 135.926C531.74075 137.173 530.66575 138.42 528.49425 138.42 526.00025 138.42 524.02225 136.442 524.02225 133.475 524.02225 130.6585 525.84975 128.5085 528.40825 128.5085 530.62275 128.5085 531.74075 129.734 532.17075 131.282zM546.33925 141.0215L550.20925 141.0215 544.12475 132.142 549.80075 125.95 545.78025 125.95 540.62025 131.6905 540.44825 131.6905 540.44825 125.95 537.39525 125.95 537.39525 141 540.44825 141 540.44825 136.141 541.97475 134.4855 546.33925 141.0215zM551.99375 141L561.62575 141 561.62575 138.205 555.08975 138.205 555.08975 134.7865 560.70125 134.7865 560.70125 132.0775 555.08975 132.0775 555.08975 128.745 561.62575 128.745 561.62575 125.95 551.99375 125.95 551.99375 141zM571.94575 141L568.87125 135.367 567.06525 135.367 567.06525 141 563.96925 141 563.96925 125.95 569.75275 125.95C572.84875 125.95 574.67625 127.971 574.67625 130.4865 574.67625 132.873 573.47225 134.292 571.90275 134.9155L575.34275 141 571.94575 141zM567.06525 132.658L569.45175 132.658C570.93525 132.658 571.60175 131.7335 571.60175 130.7015 571.60175 129.605 570.91375 128.745 569.45175 128.745L567.06525 128.745 567.06525 132.658z"/>
  </g>
</svg>
