<?xml version="1.0" encoding="UTF-8"?>
<svg width="1139px" height="105px" viewBox="0 0 1139 105" version="1.1" xmlns="http://www.w3.org/2000/svg" xmlns:xlink="http://www.w3.org/1999/xlink">
    <!-- Generator: Sketch 47.1 (45422) - http://www.bohemiancoding.com/sketch -->
    <title>That’s grand</title>
    <desc>Created with Sketch.</desc>
    <defs></defs>
    <g id="Page-1" stroke="none" stroke-width="1" fill="none" fill-rule="evenodd">
        <g id="Startpage" transform="translate(-316.000000, -3763.000000)" fill="#E9ECF0">
            <path d="M355.818,3914 L384.762,3914 L384.762,3800.234 L423.957,3800.234 L423.957,3773.3 L316.623,3773.3 L316.623,3800.234 L355.818,3800.234 L355.818,3914 Z M504.558,3914 L532.899,3914 L532.899,3855.308 C532.899,3824.153 520.638,3809.882 496.116,3809.882 C482.046,3809.882 473.604,3815.912 467.775,3822.746 L467.775,3773.3 L439.635,3773.3 L439.635,3914 L467.775,3914 L467.775,3859.73 C467.775,3843.851 475.815,3836.615 486.87,3836.615 C497.523,3836.615 504.558,3842.042 504.558,3858.725 L504.558,3914 Z M551.994,3840.635 C558.225,3820.133 570.486,3809.882 595.812,3809.882 C617.118,3809.882 638.625,3820.334 638.625,3848.072 L638.625,3914 L615.108,3914 L611.691,3905.558 C608.274,3910.181 601.239,3916.814 584.958,3916.814 C568.074,3916.814 550.587,3906.161 550.587,3885.257 C550.587,3871.991 556.617,3856.514 591.189,3851.891 L610.083,3849.278 L610.083,3848.675 C610.083,3838.625 605.661,3832.394 594.606,3832.394 C583.752,3832.394 578.526,3837.218 576.918,3846.665 L551.994,3840.635 Z M610.083,3879.026 L610.083,3868.172 L592.596,3870.785 C581.34,3872.393 577.923,3876.815 577.923,3883.448 C577.923,3889.679 583.35,3894.101 593.199,3894.101 C602.646,3894.101 610.083,3888.272 610.083,3879.026 Z M651.891,3812.696 L668.775,3812.696 L668.775,3786.365 L697.317,3786.365 L697.317,3812.696 L721.437,3812.696 L721.437,3837.62 L697.317,3837.62 L697.317,3881.438 C697.317,3887.267 700.332,3890.282 705.759,3890.282 C710.382,3890.282 712.995,3888.473 714.402,3887.066 L725.859,3907.367 C722.844,3910.382 715.005,3916.814 699.126,3916.814 C683.046,3916.814 668.775,3906.563 668.775,3885.86 L668.775,3837.62 L651.891,3837.62 L651.891,3812.696 Z M742.542,3763.652 C751.989,3763.652 759.426,3771.089 759.426,3780.536 C759.426,3782.345 759.024,3784.556 758.421,3786.164 L745.557,3816.716 L735.105,3812.696 L738.723,3797.018 C731.085,3795.41 725.658,3788.576 725.658,3780.536 C725.658,3771.089 733.095,3763.652 742.542,3763.652 Z M853.092,3838.625 C848.67,3820.334 834.198,3809.882 814.299,3809.882 C787.365,3809.882 773.898,3825.962 773.898,3842.444 C773.898,3864.152 791.586,3870.785 813.294,3874.604 C824.349,3876.413 829.776,3879.428 829.776,3884.453 C829.776,3890.483 824.148,3894.302 814.299,3894.302 C803.847,3894.302 798.018,3888.272 795.807,3879.227 L771.687,3886.865 C776.31,3904.754 791.787,3916.814 814.299,3916.814 C841.032,3916.814 856.107,3901.538 856.107,3883.649 C856.107,3863.147 841.434,3855.107 818.319,3850.886 C805.857,3848.474 800.229,3846.263 800.229,3840.836 C800.229,3836.012 805.455,3832.394 814.5,3832.394 C824.349,3832.394 827.967,3839.228 829.575,3845.258 L853.092,3838.625 Z M974.295,3912.191 C947.763,3912.191 926.055,3892.292 926.055,3861.137 C926.055,3830.183 947.763,3809.882 974.094,3809.882 C989.772,3809.882 999.42,3818.123 1002.636,3823.751 L1007.862,3812.696 L1031.178,3812.696 L1031.178,3908.171 C1031.178,3939.527 1009.269,3956.21 978.114,3956.21 C950.577,3956.21 935.502,3941.939 930.276,3923.246 L956.808,3917.216 C958.818,3926.06 965.652,3932.09 978.114,3932.09 C992.385,3932.09 1002.636,3924.653 1002.636,3908.573 L1002.636,3899.126 C998.817,3905.558 988.767,3912.191 974.295,3912.191 Z M978.516,3886.463 C992.184,3886.463 1002.636,3877.016 1002.636,3861.137 C1002.636,3845.258 992.184,3835.61 978.516,3835.61 C965.049,3835.61 954.597,3845.258 954.597,3861.137 C954.597,3877.016 964.848,3886.463 978.516,3886.463 Z M1122.231,3814.505 L1112.181,3839.831 C1110.573,3838.625 1106.955,3836.615 1100.925,3836.615 C1090.272,3836.615 1081.83,3844.052 1081.83,3859.529 L1081.83,3914 L1053.288,3914 L1053.288,3812.696 L1076.604,3812.696 L1080.825,3823.751 C1084.644,3817.118 1092.684,3809.882 1105.146,3809.882 C1113.588,3809.882 1119.216,3812.495 1122.231,3814.505 Z M1129.065,3840.635 C1135.296,3820.133 1147.557,3809.882 1172.883,3809.882 C1194.189,3809.882 1215.696,3820.334 1215.696,3848.072 L1215.696,3914 L1192.179,3914 L1188.762,3905.558 C1185.345,3910.181 1178.31,3916.814 1162.029,3916.814 C1145.145,3916.814 1127.658,3906.161 1127.658,3885.257 C1127.658,3871.991 1133.688,3856.514 1168.26,3851.891 L1187.154,3849.278 L1187.154,3848.675 C1187.154,3838.625 1182.732,3832.394 1171.677,3832.394 C1160.823,3832.394 1155.597,3837.218 1153.989,3846.665 L1129.065,3840.635 Z M1187.154,3879.026 L1187.154,3868.172 L1169.667,3870.785 C1158.411,3872.393 1154.994,3876.815 1154.994,3883.448 C1154.994,3889.679 1160.421,3894.101 1170.27,3894.101 C1179.717,3894.101 1187.154,3888.272 1187.154,3879.026 Z M1301.121,3914 L1329.663,3914 L1329.663,3855.308 C1329.663,3824.153 1317.201,3809.882 1292.679,3809.882 C1277.604,3809.882 1268.961,3817.118 1263.534,3824.153 L1259.313,3812.696 L1235.997,3812.696 L1235.997,3914 L1264.539,3914 L1264.539,3859.529 C1264.539,3843.65 1272.378,3836.414 1283.634,3836.414 C1294.086,3836.414 1301.121,3842.042 1301.121,3858.323 L1301.121,3914 Z M1454.886,3773.3 L1454.886,3914 L1431.57,3914 L1427.751,3902.744 C1423.329,3908.372 1413.48,3916.814 1397.199,3916.814 C1370.265,3916.814 1347.552,3894.704 1347.552,3863.348 C1347.552,3831.992 1369.662,3809.882 1396.797,3809.882 C1411.671,3809.882 1421.922,3816.716 1426.344,3822.545 L1426.344,3773.3 L1454.886,3773.3 Z M1426.344,3863.348 C1426.344,3846.866 1415.691,3835.61 1401.42,3835.61 C1387.35,3835.61 1376.094,3847.268 1376.094,3863.348 C1376.094,3879.629 1387.35,3891.086 1401.42,3891.086 C1415.691,3891.086 1426.344,3879.629 1426.344,3863.348 Z" id="That’s-grand"></path>
        </g>
    </g>
</svg>