<?xml version="1.0" encoding="UTF-8"?>
<svg width="631px" height="170px" viewBox="0 0 631 170" version="1.1" xmlns="http://www.w3.org/2000/svg" xmlns:xlink="http://www.w3.org/1999/xlink">
    <!-- Generator: Sketch 58 (84663) - https://sketch.com -->
    <title>Group 12</title>
    <desc>Created with Sketch.</desc>
    <defs>
        <polygon id="path-1" points="0.708492141 0.062 54.8817 0.062 54.8817 93.7644 0.708492141 93.7644"></polygon>
        <polygon id="path-3" points="0.109392141 0.062 54.2826 0.062 54.2826 93.7644 0.109392141 93.7644"></polygon>
        <polygon id="path-5" points="0 138.938 285.251 138.938 285.251 1 0 1"></polygon>
        <polygon id="path-7" points="0.0002 0.5712 80.601 0.5712 80.601 24 0.0002 24"></polygon>
        <polygon id="path-9" points="0.1302 0.1086 34.601 0.1086 34.601 34.5806 0.1302 34.5806"></polygon>
        <polygon id="path-11" points="0.4136 0.254 41.4106 0.254 41.4106 41.2515 0.4136 41.2515"></polygon>
    </defs>
    <g id="Page-1" stroke="none" stroke-width="1" fill="none" fill-rule="evenodd">
        <g id="Case-study-Oxygen-OS" transform="translate(-285.000000, -5255.000000)">
            <g id="Work-Life-Balance" transform="translate(282.000000, 4789.000000)">
                <g id="Group" transform="translate(3.000000, 7.000000)">
                    <g id="Group-12" transform="translate(0.000000, 458.000000)">
                        <g id="Group-32" transform="translate(345.000000, 32.000000)">
                            <g id="Group-3" transform="translate(15.000000, 0.938000)">
                                <mask id="mask-2" fill="white">
                                    <use xlink:href="#path-1"></use>
                                </mask>
                                <g id="Clip-2"></g>
                                <path d="M1.4287,14.9844 L31.3437,93.7644 L54.8817,93.7644 L22.0167,7.1664 C19.8577,1.4814 13.4987,-1.3776 7.8137,0.7814 L7.8137,0.7814 C2.1287,2.9404 -0.7303,9.2994 1.4287,14.9844" id="Fill-1" fill="#DCF0F9" mask="url(#mask-2)"></path>
                            </g>
                            <polygon id="Fill-4" fill="#DCF0F9" points="208.9529 94.702 27.0369 94.702 27.0369 1.006 184.3609 1.006"></polygon>
                            <path d="M217.6599,58.9539 L203.9139,58.9539 C196.3219,58.9539 190.1669,52.7999 190.1669,45.2079 C190.1669,37.6159 196.3219,31.4619 203.9139,31.4619 L203.9139,31.4619 C211.5059,31.4619 217.6599,37.6159 217.6599,45.2079 L217.6599,58.9539 Z" id="Fill-6" fill="#C9E7F7"></path>
                            <path d="M210.7868,116.7239 L210.7868,116.7239 C214.5828,116.7239 217.6598,113.6469 217.6598,109.8509 L217.6598,58.9539 L203.9138,58.9539 L203.9138,109.8509 C203.9138,113.6469 206.9908,116.7239 210.7868,116.7239" id="Fill-8" fill="#C9E7F7"></path>
                            <path d="M278.3779,116.7239 L211.2399,116.7239 C207.1939,116.7239 203.9139,113.4439 203.9139,109.3979 L203.9139,31.4619 L271.4289,31.4619 C275.2669,31.4619 278.3779,34.5729 278.3779,38.4109 L278.3779,116.7239 Z" id="Fill-10" fill="#C9E7F7"></path>
                            <path d="M285.251,58.9539 L271.505,58.9539 C263.913,58.9539 257.758,52.7999 257.758,45.2079 C257.758,37.6159 263.913,31.4619 271.505,31.4619 L271.505,31.4619 C279.097,31.4619 285.251,37.6159 285.251,45.2079 L285.251,58.9539 Z" id="Fill-12" fill="#DCF0F9"></path>
                            <path d="M278.3779,116.7239 L278.3779,116.7239 C282.1739,116.7239 285.2509,113.6469 285.2509,109.8509 L285.2509,58.9539 L271.5049,58.9539 L271.5049,109.8509 C271.5049,113.6469 274.5819,116.7239 278.3779,116.7239" id="Fill-14" fill="#DCF0F9"></path>
                            <path d="M255.5217,94.702 L104.2617,94.702 C98.1807,94.702 93.2507,99.632 93.2507,105.713 C93.2507,111.794 98.1807,116.724 104.2617,116.724 L255.5217,116.724 C261.6027,116.724 266.5327,111.794 266.5327,105.713 C266.5327,99.632 261.6027,94.702 255.5217,94.702" id="Fill-16" fill="#DCF0F9"></path>
                            <g id="Group-20" transform="translate(173.000000, 0.938000)">
                                <mask id="mask-4" fill="white">
                                    <use xlink:href="#path-3"></use>
                                </mask>
                                <g id="Clip-19"></g>
                                <path d="M0.8296,14.9844 L30.7456,93.7644 L54.2826,93.7644 L21.4176,7.1664 C19.2586,1.4814 12.8996,-1.3776 7.2146,0.7814 C1.5296,2.9404 -1.3294,9.2994 0.8296,14.9844" id="Fill-18" fill="#DCF0F9" mask="url(#mask-4)"></path>
                            </g>
                            <mask id="mask-6" fill="white">
                                <use xlink:href="#path-5"></use>
                            </mask>
                            <g id="Clip-22"></g>
                            <polygon id="Fill-21" fill="#C9E7F7" mask="url(#mask-6)" points="27.493 116.724 125.326 116.724 125.326 94.702 27.493 94.702"></polygon>
                            <path d="M27.4926,58.9539 L13.7466,58.9539 C6.1546,58.9539 -0.0004,52.7999 -0.0004,45.2079 C-0.0004,37.6159 6.1546,31.4619 13.7466,31.4619 L13.7466,31.4619 C21.3386,31.4619 27.4926,37.6159 27.4926,45.2079 L27.4926,58.9539 Z" id="Fill-23" fill="#C9E7F7" mask="url(#mask-6)"></path>
                            <path d="M20.6194,116.7239 L20.6194,116.7239 C24.4154,116.7239 27.4924,113.6469 27.4924,109.8509 L27.4924,58.9539 L13.7464,58.9539 L13.7464,109.8509 C13.7464,113.6469 16.8234,116.7239 20.6194,116.7239" id="Fill-24" fill="#C9E7F7" mask="url(#mask-6)"></path>
                            <path d="M88.2106,116.7239 L21.0726,116.7239 C17.0266,116.7239 13.7466,113.4439 13.7466,109.3979 L13.7466,31.4619 L81.2616,31.4619 C85.0996,31.4619 88.2106,34.5729 88.2106,38.4109 L88.2106,116.7239 Z" id="Fill-25" fill="#C9E7F7" mask="url(#mask-6)"></path>
                            <path d="M95.0837,58.9539 L81.3377,58.9539 C73.7457,58.9539 67.5907,52.7999 67.5907,45.2079 C67.5907,37.6159 73.7457,31.4619 81.3377,31.4619 L81.3377,31.4619 C88.9297,31.4619 95.0837,37.6159 95.0837,45.2079 L95.0837,58.9539 Z" id="Fill-26" fill="#DCF0F9" mask="url(#mask-6)"></path>
                            <path d="M88.2105,116.7239 L88.2105,116.7239 C92.0065,116.7239 95.0835,113.6469 95.0835,109.8509 L95.0835,58.9539 L81.3375,58.9539 L81.3375,109.8509 C81.3375,113.6469 84.4145,116.7239 88.2105,116.7239" id="Fill-27" fill="#DCF0F9" mask="url(#mask-6)"></path>
                            <path d="M26.2711,116.7239 L21.0721,116.7239 L24.0031,136.9749 C24.1661,138.1019 25.1321,138.9379 26.2711,138.9379 C27.4101,138.9379 28.3761,138.1019 28.5391,136.9749 L31.4701,116.7239 L26.2711,116.7239 Z" id="Fill-28" fill="#C9E7F7" mask="url(#mask-6)"></path>
                            <path d="M75.0801,116.7239 L69.8811,116.7239 L72.8121,136.9749 C72.9751,138.1019 73.9411,138.9379 75.0801,138.9379 L75.0801,138.9379 C76.2191,138.9379 77.1851,138.1019 77.3481,136.9749 L80.2791,116.7239 L75.0801,116.7239 Z" id="Fill-29" fill="#C9E7F7" mask="url(#mask-6)"></path>
                            <path d="M216.7413,116.7239 L211.5423,116.7239 L214.4733,136.9749 C214.6363,138.1019 215.6023,138.9379 216.7413,138.9379 C217.8803,138.9379 218.8463,138.1019 219.0093,136.9749 L221.9403,116.7239 L216.7413,116.7239 Z" id="Fill-30" fill="#C9E7F7" mask="url(#mask-6)"></path>
                            <path d="M265.5504,116.7239 L260.3514,116.7239 L263.2824,136.9749 C263.4454,138.1019 264.4114,138.9379 265.5504,138.9379 L265.5504,138.9379 C266.6894,138.9379 267.6554,138.1019 267.8184,136.9749 L270.7494,116.7239 L265.5504,116.7239 Z" id="Fill-31" fill="#C9E7F7" mask="url(#mask-6)"></path>
                        </g>
                        <g id="Group-18">
                            <g id="Group-3" transform="translate(0.000000, 39.746000)">
                                <mask id="mask-8" fill="white">
                                    <use xlink:href="#path-7"></use>
                                </mask>
                                <g id="Clip-2"></g>
                                <path d="M80.6012,0.5712 L0.0002,0.5712 C0.0002,13.5102 10.4892,24.0002 23.4292,24.0002 L57.1722,24.0002 C70.1122,24.0002 80.6012,13.5102 80.6012,0.5712" id="Fill-1" fill="#DCF0F9" mask="url(#mask-8)"></path>
                            </g>
                            <path d="M29.7884,40.0906 C29.7884,48.3166 23.1204,54.9846 14.8944,54.9846 C6.6684,54.9846 0.0004,48.3166 0.0004,40.0906 C0.0004,31.8646 6.6684,25.1966 14.8944,25.1966 C23.1204,25.1966 29.7884,31.8646 29.7884,40.0906" id="Fill-4" fill="#DCF0F9"></path>
                            <g id="Group-8" transform="translate(46.000000, 22.746000)">
                                <mask id="mask-10" fill="white">
                                    <use xlink:href="#path-9"></use>
                                </mask>
                                <g id="Clip-7"></g>
                                <path d="M34.6012,17.3446 C34.6012,26.8636 26.8842,34.5806 17.3652,34.5806 C7.8462,34.5806 0.1302,26.8636 0.1302,17.3446 C0.1302,7.8256 7.8462,0.1086 17.3652,0.1086 C26.8842,0.1086 34.6012,7.8256 34.6012,17.3446" id="Fill-6" fill="#DCF0F9" mask="url(#mask-10)"></path>
                            </g>
                            <path d="M51.2462,38.4072 C51.2462,48.0042 43.4662,55.7832 33.8702,55.7832 C24.2732,55.7832 16.4932,48.0042 16.4932,38.4072 C16.4932,28.8102 24.2732,21.0312 33.8702,21.0312 C43.4662,21.0312 51.2462,28.8102 51.2462,38.4072" id="Fill-9" fill="#DCF0F9"></path>
                            <path d="M57.0312,33.0303 C57.0312,40.4863 50.9872,46.5303 43.5312,46.5303 C36.0752,46.5303 30.0312,40.4863 30.0312,33.0303 C30.0312,25.5743 36.0752,19.5303 43.5312,19.5303 C50.9872,19.5303 57.0312,25.5743 57.0312,33.0303" id="Fill-11" fill="#DCF0F9"></path>
                            <g id="Group-15" transform="translate(16.000000, 0.746000)">
                                <mask id="mask-12" fill="white">
                                    <use xlink:href="#path-11"></use>
                                </mask>
                                <g id="Clip-14"></g>
                                <path d="M41.4106,20.7525 C41.4106,32.0735 32.2336,41.2515 20.9116,41.2515 C9.5906,41.2515 0.4136,32.0735 0.4136,20.7525 C0.4136,9.4315 9.5906,0.2535 20.9116,0.2535 C32.2336,0.2535 41.4106,9.4315 41.4106,20.7525" id="Fill-13" fill="#DCF0F9" mask="url(#mask-12)"></path>
                            </g>
                            <path d="M45.1791,22.8079 C45.1791,16.2619 50.4851,10.9559 57.0311,10.9559 C63.5771,10.9559 68.8831,16.2619 68.8831,22.8079 C68.8831,29.3539 63.5771,34.6599 57.0311,34.6599 C50.4851,34.6599 45.1791,29.3539 45.1791,22.8079" id="Fill-16" fill="#DCF0F9"></path>
                        </g>
                    </g>
                </g>
            </g>
        </g>
    </g>
</svg>