<?xml version="1.0" encoding="UTF-8"?>
<svg width="9px" height="16px" viewBox="0 0 9 16" version="1.1" xmlns="http://www.w3.org/2000/svg" xmlns:xlink="http://www.w3.org/1999/xlink">
    <!-- Generator: Sketch 47.1 (45422) - http://www.bohemiancoding.com/sketch -->
    <title>Path 2</title>
    <desc>Created with Sketch.</desc>
    <defs></defs>
    <g id="Page-1" stroke="none" stroke-width="1" fill="none" fill-rule="evenodd">
        <g id="Journal" transform="translate(-285.000000, -1944.000000)" fill="#312E3F">
            <path d="M292.292893,1944.70711 L285.707107,1951.29289 L285.707107,1951.29289 C285.316582,1951.68342 285.316582,1952.31658 285.707107,1952.70711 L292.292893,1959.29289 L292.292893,1959.29289 C292.683418,1959.68342 293.316582,1959.68342 293.707107,1959.29289 C293.894643,1959.10536 294,1958.851 294,1958.58579 L294,1955.34315 L294,1955.34315 C294,1955.07793 293.894643,1954.82358 293.707107,1954.63604 L291.742319,1952.67125 L291.742243,1952.67133 C291.351718,1952.2808 291.351718,1951.64764 291.742243,1951.25711 C291.742268,1951.25709 291.742294,1951.25706 291.742319,1951.25704 L293.70703,1949.29291 L293.70703,1949.29291 C293.894613,1949.10536 294,1948.85098 294,1948.58572 L294,1945.41421 L294,1945.41421 C294,1944.86193 293.552285,1944.41421 293,1944.41421 C292.734784,1944.41421 292.48043,1944.51957 292.292893,1944.70711 Z" id="Path-2"></path>
        </g>
    </g>
</svg>