<?xml version="1.0" encoding="UTF-8"?>
<svg width="9px" height="16px" viewBox="0 0 9 16" version="1.1" xmlns="http://www.w3.org/2000/svg" xmlns:xlink="http://www.w3.org/1999/xlink">
    <!-- Generator: Sketch 47.1 (45422) - http://www.bohemiancoding.com/sketch -->
    <title>Path 2 Copy</title>
    <desc>Created with Sketch.</desc>
    <defs></defs>
    <g id="Page-1" stroke="none" stroke-width="1" fill="none" fill-rule="evenodd">
        <g id="Journal" transform="translate(-1476.000000, -1944.000000)" fill="#312E3F">
            <path d="M1482.87868,1944.70711 L1476.29289,1951.29289 L1476.29289,1951.29289 C1475.90237,1951.68342 1475.90237,1952.31658 1476.29289,1952.70711 L1482.87868,1959.29289 L1482.87868,1959.29289 C1483.2692,1959.68342 1483.90237,1959.68342 1484.29289,1959.29289 C1484.48043,1959.10536 1484.58579,1958.851 1484.58579,1958.58579 L1484.58579,1955.34315 L1484.58579,1955.34315 C1484.58579,1955.07793 1484.48043,1954.82358 1484.29289,1954.63604 L1482.32811,1952.67125 L1482.32803,1952.67133 C1481.9375,1952.2808 1481.9375,1951.64764 1482.32803,1951.25711 C1482.32805,1951.25709 1482.32808,1951.25706 1482.32811,1951.25704 L1484.29282,1949.29291 L1484.29282,1949.29291 C1484.4804,1949.10536 1484.58579,1948.85098 1484.58579,1948.58572 L1484.58579,1945.41421 L1484.58579,1945.41421 C1484.58579,1944.86193 1484.13807,1944.41421 1483.58579,1944.41421 C1483.32057,1944.41421 1483.06622,1944.51957 1482.87868,1944.70711 Z" id="Path-2-Copy" transform="translate(1480.292893, 1952.000000) scale(-1, 1) translate(-1480.292893, -1952.000000) "></path>
        </g>
    </g>
</svg>