<?xml version="1.0" encoding="UTF-8"?>
<svg width="837px" height="135px" viewBox="0 0 837 135" version="1.1" xmlns="http://www.w3.org/2000/svg" xmlns:xlink="http://www.w3.org/1999/xlink">
    <!-- Generator: Sketch 58 (84663) - https://sketch.com -->
    <title>digitalspace</title>
    <desc>Created with Sketch.</desc>
    <g id="Page-1" stroke="none" stroke-width="1" fill="none" fill-rule="evenodd" fill-opacity="0">
        <g id="Startpage" transform="translate(-190.000000, -352.000000)" fill="#FFFFFF" fill-rule="nonzero" stroke="#FFFFFF">
            <g id="Header" transform="translate(90.000000, 0.000000)">
                <g id="Introduction" transform="translate(96.000000, 180.000000)">
                    <path d="M80.656,176.6 L60.492,176.6 L60.492,211.39 C57.368,207.272 50.126,202.444 39.618,202.444 C20.448,202.444 4.828,218.064 4.828,240.216 C4.828,262.368 20.874,277.988 39.902,277.988 C51.404,277.988 58.362,272.024 61.486,268.048 L64.184,276 L80.656,276 L80.656,176.6 Z M60.492,240.216 C60.492,251.718 52.966,259.812 42.884,259.812 C32.944,259.812 24.992,251.718 24.992,240.216 C24.992,228.856 32.944,220.62 42.884,220.62 C52.966,220.62 60.492,228.572 60.492,240.216 Z M95.708,184.552 C95.708,190.658 100.678,195.628 106.642,195.628 C112.748,195.628 117.86,190.658 117.86,184.552 C117.86,178.588 112.748,173.476 106.642,173.476 C100.678,173.476 95.708,178.588 95.708,184.552 Z M96.702,276 L116.866,276 L116.866,204.432 L96.702,204.432 L96.702,276 Z M163.868,274.722 C174.092,274.722 181.192,270.036 183.89,265.492 L183.89,272.166 C183.89,283.526 176.648,288.78 166.566,288.78 C157.762,288.78 152.934,284.52 151.514,278.272 L132.77,282.532 C136.462,295.738 147.112,305.82 166.566,305.82 C188.576,305.82 204.054,294.034 204.054,271.882 L204.054,204.432 L187.582,204.432 L183.89,212.242 L183.667379,211.869965 C181.194521,207.913235 174.4612,202.444 163.726,202.444 C145.124,202.444 129.788,216.786 129.788,238.654 C129.788,260.664 145.124,274.722 163.868,274.722 Z M166.85,256.546 C157.194,256.546 149.952,249.872 149.952,238.654 C149.952,227.436 157.336,220.62 166.85,220.62 C176.506,220.62 183.89,227.436 183.89,238.654 C183.89,249.872 176.506,256.546 166.85,256.546 Z M219.106,184.552 C219.106,190.658 224.076,195.628 230.04,195.628 C236.146,195.628 241.258,190.658 241.258,184.552 C241.258,178.588 236.146,173.476 230.04,173.476 C224.076,173.476 219.106,178.588 219.106,184.552 Z M220.1,276 L240.264,276 L240.264,204.432 L220.1,204.432 L220.1,276 Z M251.198,204.432 L251.198,222.04 L263.126,222.04 L263.126,256.12 C263.126,270.746 273.208,277.988 284.568,277.988 C295.786,277.988 301.324,273.444 303.454,271.314 L295.36,256.972 C294.366,257.966 292.52,259.244 289.254,259.244 C285.42,259.244 283.29,257.114 283.29,252.996 L283.29,222.04 L300.33,222.04 L300.33,204.432 L283.29,204.432 L283.29,185.83 L263.126,185.83 L263.126,204.432 L251.198,204.432 Z M310.838,224.17 L328.446,228.43 C329.582,221.756 333.274,218.348 340.942,218.348 C348.752,218.348 351.876,222.75 351.876,229.85 L351.876,230.276 L338.528,232.122 C314.104,235.388 309.844,246.322 309.844,255.694 C309.844,270.462 322.198,277.988 334.126,277.988 C345.628,277.988 350.598,273.302 353.012,270.036 L355.426,276 L372.04,276 L372.04,229.424 C372.04,209.828 356.846,202.444 341.794,202.444 C323.902,202.444 315.24,209.686 310.838,224.17 Z M351.876,251.292 C351.876,257.824 346.622,261.942 339.948,261.942 C332.99,261.942 329.156,258.818 329.156,254.416 C329.156,249.8081 331.490204,246.710567 339.129001,245.528455 L351.876,243.624 L351.876,251.292 Z M386.382,276 L406.546,276 L406.546,176.6 L386.382,176.6 L386.382,276 Z M516.454,222.75 C513.33,209.828 503.106,202.444 489.048,202.444 C470.02,202.444 460.506,213.804 460.506,225.448 C460.506,240.784 473.002,245.47 488.338,248.168 C496.148,249.446 499.982,251.576 499.982,255.126 C499.982,259.386 496.006,262.084 489.048,262.084 C481.664,262.084 477.546,257.824 475.984,251.434 L458.944,256.83 C462.21,269.468 473.144,277.988 489.048,277.988 C507.934,277.988 518.584,267.196 518.584,254.558 C518.584,240.074 508.218,234.394 491.888,231.412 L490.603503,231.157163 C482.69634,229.54612 479.108,227.9543 479.108,224.312 C479.108,220.904 482.8,218.348 489.19,218.348 C496.148,218.348 498.704,223.176 499.84,227.436 L516.454,222.75 Z M531.222,303.832 L551.386,303.832 L551.386,269.042 C554.51,273.16 561.752,277.988 572.26,277.988 C591.43,277.988 607.05,262.368 607.05,240.216 C607.05,218.064 591.004,202.444 571.976,202.444 C560.474,202.444 553.516,208.408 550.392,212.384 L547.694,204.432 L531.222,204.432 L531.222,303.832 Z M551.386,240.216 C551.386,228.714 558.912,220.62 568.994,220.62 C578.934,220.62 586.886,228.714 586.886,240.216 C586.886,251.576 578.934,259.812 568.994,259.812 C558.912,259.812 551.386,251.86 551.386,240.216 Z M617.558,224.17 L635.166,228.43 C636.302,221.756 639.994,218.348 647.662,218.348 C655.472,218.348 658.596,222.75 658.596,229.85 L658.596,230.276 L645.248,232.122 C620.824,235.388 616.564,246.322 616.564,255.694 C616.564,270.462 628.918,277.988 640.846,277.988 C652.348,277.988 657.318,273.302 659.732,270.036 L662.146,276 L678.76,276 L678.76,229.424 C678.76,209.828 663.566,202.444 648.514,202.444 C630.622,202.444 621.96,209.686 617.558,224.17 Z M658.596,251.292 C658.596,257.824 653.342,261.942 646.668,261.942 C639.71,261.942 635.876,258.818 635.876,254.416 C635.876,249.8081 638.210204,246.710567 645.849001,245.528455 L658.596,243.624 L658.596,251.292 Z M759.7,256.262 L741.382,250.156 C739.11,255.978 734.14,259.244 727.608,259.244 C717.526,259.244 710.284,251.434 710.284,240.216 C710.284,228.856 717.526,221.188 727.608,221.188 C734.566,221.188 739.82,225.164 741.95,231.554 L760.41,225.448 C755.866,211.39 743.37,202.444 727.608,202.444 C706.45,202.444 690.12,217.922 690.12,240.216 C690.12,262.51 706.734,277.988 727.608,277.988 C742.802,277.988 754.588,269.752 759.7,256.262 Z M838.936,257.114 L822.18,252.144 L822.034842,252.501384 C820.457754,256.190911 815.776476,261.516 806.702,261.516 C796.762,261.516 789.946,253.99 789.094,246.464 L840.498,246.464 L840.498,239.648 C840.498,217.922 827.718,202.444 806.56,202.444 C786.254,202.444 770.066,218.064 770.066,240.216 C770.066,262.936 786.822,277.988 806.702,277.988 C824.31,277.988 834.534,269.042 838.936,257.114 Z M789.236,232.69 C790.656,225.448 796.194,218.49 806.702,218.49 C818.772,218.49 822.89,228.43 823.032,232.69 L789.236,232.69 Z" id="digitalspace"></path>
                </g>
            </g>
        </g>
    </g>
</svg>