<?xml version="1.0" encoding="UTF-8"?>
<svg width="19px" height="13px" viewBox="0 0 19 13" version="1.1" xmlns="http://www.w3.org/2000/svg" xmlns:xlink="http://www.w3.org/1999/xlink">
    <!-- Generator: Sketch 58 (84663) - https://sketch.com -->
    <title>Group 6</title>
    <desc>Created with Sketch.</desc>
    <g id="Page-1" stroke="none" stroke-width="1" fill="none" fill-rule="evenodd">
        <g id="Startpage" transform="translate(-866.000000, -89.000000)" fill="#4016DA">
            <g id="Header" transform="translate(90.000000, 0.000000)">
                <g id="Group-6" transform="translate(776.000000, 89.000000)">
                    <path d="M17,0 C18.1045695,-2.02906125e-16 19,0.8954305 19,2 L19,11 C19,12.1045695 18.1045695,13 17,13 L2,13 C0.8954305,13 1.3527075e-16,12.1045695 0,11 L0,2 C-1.3527075e-16,0.8954305 0.8954305,2.02906125e-16 2,0 L17,0 Z M15.5957635,2 L3.23658408,2 C2.99054735,2 2.75314596,2.09070266 2.56978922,2.25475869 C2.15820381,2.62301932 2.12308214,3.25520945 2.49134277,3.66679486 L2.49134277,3.66679486 L7.63875021,9.41977964 C7.6647264,9.44881186 7.69154531,9.47707892 7.71917259,9.50454464 C8.50250827,10.2832994 9.76883278,10.2795858 10.5475876,9.49625017 L10.5475876,9.49625017 L16.3049408,3.70503012 C16.4912101,3.51766515 16.5957635,3.26420045 16.5957635,3 C16.5957635,2.44771525 16.1480482,2 15.5957635,2 L15.5957635,2 Z" id="Combined-Shape"></path>
                </g>
            </g>
        </g>
    </g>
</svg>