<?xml version="1.0" encoding="UTF-8"?>
<svg width="568px" height="796px" viewBox="0 0 568 796" version="1.1" xmlns="http://www.w3.org/2000/svg" xmlns:xlink="http://www.w3.org/1999/xlink">
    <!-- Generator: Sketch 58 (84663) - https://sketch.com -->
    <title>Stroke 1</title>
    <desc>Created with Sketch.</desc>
    <g id="Page-1" stroke="none" stroke-width="1" fill="none" fill-rule="evenodd">
        <g id="Startpage" transform="translate(-381.000000, -74.000000)" fill="#171425">
            <g id="Header" transform="translate(90.000000, 0.000000)">
                <g id="BG">
                    <path d="M519.999137,413 C458.797233,413 409,363.432477 409,302.488828 C409,241.567523 458.797233,192 519.999137,192 C581.201041,192 631,241.567523 631,302.488828 C631,363.432477 581.201041,413 519.999137,413 M689.288764,149.747865 C647.46149,103.338695 587.042595,74 519.599929,74 C393.340945,74 291,176.260995 291,302.421344 C291,428.581693 393.340945,530.865072 519.599929,530.865072 C580.678811,530.865072 630.377669,580.523383 630.377669,641.578656 C630.377669,702.585716 580.678811,752.269855 519.599929,752.269855 C458.521047,752.269855 408.823912,702.585716 408.823912,641.578656 L291,641.578656 C291,767.716621 393.340945,870 519.599929,870 C645.858913,870 748.199858,767.716621 748.199858,641.578656 C748.199858,574.166293 718.838225,513.818703 672.392772,472 C718.838225,430.181297 748.199858,369.809601 748.199858,302.421344 C748.199858,241.388456 797.921118,191.730145 859,191.730145 L859,74 C791.559058,74 731.162563,103.338695 689.288764,149.747865" id="Stroke-1"></path>
                </g>
            </g>
        </g>
    </g>
</svg>