<?xml version="1.0" encoding="UTF-8"?>
<svg width="36px" height="50px" viewBox="0 0 36 50" version="1.1" xmlns="http://www.w3.org/2000/svg" xmlns:xlink="http://www.w3.org/1999/xlink">
    <!-- Generator: Sketch 53.2 (72643) - https://sketchapp.com -->
    <title>Fill 1</title>
    <desc>Created with Sketch.</desc>
    <g id="Page-1" stroke="none" stroke-width="1" fill="none" fill-rule="evenodd">
        <g id="Startpage-Copy" transform="translate(-30.000000, -20.000000)" fill="#FFFFFF">
            <g id="Left-Menu">
                <g id="Logo">
                    <g id="Group-4" transform="translate(30.000000, 20.000000)">
                        <path d="M14.489608,21.3024315 C10.6185439,21.3024315 7.46733043,18.1831628 7.46733043,14.3495238 C7.46733043,10.5158848 10.6185439,7.39513696 14.489608,7.39513696 C18.3606721,7.39513696 21.510392,10.5158848 21.510392,14.3495238 C21.510392,18.1831628 18.3606721,21.3024315 14.489608,21.3024315 M25.2440572,4.75803112 C22.5931549,1.84434716 18.7624144,0 14.489608,0 C6.48761668,0 0,6.42489499 0,14.3495238 C0,22.2741525 6.48761668,28.6975685 14.489608,28.6975685 C18.3606721,28.6975685 21.510392,31.8168372 21.510392,35.6519553 C21.510392,39.4855943 18.3606721,42.604863 14.489608,42.604863 C10.6185439,42.604863 7.46733043,39.4855943 7.46733043,35.6519553 L0,35.6519553 C0,43.576584 6.48761668,50 14.489608,50 C22.4915993,50 28.9777225,43.576584 28.9777225,35.6519553 C28.9777225,31.4189789 27.1168637,27.6267526 24.1732421,25 C27.1168637,22.3747264 28.9777225,18.5810211 28.9777225,14.3495238 C28.9777225,10.5158848 32.1289359,7.39513696 36,7.39513696 L36,0 C31.7257001,0 27.896453,1.84434716 25.2440572,4.75803112" id="Fill-1"></path>
                    </g>
                </g>
            </g>
        </g>
    </g>
</svg>