<?xml version="1.0" encoding="UTF-8"?>
<svg width="22px" height="18px" viewBox="0 0 22 18" version="1.1" xmlns="http://www.w3.org/2000/svg" xmlns:xlink="http://www.w3.org/1999/xlink">
    <!-- Generator: Sketch 47.1 (45422) - http://www.bohemiancoding.com/sketch -->
    <title>Shape</title>
    <desc>Created with Sketch.</desc>
    <defs></defs>
    <g id="Page-1" stroke="none" stroke-width="1" fill="none" fill-rule="evenodd">
        <g id="Startpage" transform="translate(-819.000000, -1051.000000)" fill-rule="nonzero" fill="#ffffff">
            <g id="NewsFeed" transform="translate(90.000000, 844.000000)">
                <g id="Twitter-Post" transform="translate(195.000000, 184.000000)">
                    <path d="M556.05,25.1296832 C555.238436,25.4910816 554.36764,25.7361779 553.452708,25.8456003 C554.386916,25.2833889 555.102029,24.3916426 555.440958,23.3323228 C554.564649,23.8529668 553.597366,24.2310211 552.566707,24.435962 C551.74138,23.5511316 550.567431,23 549.265326,23 C546.767259,23 544.74179,25.0355408 544.74179,27.5446543 C544.74179,27.9005128 544.781747,28.2480794 544.858922,28.5804385 C541.100112,28.3907052 537.767061,26.5808891 535.536297,23.8308071 C535.14635,24.5010289 534.924516,25.2819768 534.924516,26.1156081 C534.924516,27.69282 535.723686,29.0844627 536.936222,29.89865 C536.194915,29.8737385 535.497709,29.6687976 534.887334,29.3281468 L534.887334,29.3849219 C534.887334,31.5866241 536.447086,33.4241399 538.515249,33.8423496 C538.136327,33.9448201 537.736761,34.0015952 537.323394,34.0015952 C537.031303,34.0015952 536.748832,33.9725197 536.471874,33.9171204 C537.047805,35.7241848 538.717807,37.0382685 540.696437,37.0742961 C539.14908,38.2928615 537.198012,39.0170704 535.078866,39.0170704 C534.713744,39.0170704 534.354098,38.9949107 534,38.9547553 C536.00205,40.2467156 538.378878,41 540.933439,41 C549.254373,41 553.802734,34.0736142 553.802734,28.0667104 L553.787565,27.4782115 C554.676268,26.841193 555.445101,26.0408373 556.05,25.1296832 Z" id="Shape"></path>
                </g>
            </g>
        </g>
    </g>
</svg>
