<?xml version="1.0" encoding="UTF-8"?>
<svg width="130px" height="130px" viewBox="0 0 130 130" version="1.1" xmlns="http://www.w3.org/2000/svg" xmlns:xlink="http://www.w3.org/1999/xlink">
    <!-- Generator: Sketch 55.2 (78181) - https://sketchapp.com -->
    <title>1-white</title>
    <desc>Created with Sketch.</desc>
    <g id="Page-1" stroke="none" stroke-width="1" fill="none" fill-rule="evenodd">
        <g id="Case-study-OnePlus" transform="translate(-149.000000, -750.000000)" fill="#FFFFFF">
            <g id="Box" transform="translate(90.000000, 708.000000)">
                <path d="M172.137655,87 L172.137655,70.125 L189,70.125 L189,58.875 L172.137655,58.875 L172.137655,42 L160.886718,42 L160.886718,58.875 L144,58.875 L144,70.125 L160.886718,70.125 L160.886718,87 L172.137655,87 Z M172,172 L172,98.5493408 L160.699623,98.5493408 L160.699623,160.698305 L70.3097937,160.698305 L70.3097937,70.3092282 L132.448682,70.3092282 L132.448682,59 L59,59 L59,172 L172,172 Z M99,144 L99,132.5905 L110.277489,132.5905 L110.277489,98.5064 L99,98.5064 L99,87 L121.588861,87 L121.588861,132.5905 L133,132.5905 L133,144 L99,144 Z" id="1-white"></path>
            </g>
        </g>
    </g>
</svg>